{"glyphs":{"0":{"ha":740,"x_min":0,"x_max":0,"o":"m 344 953 b 404 932 367 958 392 944 b 675 614 569 871 650 742 b 683 294 697 492 696 406 b 382 0 658 144 560 0 b 26 439 114 0 29 163 b 344 953 25 686 136 875 m 353 844 b 153 597 246 794 181 717 b 143 319 128 471 131 440 b 382 106 149 214 206 106 b 550 214 458 106 515 150 b 586 446 575 265 589 339 b 563 636 586 517 575 575 b 353 844 533 729 463 803 "},"1":{"ha":635,"x_min":0,"x_max":0,"o":"m 39 626 b 293 918 104 693 208 764 b 396 885 335 986 414 954 b 382 96 353 756 396 231 b 542 101 401 96 432 97 b 554 3 592 101 606 8 b 100 -1 407 -8 263 -1 b 99 103 64 -1 61 103 b 272 100 172 103 238 103 b 286 760 288 243 271 599 b 106 569 194 640 129 588 b 39 626 79 550 11 599 "},"2":{"ha":757,"x_min":0,"x_max":0,"o":"m 333 965 b 554 608 586 969 672 789 b 213 138 476 471 313 260 b 431 115 276 160 350 146 b 594 104 492 93 574 76 b 574 318 632 165 574 283 b 678 318 558 372 671 376 b 635 7 686 197 747 50 b 292 56 539 -32 431 3 b 94 4 238 75 157 53 b 89 136 24 -32 -42 7 b 328 440 163 210 240 324 b 492 778 429 576 500 660 b 333 861 486 851 415 863 b 193 749 261 860 213 804 b 158 586 167 679 156 621 b 50 586 154 526 50 518 b 133 864 49 647 61 781 b 333 965 181 924 258 964 "},"3":{"ha":699,"x_min":0,"x_max":0,"o":"m 519 947 b 571 864 581 953 607 908 b 331 675 518 790 399 739 b 608 635 422 686 532 704 b 626 200 719 526 689 347 b 332 0 565 63 479 0 b 39 285 128 0 50 81 b 44 425 38 340 39 375 b 150 410 57 465 154 456 b 181 157 143 368 143 208 b 328 94 210 124 251 94 b 524 239 456 94 490 160 b 532 554 564 343 589 478 b 236 575 447 643 315 575 b 181 658 161 575 144 622 b 444 863 231 710 332 785 b 132 844 378 863 204 858 b 132 943 72 838 75 936 "},"4":{"ha":871,"x_min":0,"x_max":0,"o":"m 538 931 b 633 892 575 993 633 981 b 638 297 633 633 618 526 b 771 299 681 300 736 300 b 760 200 807 297 793 200 b 646 199 728 200 679 203 b 643 54 647 169 649 81 b 536 47 621 -4 519 -22 b 538 186 539 71 539 149 b 79 171 382 171 285 203 b 53 281 49 172 4 225 b 538 931 143 396 428 811 m 531 756 b 189 282 408 597 294 440 b 526 286 350 294 382 275 b 531 756 519 356 522 524 "},"5":{"ha":656,"x_min":0,"x_max":0,"o":"m 514 960 b 508 853 614 971 572 853 b 139 836 340 858 285 822 l 147 694 b 310 722 196 708 251 721 b 604 522 449 725 574 663 b 610 301 615 469 610 343 b 517 63 610 200 585 122 b 153 36 433 -14 256 -19 b 21 426 0 118 40 326 b 128 443 17 457 124 474 b 179 144 136 388 125 188 b 447 140 258 86 375 86 b 497 253 483 164 497 213 b 500 447 497 275 501 415 b 385 610 497 547 465 579 b 117 599 288 642 224 631 b 42 657 67 572 29 613 b 35 858 46 699 35 815 b 79 950 18 889 39 953 b 514 960 303 935 318 953 "},"6":{"ha":778,"x_min":0,"x_max":0,"o":"m 432 963 b 694 717 615 963 665 886 b 593 693 700 647 610 619 b 432 858 575 790 549 858 b 236 704 336 858 264 790 b 211 507 224 658 214 599 b 444 625 278 569 364 625 b 699 453 549 625 668 603 b 681 143 725 365 722 238 b 426 -7 626 6 515 -7 b 138 178 275 -7 178 68 b 114 304 124 213 113 253 b 14 303 58 258 8 251 b 108 419 25 335 74 393 b 117 654 108 474 108 567 b 432 963 138 842 275 963 m 444 521 b 213 385 372 521 292 468 b 238 235 215 324 226 283 b 426 99 272 119 357 99 b 558 147 496 103 533 121 b 601 339 599 193 606 260 b 444 521 594 453 561 521 "},"7":{"ha":707,"x_min":0,"x_max":0,"o":"m 592 957 b 657 883 660 963 674 917 b 274 35 464 489 369 297 b 169 63 265 7 157 32 b 335 465 219 197 274 335 b 525 857 407 625 454 701 b 74 850 346 857 168 842 b 85 953 38 867 51 956 b 592 957 286 935 439 964 "},"8":{"ha":774,"x_min":0,"x_max":0,"o":"m 351 963 b 600 785 507 964 588 892 b 521 592 606 731 578 643 b 690 476 586 568 660 539 b 667 126 743 361 735 246 b 254 10 583 -12 358 -10 b 29 328 69 40 17 192 b 218 572 38 433 114 521 b 113 761 117 622 107 707 b 351 963 124 867 207 961 m 346 858 b 222 738 271 858 222 806 b 358 600 222 657 294 597 b 493 761 422 604 492 668 b 346 858 494 829 438 858 m 382 525 b 140 296 247 503 133 432 b 469 106 150 79 326 75 b 614 288 542 125 603 200 b 590 433 618 336 624 376 b 382 525 550 504 490 513 "},"9":{"ha":638,"x_min":0,"x_max":0,"o":"m 306 981 b 590 675 547 981 611 814 b 331 40 553 443 394 176 b 228 63 301 -19 204 -10 b 410 429 271 176 368 321 b 261 389 375 413 329 383 b 31 693 83 403 28 547 b 306 981 33 846 117 967 m 308 875 b 139 696 172 865 142 768 b 275 476 136 626 139 501 b 485 783 460 475 521 674 b 308 875 467 846 399 874 "},"A":{"ha":879,"x_min":0,"x_max":0,"o":"m 474 910 b 360 900 456 976 392 981 b 189 417 301 769 246 547 l 131 417 b 150 328 51 418 50 333 b 44 61 108 258 61 124 b 138 10 6 -42 119 -44 b 271 328 174 131 232 226 b 596 328 297 328 536 329 b 710 42 625 247 675 165 b 817 65 735 -42 863 -69 b 707 326 783 153 740 239 b 746 328 719 326 733 328 b 756 438 853 338 853 438 b 669 432 722 436 697 433 b 474 910 621 519 535 743 m 421 758 b 551 433 465 622 514 510 b 310 429 517 435 331 429 b 421 758 340 500 382 651 "},"Á":{"ha":879,"x_min":0,"x_max":0,"o":"m 449 1163 b 519 1117 481 1200 551 1154 b 418 1021 496 1089 442 1049 b 360 1064 389 989 329 1019 b 449 1163 378 1090 431 1136 m 474 910 b 360 900 456 976 392 981 b 189 417 301 769 246 547 l 131 417 b 150 328 51 418 50 333 b 44 61 108 258 61 124 b 138 10 6 -42 119 -44 b 271 328 174 131 232 226 b 596 328 297 328 536 329 b 710 42 625 247 675 165 b 817 65 735 -42 863 -69 b 707 326 783 153 740 239 b 746 328 719 326 733 328 b 756 438 853 338 853 438 b 669 432 722 436 697 433 b 474 910 621 519 535 743 m 421 758 b 551 433 465 622 514 510 b 310 429 517 435 331 429 b 421 758 340 500 382 651 "},"Ă":{"ha":879,"x_min":0,"x_max":0,"o":"m 489 1147 b 536 1103 522 1182 560 1139 b 401 1029 508 1061 463 1029 b 267 1103 340 1029 294 1061 b 314 1147 243 1139 281 1182 b 401 1101 340 1121 356 1101 b 489 1147 447 1101 463 1121 m 474 910 b 360 900 456 976 392 981 b 189 417 301 769 246 547 l 131 417 b 150 328 51 418 50 333 b 44 61 108 258 61 124 b 138 10 6 -42 119 -44 b 271 328 174 131 232 226 b 596 328 297 328 536 329 b 710 42 625 247 675 165 b 817 65 735 -42 863 -69 b 707 326 783 153 740 239 b 746 328 719 326 733 328 b 756 438 853 338 853 438 b 669 432 722 436 697 433 b 474 910 621 519 535 743 m 421 758 b 551 433 465 622 514 510 b 310 429 517 435 331 429 b 421 758 340 500 382 651 "},"Â":{"ha":879,"x_min":0,"x_max":0,"o":"m 424 1169 b 554 1082 478 1138 524 1104 b 517 1014 593 1053 550 986 b 408 1099 468 1054 433 1078 b 288 1025 374 1074 317 1047 b 239 1072 253 997 204 1033 b 424 1169 263 1099 403 1189 m 474 910 b 360 900 456 976 392 981 b 189 417 301 769 246 547 l 131 417 b 150 328 51 418 50 333 b 44 61 108 258 61 124 b 138 10 6 -42 119 -44 b 271 328 174 131 232 226 b 596 328 297 328 536 329 b 710 42 625 247 675 165 b 817 65 735 -42 863 -69 b 707 326 783 153 740 239 b 746 328 719 326 733 328 b 756 438 853 338 853 438 b 669 432 722 436 697 433 b 474 910 621 519 535 743 m 421 758 b 551 433 465 622 514 510 b 310 429 517 435 331 429 b 421 758 340 500 382 651 "},"Ä":{"ha":879,"x_min":0,"x_max":0,"o":"m 481 1106 b 554 1079 522 1110 546 1097 b 482 1017 567 1054 542 1017 b 481 1106 431 1017 432 1100 m 340 1107 b 342 1014 397 1107 399 1014 b 272 1061 315 1014 272 1024 b 340 1107 271 1093 290 1107 m 474 910 b 360 900 456 976 392 981 b 189 417 301 769 246 547 l 131 417 b 150 328 51 418 50 333 b 44 61 108 258 61 124 b 138 10 6 -42 119 -44 b 271 328 174 131 232 226 b 596 328 297 328 536 329 b 710 42 625 247 675 165 b 817 65 735 -42 863 -69 b 707 326 783 153 740 239 b 746 328 719 326 733 328 b 756 438 853 338 853 438 b 669 432 722 436 697 433 b 474 910 621 519 535 743 m 421 758 b 551 433 465 622 514 510 b 310 429 517 435 331 429 b 421 758 340 500 382 651 "},"À":{"ha":879,"x_min":0,"x_max":0,"o":"m 396 1163 b 472 1064 414 1136 454 1090 b 414 1021 503 1019 443 989 b 324 1117 390 1049 347 1089 b 396 1163 292 1154 364 1200 m 474 910 b 360 900 456 976 392 981 b 189 417 301 769 246 547 l 131 417 b 150 328 51 418 50 333 b 44 61 108 258 61 124 b 138 10 6 -42 119 -44 b 271 328 174 131 232 226 b 596 328 297 328 536 329 b 710 42 625 247 675 165 b 817 65 735 -42 863 -69 b 707 326 783 153 740 239 b 746 328 719 326 733 328 b 756 438 853 338 853 438 b 669 432 722 436 697 433 b 474 910 621 519 535 743 m 421 758 b 551 433 465 622 514 510 b 310 429 517 435 331 429 b 421 758 340 500 382 651 "},"Ā":{"ha":879,"x_min":0,"x_max":0,"o":"m 503 1117 b 511 1043 558 1119 571 1046 b 307 1043 458 1040 360 1039 b 306 1117 253 1047 246 1119 b 503 1117 357 1114 451 1114 m 474 910 b 360 900 456 976 392 981 b 189 417 301 769 246 547 l 131 417 b 150 328 51 418 50 333 b 44 61 108 258 61 124 b 138 10 6 -42 119 -44 b 271 328 174 131 232 226 b 596 328 297 328 536 329 b 710 42 625 247 675 165 b 817 65 735 -42 863 -69 b 707 326 783 153 740 239 b 746 328 719 326 733 328 b 756 438 853 338 853 438 b 669 432 722 436 697 433 b 474 910 621 519 535 743 m 421 758 b 551 433 465 622 514 510 b 310 429 517 435 331 429 b 421 758 340 500 382 651 "},"Ą":{"ha":926,"x_min":0,"x_max":0,"o":"m 831 -147 b 864 -201 863 -118 890 -169 b 713 -189 831 -243 750 -246 b 739 -6 683 -144 697 -61 b 710 42 726 7 715 22 b 596 328 675 165 625 247 b 271 328 536 329 297 328 b 138 10 232 226 174 131 b 44 61 119 -44 6 -42 b 150 328 61 124 108 258 b 131 417 50 333 51 418 l 189 417 b 360 900 246 547 301 769 b 474 910 392 981 456 976 b 669 432 535 743 621 519 b 756 438 697 433 722 436 b 746 328 853 438 853 338 b 707 326 733 328 719 326 b 817 65 740 239 783 153 b 799 -28 838 6 824 -22 b 778 -142 772 -64 764 -119 b 831 -147 792 -164 810 -167 m 310 429 b 551 433 331 429 517 435 b 421 758 514 510 465 622 b 310 429 382 651 340 500 "},"Å":{"ha":879,"x_min":0,"x_max":0,"o":"m 431 1193 b 469 1190 442 1199 458 1200 b 381 1017 556 1136 488 988 b 324 1128 329 1031 303 1083 b 431 1193 343 1172 389 1193 m 433 1138 b 418 1135 429 1140 422 1138 b 376 1110 403 1135 383 1125 b 399 1074 368 1094 379 1076 b 433 1138 440 1061 463 1117 m 474 910 b 360 900 456 976 392 981 b 189 417 301 769 246 547 l 131 417 b 150 328 51 418 50 333 b 44 61 108 258 61 124 b 138 10 6 -42 119 -44 b 271 328 174 131 232 226 b 596 328 297 328 536 329 b 710 42 625 247 675 165 b 817 65 735 -42 863 -69 b 707 326 783 153 740 239 b 746 328 719 326 733 328 b 756 438 853 338 853 438 b 669 432 722 436 697 433 b 474 910 621 519 535 743 m 421 758 b 551 433 465 622 514 510 b 310 429 517 435 331 429 b 421 758 340 500 382 651 "},"Ã":{"ha":879,"x_min":0,"x_max":0,"o":"m 357 1131 b 451 1085 382 1125 431 1090 b 506 1108 493 1074 500 1100 b 557 1075 518 1126 567 1115 b 479 1015 551 1054 517 1015 b 371 1054 436 1015 394 1043 b 319 1043 353 1063 329 1064 b 257 1078 306 1014 247 1028 b 357 1131 265 1121 314 1139 m 474 910 b 360 900 456 976 392 981 b 189 417 301 769 246 547 l 131 417 b 150 328 51 418 50 333 b 44 61 108 258 61 124 b 138 10 6 -42 119 -44 b 271 328 174 131 232 226 b 596 328 297 328 536 329 b 710 42 625 247 675 165 b 817 65 735 -42 863 -69 b 707 326 783 153 740 239 b 746 328 719 326 733 328 b 756 438 853 338 853 438 b 669 432 722 436 697 433 b 474 910 621 519 535 743 m 421 758 b 551 433 465 622 514 510 b 310 429 517 435 331 429 b 421 758 340 500 382 651 "},"Æ":{"ha":1268,"x_min":0,"x_max":0,"o":"m 578 968 b 1110 964 642 976 964 971 b 1108 867 1188 967 1183 872 b 629 871 1099 867 688 875 l 638 554 b 1100 574 760 546 983 542 b 1133 476 1179 596 1217 519 b 639 460 956 443 889 460 b 653 103 640 392 644 181 b 1154 124 790 96 1110 124 b 1133 21 1254 115 1232 21 b 624 0 1122 22 750 0 b 554 64 576 0 556 21 b 536 351 551 131 546 197 b 301 350 482 354 357 350 b 125 26 240 247 175 124 b 43 88 76 -24 15 28 b 178 353 76 158 126 264 b 181 453 89 371 101 453 l 236 453 b 490 928 339 610 385 768 b 578 968 515 960 536 967 m 529 814 b 353 443 475 711 388 500 b 535 446 417 443 493 451 b 529 814 535 508 535 597 "},"B":{"ha":935,"x_min":0,"x_max":0,"o":"m 51 944 b 715 768 244 961 715 1004 b 507 636 715 707 619 650 b 694 583 564 628 643 611 b 872 349 790 531 872 471 b 582 -10 872 126 736 35 b 217 10 503 -31 329 -33 b 108 31 183 -56 90 -50 b 78 50 96 38 86 43 b 103 146 1 107 26 175 b 131 133 113 143 121 139 b 154 571 146 265 154 439 b 104 676 4 560 33 676 l 153 676 b 142 839 150 735 147 778 l 108 839 b 51 944 22 839 13 942 m 247 849 b 261 679 253 793 258 732 b 606 767 418 678 606 708 b 247 849 606 863 325 854 m 260 571 b 238 110 260 419 242 110 b 551 94 353 82 444 71 b 765 343 699 128 765 221 b 625 519 765 421 693 483 b 304 571 539 556 372 574 "},"C":{"ha":842,"x_min":0,"x_max":0,"o":"m 461 968 b 754 636 771 968 769 813 b 643 643 754 539 619 561 b 451 864 664 771 651 864 b 175 557 310 864 188 749 b 300 131 168 471 172 211 b 569 113 389 78 494 63 b 679 281 629 154 643 186 b 792 263 689 313 792 296 b 631 19 746 136 707 72 b 365 -18 554 -31 429 -37 b 74 301 257 10 107 107 b 60 554 50 474 60 447 b 461 968 72 831 243 968 "},"Ć":{"ha":842,"x_min":0,"x_max":0,"o":"m 496 1175 b 567 1129 528 1213 599 1167 b 465 1033 543 1101 489 1061 b 407 1076 436 1001 376 1032 b 496 1175 425 1103 478 1149 m 461 968 b 754 636 771 968 769 813 b 643 643 754 539 619 561 b 451 864 664 771 651 864 b 175 557 310 864 188 749 b 300 131 168 471 172 211 b 569 113 389 78 494 63 b 679 281 629 154 643 186 b 792 263 689 313 792 296 b 631 19 746 136 707 72 b 365 -18 554 -31 429 -37 b 74 301 257 10 107 107 b 60 554 50 474 60 447 b 461 968 72 831 243 968 "},"Č":{"ha":842,"x_min":0,"x_max":0,"o":"m 553 1183 b 594 1122 583 1213 633 1158 b 464 1040 567 1096 525 1078 b 311 1131 443 1021 335 1103 b 364 1182 290 1156 329 1210 b 449 1111 393 1160 414 1136 b 553 1183 474 1132 531 1163 m 461 968 b 754 636 771 968 769 813 b 643 643 754 539 619 561 b 451 864 664 771 651 864 b 175 557 310 864 188 749 b 300 131 168 471 172 211 b 569 113 389 78 494 63 b 679 281 629 154 643 186 b 792 263 689 313 792 296 b 631 19 746 136 707 72 b 365 -18 554 -31 429 -37 b 74 301 257 10 107 107 b 60 554 50 474 60 447 b 461 968 72 831 243 968 "},"Ç":{"ha":842,"x_min":0,"x_max":0,"o":"m 679 281 b 792 263 689 313 792 296 b 631 19 746 136 707 72 b 465 -28 585 -11 522 -25 b 456 -61 463 -40 458 -53 b 536 -132 508 -58 532 -96 b 499 -219 540 -162 525 -200 b 353 -190 454 -253 368 -236 b 400 -162 343 -160 379 -135 b 454 -172 415 -182 436 -186 b 424 -111 479 -153 476 -108 b 392 -79 393 -118 385 -111 l 404 -26 l 365 -18 b 74 301 257 10 107 107 b 60 554 50 474 60 447 b 461 968 72 831 243 968 b 754 636 771 968 769 813 b 643 643 754 539 619 561 b 451 864 664 771 651 864 b 175 557 310 864 188 749 b 300 131 168 471 172 211 b 569 113 389 78 494 63 b 679 281 629 154 643 186 "},"Ċ":{"ha":842,"x_min":0,"x_max":0,"o":"m 449 1150 b 453 1051 550 1147 554 1051 b 397 1093 429 1051 400 1072 b 449 1150 390 1128 415 1150 m 461 968 b 754 636 771 968 769 813 b 643 643 754 539 619 561 b 451 864 664 771 651 864 b 175 557 310 864 188 749 b 300 131 168 471 172 211 b 569 113 389 78 494 63 b 679 281 629 154 643 186 b 792 263 689 313 792 296 b 631 19 746 136 707 72 b 365 -18 554 -31 429 -37 b 74 301 257 10 107 107 b 60 554 50 474 60 447 b 461 968 72 831 243 968 "},"D":{"ha":1058,"x_min":0,"x_max":0,"o":"m 490 963 b 990 533 807 935 986 835 b 214 -21 997 47 453 -50 b 146 54 168 -21 147 22 b 140 818 158 311 167 579 b 111 807 133 815 118 808 b 68 908 39 772 10 875 b 490 963 207 954 363 963 m 486 851 b 247 842 440 854 322 853 b 258 85 276 601 272 325 b 564 121 339 75 453 86 b 876 526 757 182 876 344 b 486 851 876 758 729 840 "},"Ð":{"ha":1031,"x_min":0,"x_max":0,"o":"m 963 533 b 186 -21 969 47 425 -50 b 118 54 140 -21 119 22 b 129 374 124 160 128 268 b 57 374 100 374 75 375 b 51 479 10 376 10 478 b 129 481 72 481 100 481 b 113 818 129 597 125 710 b 83 807 106 815 90 808 b 40 908 11 772 -18 875 b 463 963 179 954 335 963 b 963 533 779 935 958 835 m 536 121 b 849 526 729 182 849 344 b 458 851 849 758 701 840 b 219 842 413 854 294 853 b 242 479 233 726 240 603 b 369 482 292 478 339 478 b 378 376 429 488 474 386 b 240 372 344 372 294 372 b 231 85 240 274 236 176 b 536 121 311 75 425 86 "},"Ď":{"ha":1058,"x_min":0,"x_max":0,"o":"m 551 1186 b 593 1125 582 1215 632 1161 b 463 1043 565 1099 524 1081 b 310 1133 442 1024 333 1106 b 363 1185 289 1158 328 1213 b 447 1114 392 1163 413 1139 b 551 1186 472 1135 529 1165 m 490 963 b 990 533 807 935 986 835 b 214 -21 997 47 453 -50 b 146 54 168 -21 147 22 b 140 818 158 311 167 579 b 111 807 133 815 118 808 b 68 908 39 772 10 875 b 490 963 207 954 363 963 m 486 851 b 247 842 440 854 322 853 b 258 85 276 601 272 325 b 564 121 339 75 453 86 b 876 526 757 182 876 344 b 486 851 876 758 729 840 "},"Đ":{"ha":1031,"x_min":0,"x_max":0,"o":"m 963 533 b 186 -21 969 47 425 -50 b 118 54 140 -21 119 22 b 129 374 124 160 128 268 b 57 374 100 374 75 375 b 51 479 10 376 10 478 b 129 481 72 481 100 481 b 113 818 129 597 125 710 b 83 807 106 815 90 808 b 40 908 11 772 -18 875 b 463 963 179 954 335 963 b 963 533 779 935 958 835 m 536 121 b 849 526 729 182 849 344 b 458 851 849 758 701 840 b 219 842 413 854 294 853 b 242 479 233 726 240 603 b 369 482 292 478 339 478 b 378 376 429 488 474 386 b 240 372 344 372 294 372 b 231 85 240 274 236 176 b 536 121 311 75 425 86 "},"E":{"ha":850,"x_min":0,"x_max":0,"o":"m 692 950 b 692 846 768 953 767 851 b 211 850 621 846 269 854 b 221 550 213 821 219 626 b 682 560 343 542 565 546 b 717 463 763 565 799 506 b 222 446 543 431 324 446 b 233 75 222 428 229 107 b 738 96 379 68 693 96 b 717 -8 836 88 814 -8 b 553 -14 638 -8 592 -11 b 178 -29 471 -19 425 -29 b 133 10 171 -29 135 -11 b 118 203 117 76 118 124 b 113 428 119 258 113 413 b 103 844 108 582 103 824 l 79 840 b 67 943 3 838 7 926 b 128 950 89 946 110 949 b 692 950 188 958 571 956 "},"É":{"ha":850,"x_min":0,"x_max":0,"o":"m 456 1176 b 526 1131 488 1214 558 1168 b 425 1035 503 1103 449 1063 b 367 1078 396 1003 336 1033 b 456 1176 385 1104 438 1150 m 692 950 b 692 846 768 953 767 851 b 211 850 621 846 269 854 b 221 550 213 821 219 626 b 682 560 343 542 565 546 b 717 463 763 565 799 506 b 222 446 543 431 324 446 b 233 75 222 428 229 107 b 738 96 379 68 693 96 b 717 -8 836 88 814 -8 b 553 -14 638 -8 592 -11 b 178 -29 471 -19 425 -29 b 133 10 171 -29 135 -11 b 118 203 117 76 118 124 b 113 428 119 258 113 413 b 103 844 108 582 103 824 l 79 840 b 67 943 3 838 7 926 b 128 950 89 946 110 949 b 692 950 188 958 571 956 "},"Ě":{"ha":850,"x_min":0,"x_max":0,"o":"m 513 1185 b 554 1124 543 1214 593 1160 b 424 1042 526 1097 485 1079 b 271 1132 403 1022 294 1104 b 324 1183 250 1157 289 1211 b 408 1113 353 1161 374 1138 b 513 1185 433 1133 490 1164 m 692 950 b 692 846 768 953 767 851 b 211 850 621 846 269 854 b 221 550 213 821 219 626 b 682 560 343 542 565 546 b 717 463 763 565 799 506 b 222 446 543 431 324 446 b 233 75 222 428 229 107 b 738 96 379 68 693 96 b 717 -8 836 88 814 -8 b 553 -14 638 -8 592 -11 b 178 -29 471 -19 425 -29 b 133 10 171 -29 135 -11 b 118 203 117 76 118 124 b 113 428 119 258 113 413 b 103 844 108 582 103 824 l 79 840 b 67 943 3 838 7 926 b 128 950 89 946 110 949 b 692 950 188 958 571 956 "},"Ê":{"ha":850,"x_min":0,"x_max":0,"o":"m 431 1183 b 561 1096 485 1151 531 1118 b 524 1028 600 1067 557 1000 b 415 1113 475 1068 440 1092 b 294 1039 381 1088 324 1061 b 246 1086 260 1011 211 1047 b 431 1183 269 1113 410 1203 m 692 950 b 692 846 768 953 767 851 b 211 850 621 846 269 854 b 221 550 213 821 219 626 b 682 560 343 542 565 546 b 717 463 763 565 799 506 b 222 446 543 431 324 446 b 233 75 222 428 229 107 b 738 96 379 68 693 96 b 717 -8 836 88 814 -8 b 553 -14 638 -8 592 -11 b 178 -29 471 -19 425 -29 b 133 10 171 -29 135 -11 b 118 203 117 76 118 124 b 113 428 119 258 113 413 b 103 844 108 582 103 824 l 79 840 b 67 943 3 838 7 926 b 128 950 89 946 110 949 b 692 950 188 958 571 956 "},"Ë":{"ha":850,"x_min":0,"x_max":0,"o":"m 488 1119 b 561 1093 529 1124 553 1111 b 489 1031 574 1068 549 1031 b 488 1119 438 1031 439 1114 m 347 1121 b 349 1028 404 1121 406 1028 b 279 1075 322 1028 279 1038 b 347 1121 278 1107 297 1121 m 692 950 b 692 846 768 953 767 851 b 211 850 621 846 269 854 b 221 550 213 821 219 626 b 682 560 343 542 565 546 b 717 463 763 565 799 506 b 222 446 543 431 324 446 b 233 75 222 428 229 107 b 738 96 379 68 693 96 b 717 -8 836 88 814 -8 b 553 -14 638 -8 592 -11 b 178 -29 471 -19 425 -29 b 133 10 171 -29 135 -11 b 118 203 117 76 118 124 b 113 428 119 258 113 413 b 103 844 108 582 103 824 l 79 840 b 67 943 3 838 7 926 b 128 950 89 946 110 949 b 692 950 188 958 571 956 "},"Ė":{"ha":850,"x_min":0,"x_max":0,"o":"m 408 1151 b 413 1053 510 1149 514 1053 b 357 1094 389 1053 360 1074 b 408 1151 350 1129 375 1151 m 692 950 b 692 846 768 953 767 851 b 211 850 621 846 269 854 b 221 550 213 821 219 626 b 682 560 343 542 565 546 b 717 463 763 565 799 506 b 222 446 543 431 324 446 b 233 75 222 428 229 107 b 738 96 379 68 693 96 b 717 -8 836 88 814 -8 b 553 -14 638 -8 592 -11 b 178 -29 471 -19 425 -29 b 133 10 171 -29 135 -11 b 118 203 117 76 118 124 b 113 428 119 258 113 413 b 103 844 108 582 103 824 l 79 840 b 67 943 3 838 7 926 b 128 950 89 946 110 949 b 692 950 188 958 571 956 "},"È":{"ha":850,"x_min":0,"x_max":0,"o":"m 403 1176 b 479 1078 421 1150 461 1104 b 421 1035 510 1033 450 1003 b 331 1131 397 1063 354 1103 b 403 1176 299 1168 371 1214 m 692 950 b 692 846 768 953 767 851 b 211 850 621 846 269 854 b 221 550 213 821 219 626 b 682 560 343 542 565 546 b 717 463 763 565 799 506 b 222 446 543 431 324 446 b 233 75 222 428 229 107 b 738 96 379 68 693 96 b 717 -8 836 88 814 -8 b 553 -14 638 -8 592 -11 b 178 -29 471 -19 425 -29 b 133 10 171 -29 135 -11 b 118 203 117 76 118 124 b 113 428 119 258 113 413 b 103 844 108 582 103 824 l 79 840 b 67 943 3 838 7 926 b 128 950 89 946 110 949 b 692 950 188 958 571 956 "},"Ē":{"ha":850,"x_min":0,"x_max":0,"o":"m 510 1131 b 518 1057 565 1133 578 1060 b 314 1057 465 1054 367 1053 b 313 1131 260 1061 253 1133 b 510 1131 364 1128 458 1128 m 692 950 b 692 846 768 953 767 851 b 211 850 621 846 269 854 b 221 550 213 821 219 626 b 682 560 343 542 565 546 b 717 463 763 565 799 506 b 222 446 543 431 324 446 b 233 75 222 428 229 107 b 738 96 379 68 693 96 b 717 -8 836 88 814 -8 b 553 -14 638 -8 592 -11 b 178 -29 471 -19 425 -29 b 133 10 171 -29 135 -11 b 118 203 117 76 118 124 b 113 428 119 258 113 413 b 103 844 108 582 103 824 l 79 840 b 67 943 3 838 7 926 b 128 950 89 946 110 949 b 692 950 188 958 571 956 "},"Ę":{"ha":900,"x_min":0,"x_max":0,"o":"m 807 -146 b 840 -200 839 -117 867 -168 b 689 -187 807 -242 726 -244 b 713 -8 660 -144 672 -64 b 553 -14 636 -8 590 -11 b 178 -29 471 -19 425 -29 b 133 10 171 -29 135 -11 b 118 203 117 76 118 124 b 113 428 119 258 113 413 b 103 844 108 582 103 824 l 79 840 b 67 943 3 838 7 926 b 128 950 89 946 110 949 b 692 950 188 958 571 956 b 692 846 768 953 767 851 b 211 850 621 846 269 854 b 221 550 213 821 219 626 b 682 560 343 542 565 546 b 717 463 763 565 799 506 b 222 446 543 431 324 446 b 233 75 222 428 229 107 b 738 96 379 68 693 96 b 781 -19 815 89 811 17 b 754 -140 750 -56 739 -117 b 807 -146 768 -162 786 -165 "},"F":{"ha":836,"x_min":0,"x_max":0,"o":"m 86 936 b 717 931 365 951 610 968 b 746 807 788 903 799 826 b 672 854 711 794 672 828 b 233 851 624 867 281 851 b 261 492 238 851 264 504 b 679 489 358 492 578 464 b 721 396 719 506 764 413 b 261 383 563 358 424 383 l 260 24 b 151 32 260 -42 151 -36 b 146 504 151 71 147 432 b 138 836 146 581 133 764 l 94 835 b 86 936 21 844 17 904 "},"G":{"ha":925,"x_min":0,"x_max":0,"o":"m 428 951 b 825 718 610 961 817 901 b 719 710 825 667 728 633 b 429 842 710 849 497 847 b 233 739 346 838 286 790 b 169 389 154 658 149 513 b 235 183 183 308 210 224 b 628 119 324 68 519 65 b 733 282 683 144 733 194 b 736 426 733 303 736 388 b 506 426 672 425 529 426 b 492 524 468 426 461 524 b 771 522 528 524 722 518 b 839 456 793 522 833 511 b 674 24 839 267 876 115 b 132 136 496 -47 249 -42 b 58 378 101 188 74 271 b 160 818 36 535 47 718 b 428 951 246 892 325 946 "},"Ğ":{"ha":925,"x_min":0,"x_max":0,"o":"m 518 1147 b 565 1103 551 1182 589 1139 b 431 1029 538 1061 492 1029 b 296 1103 369 1029 324 1061 b 343 1147 272 1139 310 1182 b 431 1101 369 1121 385 1101 b 518 1147 476 1101 492 1121 m 428 951 b 825 718 610 961 817 901 b 719 710 825 667 728 633 b 429 842 710 849 497 847 b 233 739 346 838 286 790 b 169 389 154 658 149 513 b 235 183 183 308 210 224 b 628 119 324 68 519 65 b 733 282 683 144 733 194 b 736 426 733 303 736 388 b 506 426 672 425 529 426 b 492 524 468 426 461 524 b 771 522 528 524 722 518 b 839 456 793 522 833 511 b 674 24 839 267 876 115 b 132 136 496 -47 249 -42 b 58 378 101 188 74 271 b 160 818 36 535 47 718 b 428 951 246 892 325 946 "},"Ģ":{"ha":925,"x_min":0,"x_max":0,"o":"m 428 951 b 825 718 610 961 817 901 b 719 710 825 667 728 633 b 429 842 710 849 497 847 b 233 739 346 838 286 790 b 169 389 154 658 149 513 b 235 183 183 308 210 224 b 628 119 324 68 519 65 b 733 282 683 144 733 194 b 736 426 733 303 736 388 b 506 426 672 425 529 426 b 492 524 468 426 461 524 b 771 522 528 524 722 518 b 839 456 793 522 833 511 b 674 24 839 267 876 115 b 132 136 496 -47 249 -42 b 58 378 101 188 74 271 b 160 818 36 535 47 718 b 428 951 246 892 325 946 m 524 -128 b 496 -254 514 -185 508 -208 b 426 -229 478 -321 413 -312 b 442 -126 433 -185 439 -157 b 524 -128 447 -61 535 -65 "},"Ġ":{"ha":925,"x_min":0,"x_max":0,"o":"m 431 1138 b 435 1039 532 1135 536 1039 b 379 1081 411 1039 382 1060 b 431 1138 372 1115 397 1138 m 428 951 b 825 718 610 961 817 901 b 719 710 825 667 728 633 b 429 842 710 849 497 847 b 233 739 346 838 286 790 b 169 389 154 658 149 513 b 235 183 183 308 210 224 b 628 119 324 68 519 65 b 733 282 683 144 733 194 b 736 426 733 303 736 388 b 506 426 672 425 529 426 b 492 524 468 426 461 524 b 771 522 528 524 722 518 b 839 456 793 522 833 511 b 674 24 839 267 876 115 b 132 136 496 -47 249 -42 b 58 378 101 188 74 271 b 160 818 36 535 47 718 b 428 951 246 892 325 946 "},"H":{"ha":1018,"x_min":0,"x_max":0,"o":"m 885 938 b 935 35 885 613 924 179 b 828 26 935 -39 828 -50 b 807 308 825 121 818 215 b 276 306 708 308 406 297 b 282 224 279 278 281 253 l 281 -4 b 172 -14 281 -49 172 -71 b 165 310 172 28 181 211 b 64 308 150 310 83 307 b 81 415 19 311 46 418 b 154 415 97 414 110 415 b 144 913 147 461 146 821 b 253 922 144 961 251 974 b 265 414 257 789 254 479 b 799 414 443 403 526 408 b 778 931 781 619 778 800 b 885 938 778 969 885 982 "},"Ħ":{"ha":1093,"x_min":0,"x_max":0,"o":"m 922 922 b 924 764 921 869 922 817 b 1003 765 951 765 975 767 b 1000 674 1051 767 1040 675 b 926 671 975 674 951 674 b 972 49 932 522 947 372 b 867 40 983 -28 867 -37 b 846 307 863 133 856 215 b 311 306 739 308 432 297 b 318 22 319 151 318 75 b 211 11 318 -39 204 -62 b 215 283 218 69 218 176 b 185 676 201 461 185 660 b 121 679 164 678 142 679 b 133 772 75 683 99 776 b 185 769 157 772 160 771 b 182 899 185 813 183 854 b 292 908 186 954 289 974 b 293 767 292 849 293 821 b 817 763 535 767 649 765 l 817 917 b 922 922 818 979 922 988 m 293 671 b 303 414 294 579 297 468 b 836 413 468 404 547 408 b 819 668 828 504 824 575 b 293 671 644 669 468 671 "},"I":{"ha":688,"x_min":0,"x_max":0,"o":"m 79 940 b 465 954 190 940 294 954 b 607 869 565 954 606 931 b 506 860 607 838 553 822 b 365 854 479 860 411 856 b 372 442 365 796 364 558 b 382 79 381 324 382 243 b 586 79 442 76 528 72 b 572 -21 625 88 622 -18 b 96 -21 392 -31 297 -7 b 100 81 56 -24 21 69 b 272 83 147 85 251 85 b 258 853 272 415 269 439 b 78 843 221 853 144 843 b 79 940 31 843 24 942 "},"Ĳ":{"ha":1396,"x_min":0,"x_max":0,"o":"m 1272 961 b 1321 876 1332 956 1343 908 b 1335 458 1321 815 1336 515 b 1264 125 1332 271 1304 183 b 960 -24 1192 25 1126 -18 b 739 81 874 -11 793 18 b 689 331 681 146 689 289 b 796 329 688 368 794 367 b 826 143 800 283 797 189 b 968 76 846 114 889 81 b 1167 165 1024 72 1114 96 b 1224 650 1254 278 1224 549 b 1214 853 1222 668 1215 782 b 853 847 1132 861 938 839 b 856 953 776 856 781 958 b 1272 961 1024 938 1154 969 m 79 940 b 465 954 190 940 294 954 b 607 869 565 954 606 931 b 506 860 607 838 553 822 b 365 854 479 860 411 856 b 372 442 365 796 364 558 b 382 79 381 324 382 243 b 586 79 442 76 528 72 b 572 -21 625 88 622 -18 b 96 -21 392 -31 297 -7 b 100 81 56 -24 21 69 b 272 83 147 85 251 85 b 258 853 272 415 269 439 b 78 843 221 853 144 843 b 79 940 31 843 24 942 "},"Í":{"ha":688,"x_min":0,"x_max":0,"o":"m 339 1164 b 410 1118 371 1201 442 1156 b 308 1022 386 1090 332 1050 b 250 1065 279 990 219 1021 b 339 1164 268 1092 321 1138 m 79 940 b 465 954 190 940 294 954 b 607 869 565 954 606 931 b 506 860 607 838 553 822 b 365 854 479 860 411 856 b 372 442 365 796 364 558 b 382 79 381 324 382 243 b 586 79 442 76 528 72 b 572 -21 625 88 622 -18 b 96 -21 392 -31 297 -7 b 100 81 56 -24 21 69 b 272 83 147 85 251 85 b 258 853 272 415 269 439 b 78 843 221 853 144 843 b 79 940 31 843 24 942 "},"Î":{"ha":688,"x_min":0,"x_max":0,"o":"m 314 1171 b 444 1083 368 1139 414 1106 b 407 1015 483 1054 440 988 b 299 1100 358 1056 324 1079 b 178 1026 264 1075 207 1049 b 129 1074 143 999 94 1035 b 314 1171 153 1100 293 1190 m 79 940 b 465 954 190 940 294 954 b 607 869 565 954 606 931 b 506 860 607 838 553 822 b 365 854 479 860 411 856 b 372 442 365 796 364 558 b 382 79 381 324 382 243 b 586 79 442 76 528 72 b 572 -21 625 88 622 -18 b 96 -21 392 -31 297 -7 b 100 81 56 -24 21 69 b 272 83 147 85 251 85 b 258 853 272 415 269 439 b 78 843 221 853 144 843 b 79 940 31 843 24 942 "},"Ï":{"ha":688,"x_min":0,"x_max":0,"o":"m 371 1107 b 444 1081 413 1111 436 1099 b 372 1018 457 1056 432 1018 b 371 1107 321 1018 322 1101 m 231 1108 b 232 1015 288 1108 289 1015 b 163 1063 206 1015 163 1025 b 231 1108 161 1094 181 1108 m 79 940 b 465 954 190 940 294 954 b 607 869 565 954 606 931 b 506 860 607 838 553 822 b 365 854 479 860 411 856 b 372 442 365 796 364 558 b 382 79 381 324 382 243 b 586 79 442 76 528 72 b 572 -21 625 88 622 -18 b 96 -21 392 -31 297 -7 b 100 81 56 -24 21 69 b 272 83 147 85 251 85 b 258 853 272 415 269 439 b 78 843 221 853 144 843 b 79 940 31 843 24 942 "},"İ":{"ha":688,"x_min":0,"x_max":0,"o":"m 292 1139 b 296 1040 393 1136 397 1040 b 240 1082 272 1040 243 1061 b 292 1139 233 1117 258 1139 m 79 940 b 465 954 190 940 294 954 b 607 869 565 954 606 931 b 506 860 607 838 553 822 b 365 854 479 860 411 856 b 372 442 365 796 364 558 b 382 79 381 324 382 243 b 586 79 442 76 528 72 b 572 -21 625 88 622 -18 b 96 -21 392 -31 297 -7 b 100 81 56 -24 21 69 b 272 83 147 85 251 85 b 258 853 272 415 269 439 b 78 843 221 853 144 843 b 79 940 31 843 24 942 "},"Ì":{"ha":688,"x_min":0,"x_max":0,"o":"m 286 1164 b 363 1065 304 1138 344 1092 b 304 1022 393 1021 333 990 b 214 1118 281 1050 238 1090 b 286 1164 182 1156 254 1201 m 79 940 b 465 954 190 940 294 954 b 607 869 565 954 606 931 b 506 860 607 838 553 822 b 365 854 479 860 411 856 b 372 442 365 796 364 558 b 382 79 381 324 382 243 b 586 79 442 76 528 72 b 572 -21 625 88 622 -18 b 96 -21 392 -31 297 -7 b 100 81 56 -24 21 69 b 272 83 147 85 251 85 b 258 853 272 415 269 439 b 78 843 221 853 144 843 b 79 940 31 843 24 942 "},"Ī":{"ha":688,"x_min":0,"x_max":0,"o":"m 393 1118 b 401 1044 449 1121 461 1047 b 197 1044 349 1042 250 1040 b 196 1118 143 1049 136 1121 b 393 1118 247 1115 342 1115 m 79 940 b 465 954 190 940 294 954 b 607 869 565 954 606 931 b 506 860 607 838 553 822 b 365 854 479 860 411 856 b 372 442 365 796 364 558 b 382 79 381 324 382 243 b 586 79 442 76 528 72 b 572 -21 625 88 622 -18 b 96 -21 392 -31 297 -7 b 100 81 56 -24 21 69 b 272 83 147 85 251 85 b 258 853 272 415 269 439 b 78 843 221 853 144 843 b 79 940 31 843 24 942 "},"Į":{"ha":717,"x_min":0,"x_max":0,"o":"m 599 -147 b 632 -201 631 -118 658 -169 b 481 -189 599 -243 518 -246 b 496 -24 454 -149 463 -78 b 81 -21 353 -25 258 -8 b 85 81 58 -22 50 75 b 257 83 132 85 236 85 b 243 853 257 415 254 439 b 63 843 206 853 129 843 b 64 940 29 843 38 939 b 450 954 175 940 279 954 b 592 869 550 954 590 931 b 490 860 592 838 538 822 b 350 854 464 860 396 856 b 357 442 350 796 349 558 b 367 79 365 324 367 243 b 571 79 426 76 513 72 b 581 -8 603 86 607 19 l 572 -21 b 546 -142 542 -57 531 -118 b 599 -147 560 -164 578 -167 "},"J":{"ha":778,"x_min":0,"x_max":0,"o":"m 654 961 b 703 876 714 956 725 908 b 717 458 703 815 718 515 b 646 125 714 271 686 183 b 342 -24 574 25 508 -18 b 121 81 256 -11 175 18 b 71 331 63 146 71 289 b 178 329 69 368 176 367 b 208 143 182 283 179 189 b 350 76 228 114 271 81 b 549 165 406 72 496 96 b 606 650 636 278 606 549 b 596 853 604 668 597 782 b 235 847 514 861 319 839 b 238 953 158 856 163 958 b 654 961 406 938 536 969 "},"K":{"ha":817,"x_min":0,"x_max":0,"o":"m 156 931 b 186 519 174 819 183 665 b 443 706 261 557 354 626 b 574 915 526 781 574 869 b 681 935 574 949 681 976 b 544 664 681 863 649 761 b 356 514 488 611 415 554 b 767 36 485 415 732 186 b 676 -3 771 -32 693 -49 b 260 460 626 133 424 335 b 186 417 213 439 182 415 b 183 6 186 360 183 68 b 76 -4 183 -29 76 -47 b 49 896 76 157 96 601 b 156 931 39 954 146 990 "},"Ķ":{"ha":817,"x_min":0,"x_max":0,"o":"m 156 931 b 186 519 174 819 183 665 b 443 706 261 557 354 626 b 574 915 526 781 574 869 b 681 935 574 949 681 976 b 544 664 681 863 649 761 b 356 514 488 611 415 554 b 767 36 485 415 732 186 b 676 -3 771 -32 693 -49 b 260 460 626 133 424 335 b 186 417 213 439 182 415 b 183 6 186 360 183 68 b 76 -4 183 -29 76 -47 b 49 896 76 157 96 601 b 156 931 39 954 146 990 m 449 -128 b 421 -254 439 -185 433 -208 b 351 -229 403 -321 338 -312 b 367 -126 358 -185 364 -157 b 449 -128 372 -61 460 -65 "},"L":{"ha":775,"x_min":0,"x_max":0,"o":"m 156 903 b 194 67 156 551 206 293 b 650 61 325 79 599 60 b 647 197 644 61 642 161 b 740 200 654 228 744 233 b 736 3 736 156 747 65 b 669 -29 728 -25 694 -29 b 138 -29 639 -29 275 -11 b 83 44 96 -29 83 17 b 50 901 94 325 47 624 b 156 903 50 979 156 981 "},"Ĺ":{"ha":781,"x_min":0,"x_max":0,"o":"m 147 1171 b 218 1125 179 1208 250 1163 b 117 1029 194 1097 140 1057 b 58 1072 88 997 28 1028 b 147 1171 76 1099 129 1144 m 161 903 b 200 67 161 551 211 293 b 656 61 331 79 604 60 b 653 197 650 61 647 161 b 746 200 660 228 750 233 b 742 3 742 156 753 65 b 675 -29 733 -25 700 -29 b 143 -29 644 -29 281 -11 b 89 44 101 -29 89 17 b 56 901 100 325 53 624 b 161 903 56 979 161 981 "},"Ľ":{"ha":775,"x_min":0,"x_max":0,"o":"m 156 903 b 194 67 156 551 206 293 b 650 61 325 79 599 60 b 647 197 644 61 642 161 b 740 200 654 228 744 233 b 736 3 736 156 747 65 b 669 -29 728 -25 694 -29 b 138 -29 639 -29 275 -11 b 83 44 96 -29 83 17 b 50 901 94 325 47 624 b 156 903 50 979 156 981 m 617 797 b 533 807 604 754 524 758 b 556 922 536 838 553 896 b 650 919 571 975 664 969 "},"Ļ":{"ha":775,"x_min":0,"x_max":0,"o":"m 156 903 b 194 67 156 551 206 293 b 650 61 325 79 599 60 b 647 197 644 61 642 161 b 740 200 654 228 744 233 b 736 3 736 156 747 65 b 669 -29 728 -25 694 -29 b 138 -29 639 -29 275 -11 b 83 44 96 -29 83 17 b 50 901 94 325 47 624 b 156 903 50 979 156 981 m 426 -153 b 399 -279 417 -210 411 -233 b 329 -254 381 -346 315 -337 b 344 -151 336 -210 342 -182 b 426 -153 350 -86 438 -90 "},"Ŀ":{"ha":775,"x_min":0,"x_max":0,"o":"m 156 903 b 194 67 156 551 206 293 b 650 61 325 79 599 60 b 647 197 644 61 642 161 b 740 200 654 228 744 233 b 736 3 736 156 747 65 b 669 -29 728 -25 694 -29 b 138 -29 639 -29 275 -11 b 83 44 96 -29 83 17 b 50 901 94 325 47 624 b 156 903 50 979 156 981 m 450 497 b 506 421 496 497 506 456 b 443 369 506 388 472 369 b 450 497 374 375 381 500 "},"Ł":{"ha":843,"x_min":0,"x_max":0,"o":"m 219 917 b 238 551 218 794 226 679 b 325 597 264 564 299 585 b 360 513 392 619 413 536 l 244 457 b 258 99 256 326 263 178 b 721 89 399 104 654 93 b 715 225 721 89 700 161 b 808 228 725 268 814 269 b 803 43 800 174 817 111 b 738 -1 796 15 763 -1 b 206 -1 707 -1 361 18 b 151 72 164 -1 151 44 b 146 410 156 175 154 272 l 104 388 b 71 465 69 369 21 438 b 138 503 93 476 115 492 b 118 915 126 656 118 771 b 219 917 118 993 219 994 "},"M":{"ha":1224,"x_min":0,"x_max":0,"o":"m 819 933 b 590 190 746 782 657 453 b 365 924 475 442 406 789 b 258 908 344 1000 265 967 b 47 29 174 639 135 296 b 150 13 33 -51 124 -62 b 313 696 199 163 239 360 b 550 13 353 533 438 222 b 651 11 588 -57 638 -26 b 853 726 728 235 767 457 b 999 238 883 596 975 338 b 1079 -11 1021 131 1039 64 b 1179 42 1117 -65 1211 -8 b 1100 271 1144 104 1119 201 b 921 906 1064 413 958 731 b 819 933 915 972 846 981 "},"N":{"ha":881,"x_min":0,"x_max":0,"o":"m 796 938 b 814 51 796 700 831 310 b 711 47 810 -17 746 -33 b 164 747 586 225 468 390 b 172 29 188 443 194 281 b 58 42 158 -50 44 -40 b 57 825 83 276 72 538 b 54 917 54 853 50 888 b 154 925 60 985 126 1000 b 410 621 218 838 338 701 b 714 218 476 546 625 344 b 686 931 710 365 686 699 b 796 938 686 979 796 982 "},"Ń":{"ha":881,"x_min":0,"x_max":0,"o":"m 456 1176 b 526 1131 488 1214 558 1168 b 425 1035 503 1103 449 1063 b 367 1078 396 1003 336 1033 b 456 1176 385 1104 438 1150 m 796 938 b 814 51 796 700 831 310 b 711 47 810 -17 746 -33 b 164 747 586 225 468 390 b 172 29 188 443 194 281 b 58 42 158 -50 44 -40 b 57 825 83 276 72 538 b 54 917 54 853 50 888 b 154 925 60 985 126 1000 b 410 621 218 838 338 701 b 714 218 476 546 625 344 b 686 931 710 365 686 699 b 796 938 686 979 796 982 "},"Ň":{"ha":881,"x_min":0,"x_max":0,"o":"m 513 1185 b 554 1124 543 1214 593 1160 b 424 1042 526 1097 485 1079 b 271 1132 403 1022 294 1104 b 324 1183 250 1157 289 1211 b 408 1113 353 1161 374 1138 b 513 1185 433 1133 490 1164 m 796 938 b 814 51 796 700 831 310 b 711 47 810 -17 746 -33 b 164 747 586 225 468 390 b 172 29 188 443 194 281 b 58 42 158 -50 44 -40 b 57 825 83 276 72 538 b 54 917 54 853 50 888 b 154 925 60 985 126 1000 b 410 621 218 838 338 701 b 714 218 476 546 625 344 b 686 931 710 365 686 699 b 796 938 686 979 796 982 "},"Ņ":{"ha":881,"x_min":0,"x_max":0,"o":"m 796 938 b 814 51 796 700 831 310 b 711 47 810 -17 746 -33 b 164 747 586 225 468 390 b 172 29 188 443 194 281 b 58 42 158 -50 44 -40 b 57 825 83 276 72 538 b 54 917 54 853 50 888 b 154 925 60 985 126 1000 b 410 621 218 838 338 701 b 714 218 476 546 625 344 b 686 931 710 365 686 699 b 796 938 686 979 796 982 m 481 -128 b 453 -254 471 -185 465 -208 b 383 -229 435 -321 369 -312 b 399 -126 390 -185 396 -157 b 481 -128 404 -61 492 -65 "},"Ŋ":{"ha":883,"x_min":0,"x_max":0,"o":"m 796 951 b 818 -57 796 578 833 182 b 494 -501 800 -304 751 -501 b 247 -147 289 -501 256 -346 b 361 -149 246 -110 360 -110 b 499 -390 369 -231 333 -375 b 718 36 694 -408 710 -136 b 350 506 535 289 446 390 b 165 740 297 571 240 639 b 172 57 188 449 193 294 b 58 68 157 -25 46 -10 b 57 825 83 303 72 538 b 53 917 53 853 50 888 b 156 926 58 978 121 983 b 410 621 197 853 278 765 b 713 219 474 550 621 349 b 685 944 708 388 685 758 b 796 951 685 1013 796 1014 "},"Ñ":{"ha":881,"x_min":0,"x_max":0,"o":"m 364 1144 b 458 1099 389 1139 438 1104 b 513 1122 500 1088 507 1114 b 564 1089 525 1140 574 1129 b 486 1029 558 1068 524 1029 b 378 1068 443 1029 401 1057 b 326 1057 360 1076 336 1078 b 264 1092 313 1028 254 1042 b 364 1144 272 1135 321 1153 m 796 938 b 814 51 796 700 831 310 b 711 47 810 -17 746 -33 b 164 747 586 225 468 390 b 172 29 188 443 194 281 b 58 42 158 -50 44 -40 b 57 825 83 276 72 538 b 54 917 54 853 50 888 b 154 925 60 985 126 1000 b 410 621 218 838 338 701 b 714 218 476 546 625 344 b 686 931 710 365 686 699 b 796 938 686 979 796 982 "},"O":{"ha":910,"x_min":0,"x_max":0,"o":"m 489 965 b 806 646 642 917 761 790 b 844 422 828 574 843 499 b 803 190 844 299 842 271 b 440 -19 743 68 613 -12 b 149 139 304 -25 213 60 b 49 411 100 203 56 271 b 122 775 38 556 24 633 b 375 935 185 858 294 908 b 489 965 397 983 439 981 m 465 857 b 215 722 397 846 271 785 b 158 454 138 629 158 528 b 243 196 158 313 204 246 b 439 85 293 135 358 85 b 717 278 554 85 692 169 b 725 488 736 353 739 419 b 465 857 690 678 626 818 "},"Ó":{"ha":910,"x_min":0,"x_max":0,"o":"m 482 1176 b 553 1131 514 1214 585 1168 b 451 1035 529 1103 475 1063 b 393 1078 422 1003 363 1033 b 482 1176 411 1104 464 1150 m 489 965 b 806 646 642 917 761 790 b 844 422 828 574 843 499 b 803 190 844 299 842 271 b 440 -19 743 68 613 -12 b 149 139 304 -25 213 60 b 49 411 100 203 56 271 b 122 775 38 556 24 633 b 375 935 185 858 294 908 b 489 965 397 983 439 981 m 465 857 b 215 722 397 846 271 785 b 158 454 138 629 158 528 b 243 196 158 313 204 246 b 439 85 293 135 358 85 b 717 278 554 85 692 169 b 725 488 736 353 739 419 b 465 857 690 678 626 818 "},"Ô":{"ha":910,"x_min":0,"x_max":0,"o":"m 457 1183 b 588 1096 511 1151 557 1118 b 550 1028 626 1067 583 1000 b 442 1113 501 1068 467 1092 b 321 1039 407 1088 350 1061 b 272 1086 286 1011 238 1047 b 457 1183 296 1113 436 1203 m 489 965 b 806 646 642 917 761 790 b 844 422 828 574 843 499 b 803 190 844 299 842 271 b 440 -19 743 68 613 -12 b 149 139 304 -25 213 60 b 49 411 100 203 56 271 b 122 775 38 556 24 633 b 375 935 185 858 294 908 b 489 965 397 983 439 981 m 465 857 b 215 722 397 846 271 785 b 158 454 138 629 158 528 b 243 196 158 313 204 246 b 439 85 293 135 358 85 b 717 278 554 85 692 169 b 725 488 736 353 739 419 b 465 857 690 678 626 818 "},"Ö":{"ha":910,"x_min":0,"x_max":0,"o":"m 514 1119 b 588 1093 556 1124 579 1111 b 515 1031 600 1068 575 1031 b 514 1119 464 1031 465 1114 m 374 1121 b 375 1028 431 1121 432 1028 b 306 1075 349 1028 306 1038 b 374 1121 304 1107 324 1121 m 489 965 b 806 646 642 917 761 790 b 844 422 828 574 843 499 b 803 190 844 299 842 271 b 440 -19 743 68 613 -12 b 149 139 304 -25 213 60 b 49 411 100 203 56 271 b 122 775 38 556 24 633 b 375 935 185 858 294 908 b 489 965 397 983 439 981 m 465 857 b 215 722 397 846 271 785 b 158 454 138 629 158 528 b 243 196 158 313 204 246 b 439 85 293 135 358 85 b 717 278 554 85 692 169 b 725 488 736 353 739 419 b 465 857 690 678 626 818 "},"Ò":{"ha":910,"x_min":0,"x_max":0,"o":"m 429 1176 b 506 1078 447 1150 488 1104 b 447 1035 536 1033 476 1003 b 357 1131 424 1063 381 1103 b 429 1176 325 1168 397 1214 m 489 965 b 806 646 642 917 761 790 b 844 422 828 574 843 499 b 803 190 844 299 842 271 b 440 -19 743 68 613 -12 b 149 139 304 -25 213 60 b 49 411 100 203 56 271 b 122 775 38 556 24 633 b 375 935 185 858 294 908 b 489 965 397 983 439 981 m 465 857 b 215 722 397 846 271 785 b 158 454 138 629 158 528 b 243 196 158 313 204 246 b 439 85 293 135 358 85 b 717 278 554 85 692 169 b 725 488 736 353 739 419 b 465 857 690 678 626 818 "},"Ő":{"ha":910,"x_min":0,"x_max":0,"o":"m 374 1169 b 453 1143 396 1213 476 1186 l 403 1044 b 336 1072 383 1007 317 1022 b 374 1169 347 1103 363 1139 m 506 1167 b 586 1140 528 1211 608 1185 l 535 1043 b 468 1069 515 1004 450 1019 b 506 1167 479 1101 494 1138 m 489 965 b 806 646 642 917 761 790 b 844 422 828 574 843 499 b 803 190 844 299 842 271 b 440 -19 743 68 613 -12 b 149 139 304 -25 213 60 b 49 411 100 203 56 271 b 122 775 38 556 24 633 b 375 935 185 858 294 908 b 489 965 397 983 439 981 m 465 857 b 215 722 397 846 271 785 b 158 454 138 629 158 528 b 243 196 158 313 204 246 b 439 85 293 135 358 85 b 717 278 554 85 692 169 b 725 488 736 353 739 419 b 465 857 690 678 626 818 "},"Ō":{"ha":910,"x_min":0,"x_max":0,"o":"m 536 1131 b 544 1057 592 1133 604 1060 b 340 1057 492 1054 393 1053 b 339 1131 286 1061 279 1133 b 536 1131 390 1128 485 1128 m 489 965 b 806 646 642 917 761 790 b 844 422 828 574 843 499 b 803 190 844 299 842 271 b 440 -19 743 68 613 -12 b 149 139 304 -25 213 60 b 49 411 100 203 56 271 b 122 775 38 556 24 633 b 375 935 185 858 294 908 b 489 965 397 983 439 981 m 465 857 b 215 722 397 846 271 785 b 158 454 138 629 158 528 b 243 196 158 313 204 246 b 439 85 293 135 358 85 b 717 278 554 85 692 169 b 725 488 736 353 739 419 b 465 857 690 678 626 818 "},"Ø":{"ha":910,"x_min":0,"x_max":0,"o":"m 489 979 b 646 894 547 961 600 932 l 682 949 b 764 888 707 983 788 922 b 719 819 750 868 735 844 b 806 660 758 772 788 717 b 844 436 828 588 843 513 b 803 204 844 313 842 285 b 440 -6 743 82 613 1 b 254 51 365 -8 304 15 b 210 -8 239 29 224 10 b 131 57 182 -40 103 25 b 178 119 146 75 161 96 b 149 153 167 131 157 142 b 49 425 100 217 56 285 b 122 789 38 569 24 647 b 375 949 185 872 294 922 b 489 979 397 997 439 994 m 465 871 b 215 736 397 860 271 799 b 158 468 138 643 158 542 b 240 214 158 331 201 263 b 590 806 354 392 485 631 b 465 871 557 836 515 858 m 657 718 b 314 142 553 543 424 313 b 439 99 350 115 392 99 b 717 292 554 99 692 183 b 725 501 736 367 739 433 b 657 718 710 585 689 658 "},"Õ":{"ha":910,"x_min":0,"x_max":0,"o":"m 390 1144 b 485 1099 415 1139 464 1104 b 539 1122 526 1088 533 1114 b 590 1089 551 1140 600 1129 b 513 1029 585 1068 550 1029 b 404 1068 469 1029 428 1057 b 353 1057 386 1076 363 1078 b 290 1092 339 1028 281 1042 b 390 1144 299 1135 347 1153 m 489 965 b 806 646 642 917 761 790 b 844 422 828 574 843 499 b 803 190 844 299 842 271 b 440 -19 743 68 613 -12 b 149 139 304 -25 213 60 b 49 411 100 203 56 271 b 122 775 38 556 24 633 b 375 935 185 858 294 908 b 489 965 397 983 439 981 m 465 857 b 215 722 397 846 271 785 b 158 454 138 629 158 528 b 243 196 158 313 204 246 b 439 85 293 135 358 85 b 717 278 554 85 692 169 b 725 488 736 353 739 419 b 465 857 690 678 626 818 "},"Œ":{"ha":1469,"x_min":0,"x_max":0,"o":"m 489 979 b 724 831 544 961 679 894 b 726 904 724 854 726 878 b 803 963 726 953 771 961 b 1311 961 863 971 1190 967 b 1311 857 1388 964 1386 863 b 831 861 1240 857 889 865 b 840 561 832 832 839 638 b 1301 571 963 553 1185 557 b 1336 474 1382 576 1418 517 b 843 457 1164 442 946 457 b 853 101 844 385 846 151 b 1357 122 999 94 1313 122 b 1336 18 1456 114 1433 18 b 1153 10 1256 18 1207 14 b 797 -3 1076 4 992 -3 b 753 36 790 -3 754 15 b 740 115 746 65 742 90 b 440 -6 669 44 567 0 b 149 153 304 -11 213 74 b 49 425 100 217 56 285 b 122 789 38 569 24 647 b 375 949 185 872 294 922 b 489 979 397 997 439 994 m 465 871 b 215 736 397 860 271 799 b 158 468 138 643 158 542 b 243 210 158 326 204 260 b 439 99 293 149 358 99 b 743 292 554 99 732 183 b 733 607 750 358 743 561 b 465 871 699 756 626 832 "},"P":{"ha":842,"x_min":0,"x_max":0,"o":"m 511 957 b 738 850 614 950 692 908 b 719 500 814 749 801 614 b 554 364 681 443 600 388 b 250 285 476 326 365 292 b 267 42 251 213 253 107 b 158 24 279 -37 171 -50 b 139 286 142 101 139 226 l 106 290 b 94 382 49 310 46 364 b 129 386 104 385 117 388 b 104 783 118 486 104 664 b 83 774 96 781 88 776 b 17 853 53 756 -15 822 b 269 936 78 892 185 919 b 511 957 361 954 443 963 m 503 863 b 215 818 382 876 307 857 b 239 382 215 651 232 460 b 524 461 328 379 425 413 b 657 576 557 478 628 526 b 503 863 729 697 667 843 "},"Þ":{"ha":890,"x_min":0,"x_max":0,"o":"m 146 924 b 254 914 149 1001 254 992 b 251 842 253 899 251 878 b 561 875 425 875 481 882 b 785 768 661 867 739 825 b 775 418 860 672 851 525 b 603 282 732 357 654 308 b 297 204 525 244 415 208 b 315 65 299 153 303 126 b 206 47 325 -15 221 -26 b 188 206 192 122 188 168 b 153 208 176 207 164 207 b 151 311 93 229 85 317 l 176 315 b 147 692 168 401 156 539 l 106 671 b 44 757 40 638 -42 701 b 143 811 68 774 113 799 b 146 924 143 878 143 903 m 542 763 b 258 729 447 765 354 750 b 289 313 268 590 279 451 b 571 392 375 318 478 342 b 694 503 599 407 665 453 b 542 763 768 632 718 744 "},"Q":{"ha":892,"x_min":0,"x_max":0,"o":"m 486 960 b 803 626 651 911 758 771 b 838 410 824 556 838 485 b 801 188 839 300 839 261 b 689 58 779 142 732 92 l 714 21 b 642 -44 757 -36 674 -83 b 600 11 633 -31 608 -3 b 438 -25 550 -8 496 -22 b 146 133 301 -31 208 54 b 44 406 96 196 54 269 b 364 926 31 569 43 831 b 486 960 372 961 454 967 m 472 849 b 150 450 236 801 150 675 b 239 190 150 308 200 240 b 435 78 289 129 356 78 b 536 97 467 78 503 86 b 492 164 518 121 499 149 b 571 217 460 231 532 267 b 621 144 582 197 603 168 b 715 271 663 178 704 226 b 724 481 736 350 739 407 b 472 849 690 669 631 807 "},"R":{"ha":876,"x_min":0,"x_max":0,"o":"m 194 961 b 594 896 297 968 454 957 b 783 619 697 851 790 761 b 406 431 775 446 546 431 b 818 78 460 385 714 56 b 801 -26 869 89 853 -24 b 285 401 636 -37 417 318 b 208 424 265 410 236 418 b 222 -11 211 321 215 190 b 118 -1 219 -46 119 -32 b 99 839 100 369 92 669 b 56 826 81 835 61 829 b 26 929 22 813 -11 914 b 194 961 63 942 107 958 m 213 858 b 208 531 210 763 208 678 b 678 618 356 510 639 476 b 558 797 689 688 643 760 b 213 858 440 847 290 867 "},"Ŕ":{"ha":876,"x_min":0,"x_max":0,"o":"m 389 1176 b 460 1131 421 1214 492 1168 b 358 1035 436 1103 382 1063 b 300 1078 329 1003 269 1033 b 389 1176 318 1104 371 1150 m 194 961 b 594 896 297 968 454 957 b 783 619 697 851 790 761 b 406 431 775 446 546 431 b 818 78 460 385 714 56 b 801 -26 869 89 853 -24 b 285 401 636 -37 417 318 b 208 424 265 410 236 418 b 222 -11 211 321 215 190 b 118 -1 219 -46 119 -32 b 99 839 100 369 92 669 b 56 826 81 835 61 829 b 26 929 22 813 -11 914 b 194 961 63 942 107 958 m 213 858 b 208 531 210 763 208 678 b 678 618 356 510 639 476 b 558 797 689 688 643 760 b 213 858 440 847 290 867 "},"Ř":{"ha":876,"x_min":0,"x_max":0,"o":"m 446 1185 b 488 1124 476 1214 526 1160 b 357 1042 460 1097 418 1079 b 204 1132 336 1022 228 1104 b 257 1183 183 1157 222 1211 b 342 1113 286 1161 307 1138 b 446 1185 367 1133 424 1164 m 194 961 b 594 896 297 968 454 957 b 783 619 697 851 790 761 b 406 431 775 446 546 431 b 818 78 460 385 714 56 b 801 -26 869 89 853 -24 b 285 401 636 -37 417 318 b 208 424 265 410 236 418 b 222 -11 211 321 215 190 b 118 -1 219 -46 119 -32 b 99 839 100 369 92 669 b 56 826 81 835 61 829 b 26 929 22 813 -11 914 b 194 961 63 942 107 958 m 213 858 b 208 531 210 763 208 678 b 678 618 356 510 639 476 b 558 797 689 688 643 760 b 213 858 440 847 290 867 "},"Ŗ":{"ha":876,"x_min":0,"x_max":0,"o":"m 194 961 b 594 896 297 968 454 957 b 783 619 697 851 790 761 b 406 431 775 446 546 431 b 818 78 460 385 714 56 b 801 -26 869 89 853 -24 b 285 401 636 -37 417 318 b 208 424 265 410 236 418 b 222 -11 211 321 215 190 b 118 -1 219 -46 119 -32 b 99 839 100 369 92 669 b 56 826 81 835 61 829 b 26 929 22 813 -11 914 b 194 961 63 942 107 958 m 213 858 b 208 531 210 763 208 678 b 678 618 356 510 639 476 b 558 797 689 688 643 760 b 213 858 440 847 290 867 m 463 -128 b 435 -254 453 -185 447 -208 b 365 -229 417 -321 351 -312 b 381 -126 372 -185 378 -157 b 463 -128 386 -61 474 -65 "},"S":{"ha":775,"x_min":0,"x_max":0,"o":"m 654 919 b 669 640 660 865 657 711 b 579 629 669 600 585 599 b 453 844 568 708 538 813 b 261 843 390 875 314 882 b 294 671 221 803 244 715 b 711 282 425 554 644 475 b 439 -24 765 126 635 -19 b 93 142 317 -26 190 8 b 26 339 60 193 28 279 b 138 357 25 379 136 397 b 194 182 140 299 151 242 b 429 79 243 121 347 79 b 610 242 535 79 628 128 b 214 603 588 392 318 513 b 183 904 110 697 113 833 b 564 856 283 1001 485 960 b 558 915 564 865 558 906 b 654 919 553 961 650 949 "},"Ś":{"ha":775,"x_min":0,"x_max":0,"o":"m 428 1176 b 499 1131 460 1214 531 1168 b 397 1035 475 1103 421 1063 b 339 1078 368 1003 308 1033 b 428 1176 357 1104 410 1150 m 654 919 b 669 640 660 865 657 711 b 579 629 669 600 585 599 b 453 844 568 708 538 813 b 261 843 390 875 314 882 b 294 671 221 803 244 715 b 711 282 425 554 644 475 b 439 -24 765 126 635 -19 b 93 142 317 -26 190 8 b 26 339 60 193 28 279 b 138 357 25 379 136 397 b 194 182 140 299 151 242 b 429 79 243 121 347 79 b 610 242 535 79 628 128 b 214 603 588 392 318 513 b 183 904 110 697 113 833 b 564 856 283 1001 485 960 b 558 915 564 865 558 906 b 654 919 553 961 650 949 "},"Š":{"ha":775,"x_min":0,"x_max":0,"o":"m 485 1185 b 526 1124 515 1214 565 1160 b 396 1042 499 1097 457 1079 b 243 1132 375 1022 267 1104 b 296 1183 222 1157 261 1211 b 381 1113 325 1161 346 1138 b 485 1185 406 1133 463 1164 m 654 919 b 669 640 660 865 657 711 b 579 629 669 600 585 599 b 453 844 568 708 538 813 b 261 843 390 875 314 882 b 294 671 221 803 244 715 b 711 282 425 554 644 475 b 439 -24 765 126 635 -19 b 93 142 317 -26 190 8 b 26 339 60 193 28 279 b 138 357 25 379 136 397 b 194 182 140 299 151 242 b 429 79 243 121 347 79 b 610 242 535 79 628 128 b 214 603 588 392 318 513 b 183 904 110 697 113 833 b 564 856 283 1001 485 960 b 558 915 564 865 558 906 b 654 919 553 961 650 949 "},"Ş":{"ha":775,"x_min":0,"x_max":0,"o":"m 433 -24 b 425 -51 431 -33 428 -44 b 506 -122 478 -49 501 -86 b 468 -210 510 -153 494 -190 b 322 -181 424 -243 338 -226 b 369 -153 313 -150 349 -125 b 424 -162 385 -172 406 -176 b 393 -101 449 -143 446 -99 b 361 -69 363 -108 354 -101 l 372 -21 b 93 142 272 -11 172 32 b 26 339 60 193 28 279 b 138 357 25 379 136 397 b 194 182 140 299 151 242 b 429 79 243 121 347 79 b 610 242 535 79 628 128 b 214 603 588 392 318 513 b 183 904 110 697 113 833 b 564 856 283 1001 485 960 b 558 915 564 865 558 906 b 654 919 553 961 650 949 b 669 640 660 865 657 711 b 579 629 669 600 585 599 b 453 844 568 708 538 813 b 261 843 390 875 314 882 b 294 671 221 803 244 715 b 711 282 425 554 644 475 b 439 -24 765 126 635 -19 "},"Ș":{"ha":775,"x_min":0,"x_max":0,"o":"m 654 919 b 669 640 660 865 657 711 b 579 629 669 600 585 599 b 453 844 568 708 538 813 b 261 843 390 875 314 882 b 294 671 221 803 244 715 b 711 282 425 554 644 475 b 439 -24 765 126 635 -19 b 93 142 317 -26 190 8 b 26 339 60 193 28 279 b 138 357 25 379 136 397 b 194 182 140 299 151 242 b 429 79 243 121 347 79 b 610 242 535 79 628 128 b 214 603 588 392 318 513 b 183 904 110 697 113 833 b 564 856 283 1001 485 960 b 558 915 564 865 558 906 b 654 919 553 961 650 949 m 438 -151 b 410 -278 428 -208 422 -232 b 340 -253 392 -344 326 -336 b 356 -150 347 -208 353 -181 b 438 -151 361 -85 449 -89 "},"T":{"ha":786,"x_min":0,"x_max":0,"o":"m 43 958 b 738 951 172 950 653 954 b 721 851 779 947 756 850 b 432 853 493 857 661 861 b 431 14 467 631 431 179 b 321 4 424 -36 321 -37 b 344 594 321 169 344 408 b 328 854 344 688 335 781 b 26 856 268 853 79 853 b 43 958 -18 858 8 960 "},"Ŧ":{"ha":786,"x_min":0,"x_max":0,"o":"m 44 972 b 739 965 174 964 653 968 b 722 861 779 961 756 860 b 433 863 489 867 667 863 b 443 507 442 772 444 572 b 546 511 481 507 528 508 b 556 414 624 510 608 421 b 440 410 532 411 481 410 b 432 56 439 385 432 135 b 321 46 431 22 321 13 b 331 413 321 110 322 183 b 226 414 297 414 236 414 b 224 511 175 414 161 511 b 333 510 239 511 289 511 b 322 864 333 704 331 790 b 26 865 263 863 81 863 b 44 972 -18 868 10 974 "},"Ť":{"ha":786,"x_min":0,"x_max":0,"o":"m 465 1185 b 507 1124 496 1214 546 1160 b 376 1042 479 1097 438 1079 b 224 1132 356 1022 247 1104 b 276 1183 203 1157 242 1211 b 361 1113 306 1161 326 1138 b 465 1185 386 1133 443 1164 m 43 958 b 738 951 172 950 653 954 b 721 851 779 947 756 850 b 432 853 493 857 661 861 b 431 14 467 631 431 179 b 321 4 424 -36 321 -37 b 344 594 321 169 344 408 b 328 854 344 688 335 781 b 26 856 268 853 79 853 b 43 958 -18 858 8 960 "},"Ţ":{"ha":786,"x_min":0,"x_max":0,"o":"m 738 951 b 721 851 779 947 756 850 b 432 853 493 857 661 861 b 431 14 467 631 431 179 b 401 -19 428 -3 417 -14 b 394 -40 399 -28 397 -35 b 475 -111 447 -37 471 -75 b 438 -199 479 -142 464 -179 b 292 -169 393 -232 307 -215 b 339 -142 282 -139 318 -114 b 393 -151 354 -161 375 -165 b 363 -90 418 -132 415 -87 b 331 -58 332 -97 324 -90 l 340 -21 b 321 4 328 -15 321 -7 b 344 594 321 169 344 408 b 328 854 344 688 335 781 b 26 856 268 853 79 853 b 43 958 -18 858 8 960 b 738 951 172 950 653 954 "},"Ț":{"ha":786,"x_min":0,"x_max":0,"o":"m 43 958 b 738 951 172 950 653 954 b 721 851 779 947 756 850 b 432 853 493 857 661 861 b 431 14 467 631 431 179 b 321 4 424 -36 321 -37 b 344 594 321 169 344 408 b 328 854 344 688 335 781 b 26 856 268 853 79 853 b 43 958 -18 858 8 960 m 407 -140 b 379 -267 397 -197 392 -221 b 310 -242 361 -333 296 -325 b 325 -139 317 -197 322 -169 b 407 -140 331 -74 418 -78 "},"U":{"ha":839,"x_min":0,"x_max":0,"o":"m 654 925 b 768 911 649 976 769 961 b 739 219 765 725 807 394 b 429 -32 688 100 574 -33 b 57 407 239 -29 58 132 b 42 913 57 574 56 746 b 154 925 36 979 132 990 b 167 438 165 774 167 589 b 428 71 169 238 264 71 b 649 281 542 71 613 179 b 654 925 699 424 671 774 "},"Ú":{"ha":839,"x_min":0,"x_max":0,"o":"m 447 1176 b 518 1131 479 1214 550 1168 b 417 1035 494 1103 440 1063 b 358 1078 388 1003 328 1033 b 447 1176 376 1104 429 1150 m 654 925 b 768 911 649 976 769 961 b 739 219 765 725 807 394 b 429 -32 688 100 574 -33 b 57 407 239 -29 58 132 b 42 913 57 574 56 746 b 154 925 36 979 132 990 b 167 438 165 774 167 589 b 428 71 169 238 264 71 b 649 281 542 71 613 179 b 654 925 699 424 671 774 "},"Û":{"ha":839,"x_min":0,"x_max":0,"o":"m 422 1183 b 553 1096 476 1151 522 1118 b 515 1028 592 1067 549 1000 b 407 1113 467 1068 432 1092 b 286 1039 372 1088 315 1061 b 238 1086 251 1011 203 1047 b 422 1183 261 1113 401 1203 m 654 925 b 768 911 649 976 769 961 b 739 219 765 725 807 394 b 429 -32 688 100 574 -33 b 57 407 239 -29 58 132 b 42 913 57 574 56 746 b 154 925 36 979 132 990 b 167 438 165 774 167 589 b 428 71 169 238 264 71 b 649 281 542 71 613 179 b 654 925 699 424 671 774 "},"Ü":{"ha":839,"x_min":0,"x_max":0,"o":"m 479 1119 b 553 1093 521 1124 544 1111 b 481 1031 565 1068 540 1031 b 479 1119 429 1031 431 1114 m 339 1121 b 340 1028 396 1121 397 1028 b 271 1075 314 1028 271 1038 b 339 1121 269 1107 289 1121 m 654 925 b 768 911 649 976 769 961 b 739 219 765 725 807 394 b 429 -32 688 100 574 -33 b 57 407 239 -29 58 132 b 42 913 57 574 56 746 b 154 925 36 979 132 990 b 167 438 165 774 167 589 b 428 71 169 238 264 71 b 649 281 542 71 613 179 b 654 925 699 424 671 774 "},"Ù":{"ha":839,"x_min":0,"x_max":0,"o":"m 394 1176 b 471 1078 413 1150 453 1104 b 413 1035 501 1033 442 1003 b 322 1131 389 1063 346 1103 b 394 1176 290 1168 363 1214 m 654 925 b 768 911 649 976 769 961 b 739 219 765 725 807 394 b 429 -32 688 100 574 -33 b 57 407 239 -29 58 132 b 42 913 57 574 56 746 b 154 925 36 979 132 990 b 167 438 165 774 167 589 b 428 71 169 238 264 71 b 649 281 542 71 613 179 b 654 925 699 424 671 774 "},"Ű":{"ha":839,"x_min":0,"x_max":0,"o":"m 339 1169 b 418 1143 361 1213 442 1186 l 368 1044 b 301 1072 349 1007 282 1022 b 339 1169 313 1103 328 1139 m 471 1167 b 551 1140 493 1211 574 1185 l 500 1043 b 433 1069 481 1004 415 1019 b 471 1167 444 1101 460 1138 m 654 925 b 768 911 649 976 769 961 b 739 219 765 725 807 394 b 429 -32 688 100 574 -33 b 57 407 239 -29 58 132 b 42 913 57 574 56 746 b 154 925 36 979 132 990 b 167 438 165 774 167 589 b 428 71 169 238 264 71 b 649 281 542 71 613 179 b 654 925 699 424 671 774 "},"Ū":{"ha":839,"x_min":0,"x_max":0,"o":"m 501 1131 b 510 1057 557 1133 569 1060 b 306 1057 457 1054 358 1053 b 304 1131 251 1061 244 1133 b 501 1131 356 1128 450 1128 m 654 925 b 768 911 649 976 769 961 b 739 219 765 725 807 394 b 429 -32 688 100 574 -33 b 57 407 239 -29 58 132 b 42 913 57 574 56 746 b 154 925 36 979 132 990 b 167 438 165 774 167 589 b 428 71 169 238 264 71 b 649 281 542 71 613 179 b 654 925 699 424 671 774 "},"Ų":{"ha":839,"x_min":0,"x_max":0,"o":"m 739 219 b 608 21 711 154 642 75 b 568 -139 568 -43 553 -115 b 621 -144 582 -161 600 -164 b 654 -199 653 -115 681 -167 b 503 -186 621 -240 540 -243 b 521 -14 475 -144 485 -69 b 429 -32 493 -26 461 -32 b 57 407 239 -29 58 132 b 42 913 57 574 56 746 b 154 925 36 979 132 990 b 167 438 165 774 167 589 b 428 71 169 238 264 71 b 649 281 542 71 613 179 b 654 925 699 424 671 774 b 768 911 649 976 769 961 b 739 219 765 725 807 394 "},"Ů":{"ha":839,"x_min":0,"x_max":0,"o":"m 429 1207 b 468 1204 440 1213 457 1214 b 379 1031 554 1150 486 1001 b 322 1142 328 1044 301 1097 b 429 1207 342 1186 388 1207 m 432 1151 b 417 1149 428 1154 421 1151 b 375 1124 401 1149 382 1139 b 397 1088 367 1108 378 1090 b 432 1151 439 1075 461 1131 m 654 925 b 768 911 649 976 769 961 b 739 219 765 725 807 394 b 429 -32 688 100 574 -33 b 57 407 239 -29 58 132 b 42 913 57 574 56 746 b 154 925 36 979 132 990 b 167 438 165 774 167 589 b 428 71 169 238 264 71 b 649 281 542 71 613 179 b 654 925 699 424 671 774 "},"V":{"ha":743,"x_min":0,"x_max":0,"o":"m 104 944 b 396 139 206 743 264 349 b 571 932 442 403 503 728 b 669 894 597 1007 701 981 b 467 39 588 635 522 308 b 346 22 449 -44 381 -43 b 4 896 172 274 121 657 b 104 944 -25 958 76 1026 "},"W":{"ha":1179,"x_min":0,"x_max":0,"o":"m 124 947 b 299 194 196 729 254 413 b 501 865 315 238 479 739 b 611 832 506 922 603 879 b 829 185 626 744 751 367 b 1031 921 890 375 969 763 b 1138 896 1056 972 1164 969 b 886 19 1053 668 971 247 b 782 25 857 -56 814 -50 b 550 672 725 156 576 592 b 339 24 493 507 403 219 b 228 21 313 -42 236 -51 b 24 907 217 119 94 725 b 124 947 -3 960 100 1011 "},"Ẃ":{"ha":1179,"x_min":0,"x_max":0,"o":"m 603 1147 b 674 1101 635 1185 706 1139 b 572 1006 650 1074 596 1033 b 514 1049 543 974 483 1004 b 603 1147 532 1075 585 1121 m 124 947 b 299 194 196 729 254 413 b 501 865 315 238 479 739 b 611 832 506 922 603 879 b 829 185 626 744 751 367 b 1031 921 890 375 969 763 b 1138 896 1056 972 1164 969 b 886 19 1053 668 971 247 b 782 25 857 -56 814 -50 b 550 672 725 156 576 592 b 339 24 493 507 403 219 b 228 21 313 -42 236 -51 b 24 907 217 119 94 725 b 124 947 -3 960 100 1011 "},"Ŵ":{"ha":1179,"x_min":0,"x_max":0,"o":"m 578 1154 b 708 1067 632 1122 678 1089 b 671 999 747 1038 704 971 b 563 1083 622 1039 588 1063 b 442 1010 528 1058 471 1032 b 393 1057 407 982 358 1018 b 578 1154 417 1083 557 1174 m 124 947 b 299 194 196 729 254 413 b 501 865 315 238 479 739 b 611 832 506 922 603 879 b 829 185 626 744 751 367 b 1031 921 890 375 969 763 b 1138 896 1056 972 1164 969 b 886 19 1053 668 971 247 b 782 25 857 -56 814 -50 b 550 672 725 156 576 592 b 339 24 493 507 403 219 b 228 21 313 -42 236 -51 b 24 907 217 119 94 725 b 124 947 -3 960 100 1011 "},"Ẅ":{"ha":1179,"x_min":0,"x_max":0,"o":"m 635 1090 b 708 1064 676 1094 700 1082 b 636 1001 721 1039 696 1001 b 635 1090 585 1001 586 1085 m 494 1092 b 496 999 551 1092 553 999 b 426 1046 469 999 426 1008 b 494 1092 425 1078 444 1092 m 124 947 b 299 194 196 729 254 413 b 501 865 315 238 479 739 b 611 832 506 922 603 879 b 829 185 626 744 751 367 b 1031 921 890 375 969 763 b 1138 896 1056 972 1164 969 b 886 19 1053 668 971 247 b 782 25 857 -56 814 -50 b 550 672 725 156 576 592 b 339 24 493 507 403 219 b 228 21 313 -42 236 -51 b 24 907 217 119 94 725 b 124 947 -3 960 100 1011 "},"Ẁ":{"ha":1179,"x_min":0,"x_max":0,"o":"m 550 1147 b 626 1049 568 1121 608 1075 b 568 1006 657 1004 597 974 b 478 1101 544 1033 501 1074 b 550 1147 446 1139 518 1185 m 124 947 b 299 194 196 729 254 413 b 501 865 315 238 479 739 b 611 832 506 922 603 879 b 829 185 626 744 751 367 b 1031 921 890 375 969 763 b 1138 896 1056 972 1164 969 b 886 19 1053 668 971 247 b 782 25 857 -56 814 -50 b 550 672 725 156 576 592 b 339 24 493 507 403 219 b 228 21 313 -42 236 -51 b 24 907 217 119 94 725 b 124 947 -3 960 100 1011 "},"X":{"ha":788,"x_min":0,"x_max":0,"o":"m 213 943 b 407 629 278 847 349 740 b 578 926 493 764 549 872 b 692 899 600 972 724 960 b 463 542 639 804 532 649 b 758 65 575 342 682 163 b 665 -3 794 10 692 -37 b 410 428 592 99 486 288 b 158 -1 332 290 181 33 b 43 35 111 -54 -11 -29 b 347 540 108 119 235 317 b 132 881 307 638 192 803 b 213 943 99 932 188 979 "},"Y":{"ha":726,"x_min":0,"x_max":0,"o":"m 124 936 b 251 679 157 864 204 768 b 451 392 329 529 378 469 b 583 939 499 540 551 818 b 686 901 592 992 692 951 b 625 656 664 828 644 735 b 454 71 582 479 540 247 b 168 14 400 -49 257 -56 b 104 258 90 74 94 194 b 214 238 122 342 221 294 b 279 64 206 181 206 72 b 413 288 365 57 390 208 b 222 511 356 332 278 418 b 28 883 121 686 46 842 b 124 936 8 928 101 988 "},"Ý":{"ha":726,"x_min":0,"x_max":0,"o":"m 404 1176 b 475 1131 436 1214 507 1168 b 374 1035 451 1103 397 1063 b 315 1078 344 1003 285 1033 b 404 1176 333 1104 386 1150 m 124 936 b 251 679 157 864 204 768 b 451 392 329 529 378 469 b 583 939 499 540 551 818 b 686 901 592 992 692 951 b 625 656 664 828 644 735 b 454 71 582 479 540 247 b 168 14 400 -49 257 -56 b 104 258 90 74 94 194 b 214 238 122 342 221 294 b 279 64 206 181 206 72 b 413 288 365 57 390 208 b 222 511 356 332 278 418 b 28 883 121 686 46 842 b 124 936 8 928 101 988 "},"Ŷ":{"ha":726,"x_min":0,"x_max":0,"o":"m 379 1183 b 510 1096 433 1151 479 1118 b 472 1028 549 1067 506 1000 b 364 1113 424 1068 389 1092 b 243 1039 329 1088 272 1061 b 194 1086 208 1011 160 1047 b 379 1183 218 1113 358 1203 m 124 936 b 251 679 157 864 204 768 b 451 392 329 529 378 469 b 583 939 499 540 551 818 b 686 901 592 992 692 951 b 625 656 664 828 644 735 b 454 71 582 479 540 247 b 168 14 400 -49 257 -56 b 104 258 90 74 94 194 b 214 238 122 342 221 294 b 279 64 206 181 206 72 b 413 288 365 57 390 208 b 222 511 356 332 278 418 b 28 883 121 686 46 842 b 124 936 8 928 101 988 "},"Ÿ":{"ha":726,"x_min":0,"x_max":0,"o":"m 436 1119 b 510 1093 478 1124 501 1111 b 438 1031 522 1068 497 1031 b 436 1119 386 1031 388 1114 m 296 1121 b 297 1028 353 1121 354 1028 b 228 1075 271 1028 228 1038 b 296 1121 226 1107 246 1121 m 124 936 b 251 679 157 864 204 768 b 451 392 329 529 378 469 b 583 939 499 540 551 818 b 686 901 592 992 692 951 b 625 656 664 828 644 735 b 454 71 582 479 540 247 b 168 14 400 -49 257 -56 b 104 258 90 74 94 194 b 214 238 122 342 221 294 b 279 64 206 181 206 72 b 413 288 365 57 390 208 b 222 511 356 332 278 418 b 28 883 121 686 46 842 b 124 936 8 928 101 988 "},"Ỳ":{"ha":726,"x_min":0,"x_max":0,"o":"m 351 1176 b 428 1078 369 1150 410 1104 b 369 1035 458 1033 399 1003 b 279 1131 346 1063 303 1103 b 351 1176 247 1168 319 1214 m 124 936 b 251 679 157 864 204 768 b 451 392 329 529 378 469 b 583 939 499 540 551 818 b 686 901 592 992 692 951 b 625 656 664 828 644 735 b 454 71 582 479 540 247 b 168 14 400 -49 257 -56 b 104 258 90 74 94 194 b 214 238 122 342 221 294 b 279 64 206 181 206 72 b 413 288 365 57 390 208 b 222 511 356 332 278 418 b 28 883 121 686 46 842 b 124 936 8 928 101 988 "},"Z":{"ha":750,"x_min":0,"x_max":0,"o":"m 113 956 b 689 951 379 956 488 938 b 733 885 724 950 743 919 b 176 72 517 657 329 249 b 654 76 314 72 529 83 b 643 -22 689 72 675 -24 b 82 -22 335 -12 288 -33 b 42 65 39 -19 14 11 b 564 849 200 203 418 668 b 100 854 382 849 226 865 b 113 956 63 851 76 956 "},"Ź":{"ha":750,"x_min":0,"x_max":0,"o":"m 442 1176 b 513 1131 474 1214 544 1168 b 411 1035 489 1103 435 1063 b 353 1078 382 1003 322 1033 b 442 1176 371 1104 424 1150 m 113 956 b 689 951 379 956 488 938 b 733 885 724 950 743 919 b 176 72 517 657 329 249 b 654 76 314 72 529 83 b 643 -22 689 72 675 -24 b 82 -22 335 -12 288 -33 b 42 65 39 -19 14 11 b 564 849 200 203 418 668 b 100 854 382 849 226 865 b 113 956 63 851 76 956 "},"Ž":{"ha":750,"x_min":0,"x_max":0,"o":"m 499 1185 b 540 1124 529 1214 579 1160 b 410 1042 513 1097 471 1079 b 257 1132 389 1022 281 1104 b 310 1183 236 1157 275 1211 b 394 1113 339 1161 360 1138 b 499 1185 419 1133 476 1164 m 113 956 b 689 951 379 956 488 938 b 733 885 724 950 743 919 b 176 72 517 657 329 249 b 654 76 314 72 529 83 b 643 -22 689 72 675 -24 b 82 -22 335 -12 288 -33 b 42 65 39 -19 14 11 b 564 849 200 203 418 668 b 100 854 382 849 226 865 b 113 956 63 851 76 956 "},"Ż":{"ha":750,"x_min":0,"x_max":0,"o":"m 394 1151 b 399 1053 496 1149 500 1053 b 343 1094 375 1053 346 1074 b 394 1151 336 1129 361 1151 m 113 956 b 689 951 379 956 488 938 b 733 885 724 950 743 919 b 176 72 517 657 329 249 b 654 76 314 72 529 83 b 643 -22 689 72 675 -24 b 82 -22 335 -12 288 -33 b 42 65 39 -19 14 11 b 564 849 200 203 418 668 b 100 854 382 849 226 865 b 113 956 63 851 76 956 "},"a":{"ha":807,"x_min":0,"x_max":0,"o":"m 460 868 b 346 858 442 935 378 939 b 175 375 288 728 232 506 l 117 375 b 136 286 38 376 36 292 b 44 61 106 217 61 124 b 138 10 6 -42 121 -46 b 257 286 174 131 204 185 b 554 292 283 286 494 293 b 668 42 583 211 619 165 b 775 65 700 -39 821 -69 b 669 290 728 153 703 203 b 708 292 682 290 696 292 b 714 396 811 301 807 396 b 628 390 681 394 656 392 b 460 868 579 478 521 701 m 407 717 b 510 392 451 581 472 468 b 296 388 475 393 317 388 b 407 717 326 458 368 610 "},"á":{"ha":807,"x_min":0,"x_max":0,"o":"m 449 1135 b 519 1089 481 1172 551 1126 b 418 993 496 1061 442 1021 b 360 1036 389 961 329 992 b 449 1135 378 1063 431 1108 m 460 868 b 346 858 442 935 378 939 b 175 375 288 728 232 506 l 117 375 b 136 286 38 376 36 292 b 44 61 106 217 61 124 b 138 10 6 -42 121 -46 b 257 286 174 131 204 185 b 554 292 283 286 494 293 b 668 42 583 211 619 165 b 775 65 700 -39 821 -69 b 669 290 728 153 703 203 b 708 292 682 290 696 292 b 714 396 811 301 807 396 b 628 390 681 394 656 392 b 460 868 579 478 521 701 m 407 717 b 510 392 451 581 472 468 b 296 388 475 393 317 388 b 407 717 326 458 368 610 "},"ă":{"ha":807,"x_min":0,"x_max":0,"o":"m 489 1119 b 536 1075 522 1154 560 1111 b 401 1001 508 1033 463 1001 b 267 1075 340 1001 294 1033 b 314 1119 243 1111 281 1154 b 401 1074 340 1093 356 1074 b 489 1119 447 1074 463 1093 m 460 868 b 346 858 442 935 378 939 b 175 375 288 728 232 506 l 117 375 b 136 286 38 376 36 292 b 44 61 106 217 61 124 b 138 10 6 -42 121 -46 b 257 286 174 131 204 185 b 554 292 283 286 494 293 b 668 42 583 211 619 165 b 775 65 700 -39 821 -69 b 669 290 728 153 703 203 b 708 292 682 290 696 292 b 714 396 811 301 807 396 b 628 390 681 394 656 392 b 460 868 579 478 521 701 m 407 717 b 510 392 451 581 472 468 b 296 388 475 393 317 388 b 407 717 326 458 368 610 "},"â":{"ha":807,"x_min":0,"x_max":0,"o":"m 424 1142 b 554 1054 478 1110 524 1076 b 517 986 593 1025 550 958 b 408 1071 468 1026 433 1050 b 288 997 374 1046 317 1019 b 239 1044 253 969 204 1006 b 424 1142 263 1071 403 1161 m 460 868 b 346 858 442 935 378 939 b 175 375 288 728 232 506 l 117 375 b 136 286 38 376 36 292 b 44 61 106 217 61 124 b 138 10 6 -42 121 -46 b 257 286 174 131 204 185 b 554 292 283 286 494 293 b 668 42 583 211 619 165 b 775 65 700 -39 821 -69 b 669 290 728 153 703 203 b 708 292 682 290 696 292 b 714 396 811 301 807 396 b 628 390 681 394 656 392 b 460 868 579 478 521 701 m 407 717 b 510 392 451 581 472 468 b 296 388 475 393 317 388 b 407 717 326 458 368 610 "},"ä":{"ha":807,"x_min":0,"x_max":0,"o":"m 481 1078 b 554 1051 522 1082 546 1069 b 482 989 567 1026 542 989 b 481 1078 431 989 432 1072 m 340 1079 b 342 986 397 1079 399 986 b 272 1033 315 986 272 996 b 340 1079 271 1065 290 1079 m 460 868 b 346 858 442 935 378 939 b 175 375 288 728 232 506 l 117 375 b 136 286 38 376 36 292 b 44 61 106 217 61 124 b 138 10 6 -42 121 -46 b 257 286 174 131 204 185 b 554 292 283 286 494 293 b 668 42 583 211 619 165 b 775 65 700 -39 821 -69 b 669 290 728 153 703 203 b 708 292 682 290 696 292 b 714 396 811 301 807 396 b 628 390 681 394 656 392 b 460 868 579 478 521 701 m 407 717 b 510 392 451 581 472 468 b 296 388 475 393 317 388 b 407 717 326 458 368 610 "},"à":{"ha":807,"x_min":0,"x_max":0,"o":"m 396 1135 b 472 1036 414 1108 454 1063 b 414 993 503 992 443 961 b 324 1089 390 1021 347 1061 b 396 1135 292 1126 364 1172 m 460 868 b 346 858 442 935 378 939 b 175 375 288 728 232 506 l 117 375 b 136 286 38 376 36 292 b 44 61 106 217 61 124 b 138 10 6 -42 121 -46 b 257 286 174 131 204 185 b 554 292 283 286 494 293 b 668 42 583 211 619 165 b 775 65 700 -39 821 -69 b 669 290 728 153 703 203 b 708 292 682 290 696 292 b 714 396 811 301 807 396 b 628 390 681 394 656 392 b 460 868 579 478 521 701 m 407 717 b 510 392 451 581 472 468 b 296 388 475 393 317 388 b 407 717 326 458 368 610 "},"ā":{"ha":807,"x_min":0,"x_max":0,"o":"m 503 1089 b 511 1015 558 1092 571 1018 b 307 1015 458 1013 360 1011 b 306 1089 253 1019 246 1092 b 503 1089 357 1086 451 1086 m 460 868 b 346 858 442 935 378 939 b 175 375 288 728 232 506 l 117 375 b 136 286 38 376 36 292 b 44 61 106 217 61 124 b 138 10 6 -42 121 -46 b 257 286 174 131 204 185 b 554 292 283 286 494 293 b 668 42 583 211 619 165 b 775 65 700 -39 821 -69 b 669 290 728 153 703 203 b 708 292 682 290 696 292 b 714 396 811 301 807 396 b 628 390 681 394 656 392 b 460 868 579 478 521 701 m 407 717 b 510 392 451 581 472 468 b 296 388 475 393 317 388 b 407 717 326 458 368 610 "},"ą":{"ha":903,"x_min":0,"x_max":0,"o":"m 475 910 b 671 432 536 743 622 519 b 757 438 699 433 724 436 b 747 328 854 438 854 338 b 708 326 735 328 721 326 b 818 65 742 239 785 153 b 811 -24 835 15 828 -12 b 785 -144 781 -60 769 -121 b 838 -150 799 -167 817 -169 b 871 -204 869 -121 897 -172 b 719 -192 838 -246 757 -249 b 746 -10 690 -147 703 -65 b 711 42 731 3 718 21 b 597 328 676 165 626 247 b 272 328 538 329 299 328 b 139 10 233 226 175 131 b 46 61 121 -44 7 -42 b 151 328 63 124 110 258 b 132 417 51 333 53 418 l 190 417 b 361 900 247 547 303 769 b 475 910 393 981 457 976 m 422 758 b 311 429 383 651 342 500 b 553 433 332 429 518 435 b 422 758 515 510 467 622 "},"å":{"ha":807,"x_min":0,"x_max":0,"o":"m 431 1165 b 469 1163 442 1171 458 1172 b 381 989 556 1108 488 960 b 324 1100 329 1003 303 1056 b 431 1165 343 1144 389 1165 m 433 1110 b 418 1107 429 1113 422 1110 b 376 1082 403 1107 383 1097 b 399 1046 368 1067 379 1049 b 433 1110 440 1033 463 1089 m 460 868 b 346 858 442 935 378 939 b 175 375 288 728 232 506 l 117 375 b 136 286 38 376 36 292 b 44 61 106 217 61 124 b 138 10 6 -42 121 -46 b 257 286 174 131 204 185 b 554 292 283 286 494 293 b 668 42 583 211 619 165 b 775 65 700 -39 821 -69 b 669 290 728 153 703 203 b 708 292 682 290 696 292 b 714 396 811 301 807 396 b 628 390 681 394 656 392 b 460 868 579 478 521 701 m 407 717 b 510 392 451 581 472 468 b 296 388 475 393 317 388 b 407 717 326 458 368 610 "},"ã":{"ha":807,"x_min":0,"x_max":0,"o":"m 357 1103 b 451 1057 382 1097 431 1063 b 506 1081 493 1046 500 1072 b 557 1047 518 1099 567 1088 b 479 988 551 1026 517 988 b 371 1026 436 988 394 1015 b 319 1015 353 1035 329 1036 b 257 1050 306 986 247 1000 b 357 1103 265 1093 314 1111 m 460 868 b 346 858 442 935 378 939 b 175 375 288 728 232 506 l 117 375 b 136 286 38 376 36 292 b 44 61 106 217 61 124 b 138 10 6 -42 121 -46 b 257 286 174 131 204 185 b 554 292 283 286 494 293 b 668 42 583 211 619 165 b 775 65 700 -39 821 -69 b 669 290 728 153 703 203 b 708 292 682 290 696 292 b 714 396 811 301 807 396 b 628 390 681 394 656 392 b 460 868 579 478 521 701 m 407 717 b 510 392 451 581 472 468 b 296 388 475 393 317 388 b 407 717 326 458 368 610 "},"æ":{"ha":1138,"x_min":0,"x_max":0,"o":"m 551 906 b 1022 901 607 914 889 908 b 1022 801 1060 901 1057 804 b 604 803 892 797 806 821 b 611 529 607 711 608 621 b 1011 539 718 522 913 524 b 1043 444 1089 544 1122 488 b 613 429 878 414 718 429 b 624 101 613 310 619 149 b 1061 118 751 96 1013 121 b 1043 21 1144 111 1129 32 b 931 11 1014 17 974 14 b 583 1 814 4 667 1 b 528 58 542 1 533 8 b 510 328 518 160 510 243 b 294 326 472 331 322 326 b 131 26 239 232 176 118 b 51 85 104 -24 0 -7 b 178 329 82 150 128 247 b 175 425 107 344 99 425 l 235 425 b 468 867 276 493 422 799 b 551 906 492 896 513 904 m 500 728 b 354 425 438 615 397 499 b 504 428 382 425 481 429 b 500 728 504 483 500 674 "},"b":{"ha":832,"x_min":0,"x_max":0,"o":"m 226 910 b 239 871 232 900 238 881 b 656 668 500 871 656 838 b 567 529 656 603 615 556 b 624 508 586 524 606 515 b 790 286 733 460 790 397 b 536 22 790 111 675 57 b 217 35 421 -10 336 11 b 144 -18 207 4 188 -33 b 119 60 113 -7 110 14 l 103 68 b 119 174 17 106 38 221 b 147 160 129 169 138 164 b 157 461 160 268 157 354 b 110 564 35 492 60 564 l 154 564 b 147 764 153 619 151 711 l 140 764 b 92 861 71 764 60 858 l 138 865 b 226 910 135 925 190 953 m 247 769 b 257 567 253 722 254 633 b 549 663 300 567 549 569 b 247 769 549 778 314 774 m 264 467 b 238 132 257 333 233 132 b 504 118 328 110 418 100 b 686 283 610 143 686 182 b 571 422 686 351 635 392 b 264 467 494 460 354 471 "},"c":{"ha":776,"x_min":0,"x_max":0,"o":"m 447 901 b 611 806 539 878 574 847 b 715 649 660 751 694 701 b 610 601 738 601 633 563 b 417 794 565 701 499 781 b 238 704 363 803 285 758 b 149 410 174 625 149 518 b 258 150 149 278 190 206 b 400 104 294 121 347 103 b 597 256 486 106 554 175 b 690 201 631 294 717 267 b 406 -3 629 82 526 0 b 225 43 342 -4 272 14 b 36 376 111 113 43 221 b 139 757 28 472 35 608 b 447 901 208 856 354 924 "},"ć":{"ha":776,"x_min":0,"x_max":0,"o":"m 446 1132 b 517 1086 478 1169 549 1124 b 415 990 493 1058 439 1018 b 357 1033 386 958 326 989 b 446 1132 375 1060 428 1106 m 447 901 b 611 806 539 878 574 847 b 715 649 660 751 694 701 b 610 601 738 601 633 563 b 417 794 565 701 499 781 b 238 704 363 803 285 758 b 149 410 174 625 149 518 b 258 150 149 278 190 206 b 400 104 294 121 347 103 b 597 256 486 106 554 175 b 690 201 631 294 717 267 b 406 -3 629 82 526 0 b 225 43 342 -4 272 14 b 36 376 111 113 43 221 b 139 757 28 472 35 608 b 447 901 208 856 354 924 "},"č":{"ha":776,"x_min":0,"x_max":0,"o":"m 503 1140 b 544 1079 533 1169 583 1115 b 414 997 517 1053 475 1035 b 261 1088 393 978 285 1060 b 314 1139 240 1113 279 1167 b 399 1068 343 1117 364 1093 b 503 1140 424 1089 481 1119 m 447 901 b 611 806 539 878 574 847 b 715 649 660 751 694 701 b 610 601 738 601 633 563 b 417 794 565 701 499 781 b 238 704 363 803 285 758 b 149 410 174 625 149 518 b 258 150 149 278 190 206 b 400 104 294 121 347 103 b 597 256 486 106 554 175 b 690 201 631 294 717 267 b 406 -3 629 82 526 0 b 225 43 342 -4 272 14 b 36 376 111 113 43 221 b 139 757 28 472 35 608 b 447 901 208 856 354 924 "},"ç":{"ha":776,"x_min":0,"x_max":0,"o":"m 417 794 b 238 704 363 803 285 758 b 149 410 174 625 149 518 b 258 150 149 278 190 206 b 400 104 294 121 347 103 b 597 256 486 106 554 175 b 690 201 631 294 717 267 b 413 -3 631 85 531 3 b 399 -58 410 -19 404 -43 b 479 -129 451 -56 475 -93 b 442 -217 483 -160 468 -197 b 296 -187 397 -250 311 -233 b 343 -160 286 -157 322 -132 b 397 -169 358 -179 379 -183 b 367 -108 422 -150 419 -106 b 335 -76 336 -115 328 -108 l 353 0 b 225 43 306 7 260 22 b 36 376 111 113 43 221 b 139 757 28 472 35 608 b 447 901 208 856 354 924 b 611 806 539 878 574 847 b 715 649 660 751 694 701 b 610 601 738 601 633 563 b 417 794 565 701 499 781 "},"ċ":{"ha":776,"x_min":0,"x_max":0,"o":"m 399 1107 b 403 1008 500 1104 504 1008 b 347 1050 379 1008 350 1029 b 399 1107 340 1085 365 1107 m 447 901 b 611 806 539 878 574 847 b 715 649 660 751 694 701 b 610 601 738 601 633 563 b 417 794 565 701 499 781 b 238 704 363 803 285 758 b 149 410 174 625 149 518 b 258 150 149 278 190 206 b 400 104 294 121 347 103 b 597 256 486 106 554 175 b 690 201 631 294 717 267 b 406 -3 629 82 526 0 b 225 43 342 -4 272 14 b 36 376 111 113 43 221 b 139 757 28 472 35 608 b 447 901 208 856 354 924 "},"d":{"ha":858,"x_min":0,"x_max":0,"o":"m 28 863 b 603 851 225 928 429 918 b 817 488 751 782 815 606 b 572 94 819 297 728 179 b 153 13 428 21 269 -3 b 89 82 108 13 86 53 b 85 772 101 319 113 554 b 76 769 78 771 72 768 b 28 863 14 742 -24 843 m 189 797 b 200 113 214 617 211 292 b 436 150 296 113 324 118 b 710 475 603 206 710 319 b 469 788 710 619 625 751 b 189 797 371 810 275 808 "},"ð":{"ha":882,"x_min":0,"x_max":0,"o":"m 50 846 b 625 835 242 910 449 904 b 840 488 774 765 839 606 b 596 94 843 297 751 179 b 175 13 454 22 296 -3 b 113 82 135 14 114 54 b 125 425 119 204 125 310 l 82 426 b 63 521 25 433 7 521 b 125 519 75 521 103 519 b 108 756 122 600 117 679 b 85 749 100 754 68 747 b 50 846 10 736 4 831 m 213 781 b 231 518 222 700 228 610 b 347 521 269 518 318 518 b 353 426 410 524 407 433 b 232 425 322 425 271 425 b 222 113 232 306 228 219 b 460 150 318 113 347 118 b 732 475 625 206 732 319 b 493 771 732 619 649 735 b 213 781 393 793 299 792 "},"ď":{"ha":924,"x_min":0,"x_max":0,"o":"m 808 876 b 889 875 810 908 890 908 b 865 771 883 864 879 828 b 789 774 857 740 788 731 m 28 846 b 603 835 225 911 429 901 b 817 488 751 765 815 606 b 572 94 819 297 728 179 b 153 13 428 21 269 -3 b 89 82 108 13 86 53 b 85 756 101 319 113 538 b 76 753 78 754 72 751 b 28 846 14 725 -24 826 m 189 781 b 200 113 214 600 211 292 b 436 150 296 113 324 118 b 710 475 603 206 710 319 b 469 771 710 619 625 735 b 189 781 371 793 275 792 "},"đ":{"ha":882,"x_min":0,"x_max":0,"o":"m 50 846 b 625 835 242 910 449 904 b 840 488 774 765 839 606 b 596 94 843 297 751 179 b 175 13 454 22 296 -3 b 113 82 135 14 114 54 b 125 425 119 204 125 310 l 82 426 b 63 521 25 433 7 521 b 125 519 75 521 103 519 b 108 756 122 600 117 679 b 85 749 100 754 68 747 b 50 846 10 736 4 831 m 213 781 b 231 518 222 700 228 610 b 347 521 269 518 318 518 b 353 426 410 524 407 433 b 232 425 322 425 271 425 b 222 113 232 306 228 219 b 460 150 318 113 347 118 b 732 475 625 206 732 319 b 493 771 732 619 649 735 b 213 781 393 793 299 792 "},"e":{"ha":822,"x_min":0,"x_max":0,"o":"m 692 896 b 692 792 768 899 767 797 b 211 796 621 792 269 800 b 221 496 213 767 219 572 b 682 506 343 488 565 492 b 717 408 763 511 799 451 b 222 392 543 376 324 392 b 233 75 222 374 229 107 b 738 96 379 68 693 96 b 717 -8 836 88 814 -8 b 553 -14 638 -8 592 -11 b 178 -29 471 -19 425 -29 b 133 10 171 -29 135 -11 b 118 203 117 76 118 124 b 113 374 119 258 113 358 b 103 790 108 528 103 769 l 79 786 b 67 889 3 783 7 872 b 128 896 89 892 110 894 b 692 896 188 904 571 901 "},"é":{"ha":822,"x_min":0,"x_max":0,"o":"m 457 1139 b 528 1093 489 1176 560 1131 b 426 997 504 1065 450 1025 b 368 1040 397 965 338 996 b 457 1139 386 1067 439 1113 m 692 896 b 692 792 768 899 767 797 b 211 796 621 792 269 800 b 221 496 213 767 219 572 b 682 506 343 488 565 492 b 717 408 763 511 799 451 b 222 392 543 376 324 392 b 233 75 222 374 229 107 b 738 96 379 68 693 96 b 717 -8 836 88 814 -8 b 553 -14 638 -8 592 -11 b 178 -29 471 -19 425 -29 b 133 10 171 -29 135 -11 b 118 203 117 76 118 124 b 113 374 119 258 113 358 b 103 790 108 528 103 769 l 79 786 b 67 889 3 783 7 872 b 128 896 89 892 110 894 b 692 896 188 904 571 901 "},"ě":{"ha":822,"x_min":0,"x_max":0,"o":"m 514 1147 b 556 1086 544 1176 594 1122 b 425 1004 528 1060 486 1042 b 272 1094 404 985 296 1067 b 325 1146 251 1119 290 1174 b 410 1075 354 1124 375 1100 b 514 1147 435 1096 492 1126 m 692 896 b 692 792 768 899 767 797 b 211 796 621 792 269 800 b 221 496 213 767 219 572 b 682 506 343 488 565 492 b 717 408 763 511 799 451 b 222 392 543 376 324 392 b 233 75 222 374 229 107 b 738 96 379 68 693 96 b 717 -8 836 88 814 -8 b 553 -14 638 -8 592 -11 b 178 -29 471 -19 425 -29 b 133 10 171 -29 135 -11 b 118 203 117 76 118 124 b 113 374 119 258 113 358 b 103 790 108 528 103 769 l 79 786 b 67 889 3 783 7 872 b 128 896 89 892 110 894 b 692 896 188 904 571 901 "},"ê":{"ha":822,"x_min":0,"x_max":0,"o":"m 432 1146 b 563 1058 486 1114 532 1081 b 525 990 601 1029 558 963 b 417 1075 476 1031 442 1054 b 296 1001 382 1050 325 1024 b 247 1049 261 974 213 1010 b 432 1146 271 1075 411 1165 m 692 896 b 692 792 768 899 767 797 b 211 796 621 792 269 800 b 221 496 213 767 219 572 b 682 506 343 488 565 492 b 717 408 763 511 799 451 b 222 392 543 376 324 392 b 233 75 222 374 229 107 b 738 96 379 68 693 96 b 717 -8 836 88 814 -8 b 553 -14 638 -8 592 -11 b 178 -29 471 -19 425 -29 b 133 10 171 -29 135 -11 b 118 203 117 76 118 124 b 113 374 119 258 113 358 b 103 790 108 528 103 769 l 79 786 b 67 889 3 783 7 872 b 128 896 89 892 110 894 b 692 896 188 904 571 901 "},"ë":{"ha":822,"x_min":0,"x_max":0,"o":"m 489 1082 b 563 1056 531 1086 554 1074 b 490 993 575 1031 550 993 b 489 1082 439 993 440 1076 m 349 1083 b 350 990 406 1083 407 990 b 281 1038 324 990 281 1000 b 349 1083 279 1069 299 1083 m 692 896 b 692 792 768 899 767 797 b 211 796 621 792 269 800 b 221 496 213 767 219 572 b 682 506 343 488 565 492 b 717 408 763 511 799 451 b 222 392 543 376 324 392 b 233 75 222 374 229 107 b 738 96 379 68 693 96 b 717 -8 836 88 814 -8 b 553 -14 638 -8 592 -11 b 178 -29 471 -19 425 -29 b 133 10 171 -29 135 -11 b 118 203 117 76 118 124 b 113 374 119 258 113 358 b 103 790 108 528 103 769 l 79 786 b 67 889 3 783 7 872 b 128 896 89 892 110 894 b 692 896 188 904 571 901 "},"ė":{"ha":822,"x_min":0,"x_max":0,"o":"m 410 1114 b 414 1015 511 1111 515 1015 b 358 1057 390 1015 361 1036 b 410 1114 351 1092 376 1114 m 692 896 b 692 792 768 899 767 797 b 211 796 621 792 269 800 b 221 496 213 767 219 572 b 682 506 343 488 565 492 b 717 408 763 511 799 451 b 222 392 543 376 324 392 b 233 75 222 374 229 107 b 738 96 379 68 693 96 b 717 -8 836 88 814 -8 b 553 -14 638 -8 592 -11 b 178 -29 471 -19 425 -29 b 133 10 171 -29 135 -11 b 118 203 117 76 118 124 b 113 374 119 258 113 358 b 103 790 108 528 103 769 l 79 786 b 67 889 3 783 7 872 b 128 896 89 892 110 894 b 692 896 188 904 571 901 "},"è":{"ha":822,"x_min":0,"x_max":0,"o":"m 404 1139 b 481 1040 422 1113 463 1067 b 422 997 511 996 451 965 b 332 1093 399 1025 356 1065 b 404 1139 300 1131 372 1176 m 692 896 b 692 792 768 899 767 797 b 211 796 621 792 269 800 b 221 496 213 767 219 572 b 682 506 343 488 565 492 b 717 408 763 511 799 451 b 222 392 543 376 324 392 b 233 75 222 374 229 107 b 738 96 379 68 693 96 b 717 -8 836 88 814 -8 b 553 -14 638 -8 592 -11 b 178 -29 471 -19 425 -29 b 133 10 171 -29 135 -11 b 118 203 117 76 118 124 b 113 374 119 258 113 358 b 103 790 108 528 103 769 l 79 786 b 67 889 3 783 7 872 b 128 896 89 892 110 894 b 692 896 188 904 571 901 "},"ē":{"ha":822,"x_min":0,"x_max":0,"o":"m 511 1093 b 519 1019 567 1096 579 1022 b 315 1019 467 1017 368 1015 b 314 1093 261 1024 254 1096 b 511 1093 365 1090 460 1090 m 692 896 b 692 792 768 899 767 797 b 211 796 621 792 269 800 b 221 496 213 767 219 572 b 682 506 343 488 565 492 b 717 408 763 511 799 451 b 222 392 543 376 324 392 b 233 75 222 374 229 107 b 738 96 379 68 693 96 b 717 -8 836 88 814 -8 b 553 -14 638 -8 592 -11 b 178 -29 471 -19 425 -29 b 133 10 171 -29 135 -11 b 118 203 117 76 118 124 b 113 374 119 258 113 358 b 103 790 108 528 103 769 l 79 786 b 67 889 3 783 7 872 b 128 896 89 892 110 894 b 692 896 188 904 571 901 "},"ę":{"ha":853,"x_min":0,"x_max":0,"o":"m 788 -147 b 821 -201 819 -118 847 -169 b 669 -189 788 -243 707 -246 b 694 -8 640 -144 653 -65 b 553 -14 628 -8 588 -11 b 178 -29 471 -19 425 -29 b 133 10 171 -29 135 -11 b 118 203 117 76 118 124 b 113 374 119 258 113 358 b 103 790 108 528 103 769 l 79 786 b 67 889 3 783 7 872 b 128 896 89 892 110 894 b 692 896 188 904 571 901 b 692 792 768 899 767 797 b 211 796 621 792 269 800 b 221 496 213 767 219 572 b 682 506 343 488 565 492 b 717 408 763 511 799 451 b 222 392 543 376 324 392 b 233 75 222 374 229 107 b 738 96 379 68 693 96 b 776 8 810 90 817 36 b 761 -21 775 0 771 -10 b 735 -142 731 -57 719 -118 b 788 -147 749 -164 767 -167 "},"f":{"ha":765,"x_min":0,"x_max":0,"o":"m 131 900 b 725 833 251 900 711 953 b 675 747 731 788 707 747 b 597 817 626 747 625 779 b 203 810 565 817 247 810 b 229 478 203 810 229 490 b 624 478 342 478 525 454 b 651 379 717 490 718 400 b 229 374 521 353 318 374 b 226 46 229 294 226 90 b 125 53 219 -31 125 0 b 119 483 125 89 121 417 b 113 800 119 517 110 774 l 76 797 b 49 888 10 792 -7 858 b 131 900 64 896 99 901 "},"g":{"ha":821,"x_min":0,"x_max":0,"o":"m 376 901 b 754 681 556 908 746 858 b 653 672 756 650 663 618 b 378 796 629 796 442 803 b 210 700 300 793 247 747 b 149 361 124 592 133 471 b 565 118 185 89 369 35 b 665 272 617 143 665 192 b 668 397 665 292 669 378 b 463 397 614 396 488 397 b 450 497 408 397 399 497 b 701 503 485 497 657 499 b 771 443 731 506 775 490 b 769 308 771 375 769 351 b 613 28 769 169 729 81 b 40 369 336 -87 89 10 b 138 778 31 483 25 650 b 376 901 203 849 279 899 "},"ğ":{"ha":821,"x_min":0,"x_max":0,"o":"m 490 1124 b 538 1079 524 1158 561 1115 b 403 1006 510 1038 464 1006 b 268 1079 342 1006 296 1038 b 315 1124 244 1115 282 1158 b 403 1078 342 1097 357 1078 b 490 1124 449 1078 464 1097 m 376 901 b 754 681 556 908 746 858 b 653 672 756 650 663 618 b 378 796 629 796 442 803 b 210 700 300 793 247 747 b 149 361 124 592 133 471 b 565 118 185 89 369 35 b 665 272 617 143 665 192 b 668 397 665 292 669 378 b 463 397 614 396 488 397 b 450 497 408 397 399 497 b 701 503 485 497 657 499 b 771 443 731 506 775 490 b 769 308 771 375 769 351 b 613 28 769 169 729 81 b 40 369 336 -87 89 10 b 138 778 31 483 25 650 b 376 901 203 849 279 899 "},"ģ":{"ha":821,"x_min":0,"x_max":0,"o":"m 524 1117 b 483 1010 510 1069 504 1050 b 393 1015 456 961 378 946 b 425 1128 401 1047 418 1107 b 524 1117 444 1174 538 1163 m 376 901 b 754 681 556 908 746 858 b 653 672 756 650 663 618 b 378 796 629 796 442 803 b 210 700 300 793 247 747 b 149 361 124 592 133 471 b 565 118 185 89 369 35 b 665 272 617 143 665 192 b 668 397 665 292 669 378 b 463 397 614 396 488 397 b 450 497 408 397 399 497 b 701 503 485 497 657 499 b 771 443 731 506 775 490 b 769 308 771 375 769 351 b 613 28 769 169 729 81 b 40 369 336 -87 89 10 b 138 778 31 483 25 650 b 376 901 203 849 279 899 "},"ġ":{"ha":821,"x_min":0,"x_max":0,"o":"m 403 1114 b 407 1015 504 1111 508 1015 b 351 1057 383 1015 354 1036 b 403 1114 344 1092 369 1114 m 376 901 b 754 681 556 908 746 858 b 653 672 756 650 663 618 b 378 796 629 796 442 803 b 210 700 300 793 247 747 b 149 361 124 592 133 471 b 565 118 185 89 369 35 b 665 272 617 143 665 192 b 668 397 665 292 669 378 b 463 397 614 396 488 397 b 450 497 408 397 399 497 b 701 503 485 497 657 499 b 771 443 731 506 775 490 b 769 308 771 375 769 351 b 613 28 769 169 729 81 b 40 369 336 -87 89 10 b 138 778 31 483 25 650 b 376 901 203 849 279 899 "},"h":{"ha":826,"x_min":0,"x_max":0,"o":"m 686 868 b 697 474 686 690 690 571 b 757 471 721 469 732 471 b 756 371 796 471 783 372 b 707 374 731 369 721 371 b 735 58 710 329 731 125 b 629 49 740 -15 635 -24 b 599 382 625 115 603 332 b 239 390 533 386 328 385 l 244 229 b 247 32 247 122 247 89 b 139 22 247 -15 139 -35 b 139 233 139 61 142 196 b 126 399 133 293 131 339 b 83 401 114 400 100 401 b 71 497 14 401 21 478 b 121 497 92 500 107 499 b 110 843 117 578 115 683 b 221 853 124 924 218 917 b 232 494 224 731 226 613 b 592 482 303 492 539 485 b 581 861 576 638 581 726 b 686 868 581 924 686 938 "},"ħ":{"ha":1060,"x_min":0,"x_max":0,"o":"m 840 849 b 840 729 840 803 838 774 b 926 735 886 731 896 733 b 924 647 974 736 963 647 b 843 642 890 646 876 643 b 883 85 847 539 856 456 b 779 78 882 53 781 40 b 761 354 776 161 771 269 b 306 351 649 354 446 339 b 308 50 313 232 308 94 b 204 43 308 19 204 4 b 192 424 204 226 192 251 b 182 647 192 497 183 589 l 89 651 b 106 740 46 654 72 740 l 179 738 b 178 826 179 753 178 799 b 285 836 178 858 281 875 b 286 735 286 799 286 769 b 733 731 354 738 690 731 b 735 844 733 794 733 819 b 840 849 738 876 840 889 m 286 644 b 294 453 286 599 289 553 b 751 454 397 447 521 449 b 738 640 743 526 742 575 "},"i":{"ha":578,"x_min":0,"x_max":0,"o":"m 421 913 b 514 835 471 913 513 888 b 422 808 514 778 453 764 b 319 821 404 835 365 821 b 326 426 319 628 319 522 b 335 104 333 321 335 253 b 507 104 385 100 457 97 b 497 4 556 107 549 11 b 93 4 424 -6 283 11 b 97 106 53 0 60 104 b 226 106 139 108 193 106 b 219 425 229 158 226 304 b 208 814 215 518 214 621 b 72 806 176 814 168 813 b 76 903 14 806 40 900 b 421 913 268 911 163 913 "},"ı":{"ha":578,"x_min":0,"x_max":0,"o":"m 421 911 b 514 833 471 911 513 886 b 422 807 514 776 453 763 b 319 819 404 833 365 819 b 326 426 319 626 319 522 b 335 104 333 321 335 253 b 507 104 385 100 457 97 b 497 4 556 107 549 11 b 93 4 424 -6 283 11 b 97 106 53 0 60 104 b 226 106 139 108 193 106 b 219 425 229 158 226 304 b 208 813 215 518 214 619 b 72 804 176 813 168 811 b 76 901 14 804 40 899 b 421 911 268 910 163 911 "},"í":{"ha":578,"x_min":0,"x_max":0,"o":"m 297 1135 b 368 1089 329 1172 400 1126 b 267 993 344 1061 290 1021 b 208 1036 238 961 178 992 b 297 1135 226 1063 279 1108 m 421 911 b 514 833 471 911 513 886 b 422 807 514 776 453 763 b 319 819 404 833 365 819 b 326 426 319 626 319 522 b 335 104 333 321 335 253 b 507 104 385 100 457 97 b 497 4 556 107 549 11 b 93 4 424 -6 283 11 b 97 106 53 0 60 104 b 226 106 139 108 193 106 b 219 425 229 158 226 304 b 208 813 215 518 214 619 b 72 804 176 813 168 811 b 76 901 14 804 40 899 b 421 911 268 910 163 911 "},"î":{"ha":578,"x_min":0,"x_max":0,"o":"m 272 1142 b 403 1054 326 1110 372 1076 b 365 986 442 1025 399 958 b 257 1071 317 1026 282 1050 b 136 997 222 1046 165 1019 b 88 1044 101 969 53 1006 b 272 1142 111 1071 251 1161 m 421 911 b 514 833 471 911 513 886 b 422 807 514 776 453 763 b 319 819 404 833 365 819 b 326 426 319 626 319 522 b 335 104 333 321 335 253 b 507 104 385 100 457 97 b 497 4 556 107 549 11 b 93 4 424 -6 283 11 b 97 106 53 0 60 104 b 226 106 139 108 193 106 b 219 425 229 158 226 304 b 208 813 215 518 214 619 b 72 804 176 813 168 811 b 76 901 14 804 40 899 b 421 911 268 910 163 911 "},"ï":{"ha":578,"x_min":0,"x_max":0,"o":"m 329 1078 b 403 1051 371 1082 394 1069 b 331 989 415 1026 390 989 b 329 1078 279 989 281 1072 m 189 1079 b 190 986 246 1079 247 986 b 121 1033 164 986 121 996 b 189 1079 119 1065 139 1079 m 421 911 b 514 833 471 911 513 886 b 422 807 514 776 453 763 b 319 819 404 833 365 819 b 326 426 319 626 319 522 b 335 104 333 321 335 253 b 507 104 385 100 457 97 b 497 4 556 107 549 11 b 93 4 424 -6 283 11 b 97 106 53 0 60 104 b 226 106 139 108 193 106 b 219 425 229 158 226 304 b 208 813 215 518 214 619 b 72 804 176 813 168 811 b 76 901 14 804 40 899 b 421 911 268 910 163 911 "},"ì":{"ha":578,"x_min":0,"x_max":0,"o":"m 244 1135 b 321 1036 263 1108 303 1063 b 263 993 351 992 292 961 b 172 1089 239 1021 196 1061 b 244 1135 140 1126 213 1172 m 421 911 b 514 833 471 911 513 886 b 422 807 514 776 453 763 b 319 819 404 833 365 819 b 326 426 319 626 319 522 b 335 104 333 321 335 253 b 507 104 385 100 457 97 b 497 4 556 107 549 11 b 93 4 424 -6 283 11 b 97 106 53 0 60 104 b 226 106 139 108 193 106 b 219 425 229 158 226 304 b 208 813 215 518 214 619 b 72 804 176 813 168 811 b 76 901 14 804 40 899 b 421 911 268 910 163 911 "},"ĳ":{"ha":1161,"x_min":0,"x_max":0,"o":"m 421 913 b 514 835 471 913 513 888 b 422 808 514 778 453 764 b 319 821 404 835 365 821 b 326 426 319 628 319 522 b 335 104 333 321 335 253 b 507 104 385 100 457 97 b 497 4 556 107 549 11 b 93 4 424 -6 283 11 b 97 106 53 0 60 104 b 226 106 139 108 193 106 b 219 425 229 158 226 304 b 208 814 215 518 214 621 b 72 806 176 814 168 813 b 76 903 14 806 40 900 b 421 913 268 911 163 913 m 1044 894 b 1088 818 1094 889 1104 846 b 1104 404 1090 686 1099 521 b 1049 133 1111 322 1101 213 b 796 0 982 44 947 7 b 549 322 581 29 558 118 b 656 319 547 357 654 354 b 800 106 664 196 678 119 b 947 175 846 103 903 114 b 996 526 1029 281 996 453 b 992 649 996 553 992 635 b 985 792 988 711 986 729 b 686 788 908 800 826 774 b 689 886 631 792 635 892 b 1044 894 775 876 1024 894 "},"ī":{"ha":578,"x_min":0,"x_max":0,"o":"m 351 1089 b 360 1015 407 1092 419 1018 b 156 1015 307 1013 208 1011 b 154 1089 101 1019 94 1092 b 351 1089 206 1086 300 1086 m 421 911 b 514 833 471 911 513 886 b 422 807 514 776 453 763 b 319 819 404 833 365 819 b 326 426 319 626 319 522 b 335 104 333 321 335 253 b 507 104 385 100 457 97 b 497 4 556 107 549 11 b 93 4 424 -6 283 11 b 97 106 53 0 60 104 b 226 106 139 108 193 106 b 219 425 229 158 226 304 b 208 813 215 518 214 619 b 72 804 176 813 168 811 b 76 901 14 804 40 899 b 421 911 268 910 163 911 "},"į":{"ha":607,"x_min":0,"x_max":0,"o":"m 525 -149 b 558 -203 557 -119 585 -171 b 407 -190 525 -244 444 -247 b 440 1 376 -143 392 -56 b 93 4 360 0 242 10 b 97 106 53 0 60 104 b 226 106 139 108 193 106 b 219 425 229 158 226 304 b 208 813 215 518 214 619 b 72 804 176 813 168 811 b 76 901 14 804 40 899 b 421 911 268 910 163 911 b 514 833 471 911 513 886 b 422 807 514 776 453 763 b 319 819 404 833 365 819 b 326 426 319 626 319 522 b 335 104 333 321 335 253 b 507 104 385 100 457 97 b 515 11 549 107 550 35 b 499 -22 514 1 510 -10 b 472 -143 468 -58 457 -119 b 525 -149 486 -165 504 -168 "},"j":{"ha":656,"x_min":0,"x_max":0,"o":"m 539 894 b 582 818 589 889 599 846 b 599 404 585 686 593 521 b 543 133 606 322 596 213 b 290 0 476 44 442 7 b 43 322 75 29 53 118 b 150 319 42 357 149 354 b 294 106 158 196 172 119 b 442 175 340 103 397 114 b 490 526 524 281 490 453 b 486 649 490 553 486 635 b 479 792 482 711 481 729 b 181 788 403 800 321 774 b 183 886 125 792 129 892 b 539 894 269 876 518 894 "},"k":{"ha":686,"x_min":0,"x_max":0,"o":"m 147 869 b 174 474 165 721 176 544 b 369 546 239 483 310 504 b 511 860 442 596 486 729 b 621 860 519 904 633 929 b 461 497 589 683 550 569 b 382 443 439 479 414 461 b 644 74 460 315 569 235 b 551 26 668 4 568 -25 b 283 401 513 146 340 308 b 172 378 250 390 217 386 b 165 54 172 297 165 118 b 60 44 165 7 60 -32 b 43 836 60 232 86 568 b 147 869 46 890 139 939 "},"ķ":{"ha":686,"x_min":0,"x_max":0,"o":"m 147 869 b 174 474 165 721 176 544 b 369 546 239 483 310 504 b 511 860 442 596 486 729 b 621 860 519 904 633 929 b 461 497 589 683 550 569 b 382 443 439 479 414 461 b 644 74 460 315 569 235 b 551 26 668 4 568 -25 b 283 401 513 146 340 308 b 172 378 250 390 217 386 b 165 54 172 297 165 118 b 60 44 165 7 60 -32 b 43 836 60 232 86 568 b 147 869 46 890 139 939 m 351 -153 b 324 -279 342 -210 336 -233 b 254 -254 306 -346 240 -337 b 269 -151 261 -210 267 -182 b 351 -153 275 -86 363 -90 "},"l":{"ha":664,"x_min":0,"x_max":0,"o":"m 142 856 b 176 96 136 481 190 374 b 557 89 329 113 524 86 b 549 204 557 89 543 174 b 650 207 557 251 649 276 b 649 44 647 178 654 83 b 585 -4 640 14 607 -4 b 124 -4 554 -4 257 13 b 67 65 65 -8 65 39 b 36 854 81 368 31 479 b 142 856 36 928 142 928 "},"ĺ":{"ha":668,"x_min":0,"x_max":0,"o":"m 133 1138 b 204 1092 165 1175 236 1129 b 103 996 181 1064 126 1024 b 44 1039 74 964 14 994 b 133 1138 63 1065 115 1111 m 146 856 b 181 96 140 481 194 374 b 561 89 333 113 528 86 b 553 204 561 89 547 174 b 654 207 561 251 653 276 b 653 44 651 178 658 83 b 589 -4 644 14 611 -4 b 128 -4 558 -4 261 13 b 71 65 69 -8 69 39 b 40 854 85 368 35 479 b 146 856 40 928 146 928 "},"ľ":{"ha":664,"x_min":0,"x_max":0,"o":"m 142 856 b 176 96 136 481 190 374 b 557 89 329 113 524 86 b 549 204 557 89 543 174 b 650 207 557 251 649 276 b 649 44 647 178 654 83 b 585 -4 640 14 607 -4 b 124 -4 554 -4 257 13 b 67 65 65 -8 65 39 b 36 854 81 368 31 479 b 142 856 36 928 142 928 m 585 874 b 546 758 576 843 554 789 b 472 761 538 735 471 731 b 494 879 475 786 492 872 b 585 874 507 918 596 918 "},"ļ":{"ha":664,"x_min":0,"x_max":0,"o":"m 142 856 b 176 96 136 481 190 374 b 557 89 329 113 524 86 b 549 204 557 89 543 174 b 650 207 557 251 649 276 b 649 44 647 178 654 83 b 585 -4 640 14 607 -4 b 124 -4 554 -4 257 13 b 67 65 65 -8 65 39 b 36 854 81 368 31 479 b 142 856 36 928 142 928 m 381 -128 b 353 -254 371 -185 365 -208 b 283 -229 335 -321 269 -312 b 299 -126 290 -185 296 -157 b 381 -128 304 -61 392 -65 "},"ŀ":{"ha":664,"x_min":0,"x_max":0,"o":"m 142 856 b 176 96 136 481 190 374 b 557 89 329 113 524 86 b 549 204 557 89 543 174 b 650 207 557 251 649 276 b 649 44 647 178 654 83 b 585 -4 640 14 607 -4 b 124 -4 554 -4 257 13 b 67 65 65 -8 65 39 b 36 854 81 368 31 479 b 142 856 36 928 142 928 m 363 551 b 418 475 410 550 419 508 b 356 422 418 440 382 422 b 363 551 286 428 292 557 "},"ł":{"ha":768,"x_min":0,"x_max":0,"o":"m 182 850 b 200 529 181 731 190 653 b 290 582 225 542 271 572 b 325 494 346 604 363 519 b 208 426 296 475 247 444 b 219 103 215 321 222 153 b 663 89 333 107 625 86 b 660 219 663 89 651 157 b 754 222 667 250 758 256 b 750 43 750 179 761 104 b 685 -1 742 15 710 -1 b 164 -1 656 -1 301 17 b 111 71 124 -1 111 43 b 107 390 117 175 111 269 b 71 369 101 388 92 379 b 21 440 38 343 -21 410 b 99 481 36 450 76 471 b 78 849 86 646 78 708 b 182 850 78 925 182 928 "},"m":{"ha":1121,"x_min":0,"x_max":0,"o":"m 363 861 b 474 465 385 789 457 594 b 554 210 482 400 521 300 b 644 457 590 297 621 376 b 786 865 703 661 744 776 b 889 858 810 910 882 908 b 963 433 919 714 913 643 b 1092 71 985 343 1054 140 b 990 17 1117 -1 1013 -39 b 861 406 950 93 885 317 b 817 653 847 454 831 574 b 722 343 754 464 735 383 b 594 47 681 228 639 128 b 493 83 550 -26 519 19 b 375 435 449 196 400 321 b 311 681 349 551 326 629 b 144 40 299 613 208 175 b 43 71 114 -26 21 -8 b 254 846 153 308 160 614 b 363 861 275 908 347 922 "},"n":{"ha":793,"x_min":0,"x_max":0,"o":"m 149 893 b 388 531 228 797 349 582 b 640 186 450 422 586 257 b 621 376 638 243 625 324 l 600 856 b 706 846 594 931 703 915 b 726 383 719 549 724 418 b 735 50 732 307 729 124 b 647 10 733 -3 681 -21 b 325 444 565 117 433 283 b 158 710 301 479 240 589 b 164 33 158 486 185 282 b 58 53 140 -35 54 6 b 64 868 88 392 43 550 b 149 893 65 914 117 919 "},"ń":{"ha":793,"x_min":0,"x_max":0,"o":"m 431 1079 b 501 1033 463 1117 533 1071 b 400 938 478 1006 424 965 b 342 981 371 906 311 936 b 431 1079 360 1007 413 1053 m 149 893 b 388 531 228 797 349 582 b 640 186 450 422 586 257 b 621 376 638 243 625 324 l 600 856 b 706 846 594 931 703 915 b 726 383 719 549 724 418 b 735 50 732 307 729 124 b 647 10 733 -3 681 -21 b 325 444 565 117 433 283 b 158 710 301 479 240 589 b 164 33 158 486 185 282 b 58 53 140 -35 54 6 b 64 868 88 392 43 550 b 149 893 65 914 117 919 "},"ň":{"ha":793,"x_min":0,"x_max":0,"o":"m 488 1088 b 529 1026 518 1117 568 1063 b 399 944 501 1000 460 982 b 246 1035 378 925 269 1007 b 299 1086 225 1060 264 1114 b 383 1015 328 1064 349 1040 b 488 1088 408 1036 465 1067 m 149 893 b 388 531 228 797 349 582 b 640 186 450 422 586 257 b 621 376 638 243 625 324 l 600 856 b 706 846 594 931 703 915 b 726 383 719 549 724 418 b 735 50 732 307 729 124 b 647 10 733 -3 681 -21 b 325 444 565 117 433 283 b 158 710 301 479 240 589 b 164 33 158 486 185 282 b 58 53 140 -35 54 6 b 64 868 88 392 43 550 b 149 893 65 914 117 919 "},"ņ":{"ha":793,"x_min":0,"x_max":0,"o":"m 149 893 b 388 531 228 797 349 582 b 640 186 450 422 586 257 b 621 376 638 243 625 324 l 600 856 b 706 846 594 931 703 915 b 726 383 719 549 724 418 b 735 50 732 307 729 124 b 647 10 733 -3 681 -21 b 325 444 565 117 433 283 b 158 710 301 479 240 589 b 164 33 158 486 185 282 b 58 53 140 -35 54 6 b 64 868 88 392 43 550 b 149 893 65 914 117 919 m 443 -128 b 415 -254 433 -185 428 -208 b 346 -229 397 -321 332 -312 b 361 -126 353 -185 358 -157 b 443 -128 367 -61 454 -65 "},"ŋ":{"ha":797,"x_min":0,"x_max":0,"o":"m 149 886 b 378 526 214 808 314 622 b 643 172 450 419 565 263 b 621 404 640 229 625 349 b 600 842 614 499 603 783 b 706 832 596 904 704 879 b 728 383 719 621 725 499 b 742 53 731 293 740 174 b 449 -443 742 -194 699 -443 b 221 -122 268 -443 232 -296 b 329 -126 222 -68 329 -74 b 454 -337 329 -174 326 -336 b 631 32 596 -339 631 -200 b 286 481 504 182 383 328 b 158 703 257 526 233 572 b 164 33 158 518 182 249 b 58 53 147 -31 54 8 b 64 861 83 331 47 621 b 149 886 65 907 117 913 "},"ñ":{"ha":793,"x_min":0,"x_max":0,"o":"m 339 1047 b 433 1001 364 1042 413 1007 b 488 1025 475 990 482 1017 b 539 992 500 1043 549 1032 b 461 932 533 971 499 932 b 353 971 418 932 376 960 b 301 960 335 979 311 981 b 239 994 288 931 229 944 b 339 1047 247 1038 296 1056 m 149 893 b 388 531 228 797 349 582 b 640 186 450 422 586 257 b 621 376 638 243 625 324 l 600 856 b 706 846 594 931 703 915 b 726 383 719 549 724 418 b 735 50 732 307 729 124 b 647 10 733 -3 681 -21 b 325 444 565 117 433 283 b 158 710 301 479 240 589 b 164 33 158 486 185 282 b 58 53 140 -35 54 6 b 64 868 88 392 43 550 b 149 893 65 914 117 919 "},"o":{"ha":781,"x_min":0,"x_max":0,"o":"m 431 906 b 747 399 654 821 747 664 b 567 50 747 300 681 149 b 236 36 475 -29 332 -24 b 36 375 122 106 44 235 b 133 751 28 485 35 611 b 325 885 190 832 267 861 b 431 906 338 922 396 917 m 406 810 b 222 701 346 799 271 757 b 140 407 158 621 140 518 b 265 131 140 288 196 188 b 515 135 332 74 451 72 b 639 469 621 242 656 367 b 406 810 618 658 518 775 "},"ó":{"ha":781,"x_min":0,"x_max":0,"o":"m 439 1126 b 510 1081 471 1164 542 1118 b 408 985 486 1053 432 1013 b 350 1028 379 953 319 983 b 439 1126 368 1054 421 1100 m 431 906 b 747 399 654 821 747 664 b 567 50 747 300 681 149 b 236 36 475 -29 332 -24 b 36 375 122 106 44 235 b 133 751 28 485 35 611 b 325 885 190 832 267 861 b 431 906 338 922 396 917 m 406 810 b 222 701 346 799 271 757 b 140 407 158 621 140 518 b 265 131 140 288 196 188 b 515 135 332 74 451 72 b 639 469 621 242 656 367 b 406 810 618 658 518 775 "},"ô":{"ha":781,"x_min":0,"x_max":0,"o":"m 414 1133 b 544 1046 468 1101 514 1068 b 507 978 583 1017 540 950 b 399 1063 458 1018 424 1042 b 278 989 364 1038 307 1011 b 229 1036 243 961 194 997 b 414 1133 253 1063 393 1153 m 431 906 b 747 399 654 821 747 664 b 567 50 747 300 681 149 b 236 36 475 -29 332 -24 b 36 375 122 106 44 235 b 133 751 28 485 35 611 b 325 885 190 832 267 861 b 431 906 338 922 396 917 m 406 810 b 222 701 346 799 271 757 b 140 407 158 621 140 518 b 265 131 140 288 196 188 b 515 135 332 74 451 72 b 639 469 621 242 656 367 b 406 810 618 658 518 775 "},"ö":{"ha":781,"x_min":0,"x_max":0,"o":"m 471 1069 b 544 1043 513 1074 536 1061 b 472 981 557 1018 532 981 b 471 1069 421 981 422 1064 m 331 1071 b 332 978 388 1071 389 978 b 263 1025 306 978 263 988 b 331 1071 261 1057 281 1071 m 431 906 b 747 399 654 821 747 664 b 567 50 747 300 681 149 b 236 36 475 -29 332 -24 b 36 375 122 106 44 235 b 133 751 28 485 35 611 b 325 885 190 832 267 861 b 431 906 338 922 396 917 m 406 810 b 222 701 346 799 271 757 b 140 407 158 621 140 518 b 265 131 140 288 196 188 b 515 135 332 74 451 72 b 639 469 621 242 656 367 b 406 810 618 658 518 775 "},"ò":{"ha":781,"x_min":0,"x_max":0,"o":"m 386 1126 b 463 1028 404 1100 444 1054 b 404 985 493 983 433 953 b 314 1081 381 1013 338 1053 b 386 1126 282 1118 354 1164 m 431 906 b 747 399 654 821 747 664 b 567 50 747 300 681 149 b 236 36 475 -29 332 -24 b 36 375 122 106 44 235 b 133 751 28 485 35 611 b 325 885 190 832 267 861 b 431 906 338 922 396 917 m 406 810 b 222 701 346 799 271 757 b 140 407 158 621 140 518 b 265 131 140 288 196 188 b 515 135 332 74 451 72 b 639 469 621 242 656 367 b 406 810 618 658 518 775 "},"ő":{"ha":781,"x_min":0,"x_max":0,"o":"m 331 1119 b 410 1093 353 1163 433 1136 l 360 994 b 293 1022 340 957 274 972 b 331 1119 304 1053 319 1089 m 463 1117 b 543 1090 485 1161 565 1135 l 492 993 b 425 1019 472 954 407 969 b 463 1117 436 1051 451 1088 m 431 906 b 747 399 654 821 747 664 b 567 50 747 300 681 149 b 236 36 475 -29 332 -24 b 36 375 122 106 44 235 b 133 751 28 485 35 611 b 325 885 190 832 267 861 b 431 906 338 922 396 917 m 406 810 b 222 701 346 799 271 757 b 140 407 158 621 140 518 b 265 131 140 288 196 188 b 515 135 332 74 451 72 b 639 469 621 242 656 367 b 406 810 618 658 518 775 "},"ō":{"ha":781,"x_min":0,"x_max":0,"o":"m 493 1081 b 501 1007 549 1083 561 1010 b 297 1007 449 1004 350 1003 b 296 1081 243 1011 236 1083 b 493 1081 347 1078 442 1078 m 431 906 b 747 399 654 821 747 664 b 567 50 747 300 681 149 b 236 36 475 -29 332 -24 b 36 375 122 106 44 235 b 133 751 28 485 35 611 b 325 885 190 832 267 861 b 431 906 338 922 396 917 m 406 810 b 222 701 346 799 271 757 b 140 407 158 621 140 518 b 265 131 140 288 196 188 b 515 135 332 74 451 72 b 639 469 621 242 656 367 b 406 810 618 658 518 775 "},"ø":{"ha":793,"x_min":0,"x_max":0,"o":"m 636 785 b 760 399 722 694 760 568 b 579 36 760 286 693 135 b 249 22 488 -43 344 -37 b 189 67 228 35 208 50 b 118 -31 164 31 140 -3 b 39 35 90 -62 11 3 b 121 147 64 67 92 104 b 49 375 79 211 54 289 b 146 751 40 485 47 611 b 338 885 203 832 279 861 b 443 906 350 922 408 917 b 557 850 486 889 524 871 b 610 931 575 879 593 907 b 692 869 635 965 715 904 m 153 407 b 185 244 153 344 165 290 b 504 765 290 408 407 608 b 418 810 476 786 449 800 b 235 701 358 799 283 757 b 153 407 171 621 153 518 m 528 121 b 651 469 633 228 668 367 b 576 689 642 558 614 632 b 244 150 475 524 351 314 b 278 117 256 138 267 126 b 528 121 344 60 464 58 "},"õ":{"ha":781,"x_min":0,"x_max":0,"o":"m 347 1094 b 442 1049 372 1089 421 1054 b 496 1072 483 1038 490 1064 b 547 1039 508 1090 557 1079 b 469 979 542 1018 507 979 b 361 1018 426 979 385 1007 b 310 1007 343 1026 319 1028 b 247 1042 296 978 238 992 b 347 1094 256 1085 304 1103 m 431 906 b 747 399 654 821 747 664 b 567 50 747 300 681 149 b 236 36 475 -29 332 -24 b 36 375 122 106 44 235 b 133 751 28 485 35 611 b 325 885 190 832 267 861 b 431 906 338 922 396 917 m 406 810 b 222 701 346 799 271 757 b 140 407 158 621 140 518 b 265 131 140 288 196 188 b 515 135 332 74 451 72 b 639 469 621 242 656 367 b 406 810 618 658 518 775 "},"œ":{"ha":1383,"x_min":0,"x_max":0,"o":"m 472 914 b 672 775 572 882 656 813 b 669 843 669 793 669 828 b 738 901 671 876 685 899 b 1256 900 832 908 1113 904 b 1254 797 1332 903 1329 800 b 785 801 1235 797 853 806 b 794 507 785 683 792 613 b 1242 518 910 501 1132 499 b 1278 422 1321 522 1360 464 b 799 406 1092 388 903 406 b 807 101 799 247 800 165 b 1299 122 960 93 1264 121 b 1279 21 1396 128 1375 21 b 769 0 1263 21 1014 0 b 707 51 746 0 710 22 b 703 104 704 65 703 90 b 425 -6 636 46 535 0 b 139 149 290 -10 200 72 b 38 415 82 224 47 229 b 113 728 28 526 25 603 b 360 885 174 810 282 858 b 472 914 378 929 429 928 m 454 813 b 203 676 388 800 257 738 b 147 467 147 608 146 550 b 231 206 147 338 151 308 b 422 96 279 146 343 96 b 693 260 529 96 664 172 b 685 569 693 293 692 285 b 454 813 656 676 558 785 "},"p":{"ha":808,"x_min":0,"x_max":0,"o":"m 488 903 b 767 618 650 894 771 807 b 547 311 754 460 675 356 b 239 285 446 276 293 282 b 258 64 242 203 247 124 b 161 46 269 -15 175 -18 b 138 282 149 110 140 189 b 78 290 114 283 90 286 b 81 388 19 303 11 361 b 136 388 94 390 119 389 b 129 731 136 417 129 694 b 83 713 117 724 97 718 b 40 796 22 694 -10 771 b 488 903 185 863 353 908 m 503 800 b 226 764 428 811 332 797 b 235 376 228 731 236 414 b 510 401 299 372 425 372 b 653 636 594 436 651 518 b 503 800 654 749 589 788 "},"þ":{"ha":811,"x_min":0,"x_max":0,"o":"m 208 833 b 108 811 199 892 100 872 b 121 711 117 778 119 740 b 29 668 92 700 60 685 b 81 572 -11 644 42 554 l 118 592 b 124 286 118 554 124 364 b 69 290 100 286 93 293 b 67 188 0 282 11 214 b 125 178 79 182 101 179 b 136 47 126 140 126 101 b 236 63 151 -35 244 4 b 231 174 229 108 231 135 b 550 204 331 169 432 164 b 769 478 674 250 764 350 b 450 771 779 678 626 761 b 221 746 399 776 304 769 b 208 833 219 779 217 800 m 219 635 b 465 658 313 664 394 667 b 651 494 569 644 651 594 b 506 304 651 415 586 339 b 228 279 357 260 285 279 b 219 635 228 353 229 533 "},"q":{"ha":778,"x_min":0,"x_max":0,"o":"m 432 888 b 744 399 681 804 744 628 b 626 94 744 263 706 165 l 647 61 b 575 1 683 4 611 -49 b 547 46 567 17 557 33 b 386 10 503 29 442 10 b 35 453 129 10 21 293 b 322 860 54 674 104 789 b 432 888 321 903 392 911 m 414 792 b 142 432 186 725 142 643 b 385 113 142 251 260 119 b 482 129 411 111 454 113 b 440 190 465 150 450 174 b 518 235 417 250 482 283 b 561 174 528 219 544 194 b 632 286 594 204 624 247 b 414 792 664 436 644 735 "},"r":{"ha":875,"x_min":0,"x_max":0,"o":"m 201 906 b 561 850 313 913 429 910 b 738 583 656 811 747 715 b 433 399 718 440 565 386 b 790 101 504 333 664 103 b 774 4 854 101 832 4 b 285 386 574 -3 419 294 b 221 406 265 394 246 401 b 233 43 224 292 231 156 b 131 51 229 -17 131 -11 b 114 794 117 381 110 617 b 72 785 97 790 82 786 b 49 875 15 774 4 857 b 201 906 83 889 125 903 m 228 806 b 226 508 222 726 222 636 b 624 582 378 461 601 460 b 525 750 635 644 599 717 b 228 806 426 793 301 813 "},"ŕ":{"ha":875,"x_min":0,"x_max":0,"o":"m 379 1082 b 450 1036 411 1119 482 1074 b 349 940 426 1008 372 968 b 290 983 319 908 260 939 b 379 1082 308 1010 361 1056 m 201 906 b 561 850 313 913 429 910 b 738 583 656 811 747 715 b 433 399 718 440 565 386 b 790 101 504 333 664 103 b 774 4 854 101 832 4 b 285 386 574 -3 419 294 b 221 406 265 394 246 401 b 233 43 224 292 231 156 b 131 51 229 -17 131 -11 b 114 794 117 381 110 617 b 72 785 97 790 82 786 b 49 875 15 774 4 857 b 201 906 83 889 125 903 m 228 806 b 226 508 222 726 222 636 b 624 582 378 461 601 460 b 525 750 635 644 599 717 b 228 806 426 793 301 813 "},"ř":{"ha":875,"x_min":0,"x_max":0,"o":"m 436 1090 b 478 1029 467 1119 517 1065 b 347 947 450 1003 408 985 b 194 1038 326 928 218 1010 b 247 1089 174 1063 213 1117 b 332 1018 276 1067 297 1043 b 436 1090 357 1039 414 1069 m 201 906 b 561 850 313 913 429 910 b 738 583 656 811 747 715 b 433 399 718 440 565 386 b 790 101 504 333 664 103 b 774 4 854 101 832 4 b 285 386 574 -3 419 294 b 221 406 265 394 246 401 b 233 43 224 292 231 156 b 131 51 229 -17 131 -11 b 114 794 117 381 110 617 b 72 785 97 790 82 786 b 49 875 15 774 4 857 b 201 906 83 889 125 903 m 228 806 b 226 508 222 726 222 636 b 624 582 378 461 601 460 b 525 750 635 644 599 717 b 228 806 426 793 301 813 "},"ŗ":{"ha":875,"x_min":0,"x_max":0,"o":"m 201 906 b 561 850 313 913 429 910 b 738 583 656 811 747 715 b 433 399 718 440 565 386 b 790 101 504 333 664 103 b 774 4 854 101 832 4 b 285 386 574 -3 419 294 b 221 406 265 394 246 401 b 233 43 224 292 231 156 b 131 51 229 -17 131 -11 b 114 794 117 381 110 617 b 72 785 97 790 82 786 b 49 875 15 774 4 857 b 201 906 83 889 125 903 m 228 806 b 226 508 222 726 222 636 b 624 582 378 461 601 460 b 525 750 635 644 599 717 b 228 806 426 793 301 813 m 458 -128 b 431 -254 449 -185 443 -208 b 361 -229 413 -321 347 -312 b 376 -126 368 -185 374 -157 b 458 -128 382 -61 469 -65 "},"s":{"ha":729,"x_min":0,"x_max":0,"o":"m 614 888 b 628 615 624 804 611 711 b 540 624 640 571 538 569 b 418 788 532 696 471 763 b 258 793 365 814 297 828 b 289 603 222 753 217 663 b 458 494 343 557 406 524 b 664 268 549 443 635 378 b 426 0 700 125 608 4 b 104 147 317 -3 190 28 b 44 324 74 193 47 269 b 147 339 42 382 144 396 b 201 192 150 289 165 243 b 403 96 243 138 332 96 b 563 236 493 96 575 139 b 208 539 529 376 310 444 b 178 857 88 650 113 792 b 528 801 268 944 458 892 b 515 874 532 825 521 856 b 614 888 504 908 599 925 "},"ś":{"ha":729,"x_min":0,"x_max":0,"o":"m 401 1089 b 472 1043 433 1126 504 1081 b 371 947 449 1015 394 975 b 313 990 342 915 282 946 b 401 1089 331 1017 383 1063 m 614 888 b 628 615 624 804 611 711 b 540 624 640 571 538 569 b 418 788 532 696 471 763 b 258 793 365 814 297 828 b 289 603 222 753 217 663 b 458 494 343 557 406 524 b 664 268 549 443 635 378 b 426 0 700 125 608 4 b 104 147 317 -3 190 28 b 44 324 74 193 47 269 b 147 339 42 382 144 396 b 201 192 150 289 165 243 b 403 96 243 138 332 96 b 563 236 493 96 575 139 b 208 539 529 376 310 444 b 178 857 88 650 113 792 b 528 801 268 944 458 892 b 515 874 532 825 521 856 b 614 888 504 908 599 925 "},"š":{"ha":729,"x_min":0,"x_max":0,"o":"m 458 1097 b 500 1036 489 1126 539 1072 b 369 954 472 1010 431 992 b 217 1044 349 935 240 1017 b 269 1096 196 1069 235 1124 b 354 1025 299 1074 319 1050 b 458 1097 379 1046 436 1076 m 614 888 b 628 615 624 804 611 711 b 540 624 640 571 538 569 b 418 788 532 696 471 763 b 258 793 365 814 297 828 b 289 603 222 753 217 663 b 458 494 343 557 406 524 b 664 268 549 443 635 378 b 426 0 700 125 608 4 b 104 147 317 -3 190 28 b 44 324 74 193 47 269 b 147 339 42 382 144 396 b 201 192 150 289 165 243 b 403 96 243 138 332 96 b 563 236 493 96 575 139 b 208 539 529 376 310 444 b 178 857 88 650 113 792 b 528 801 268 944 458 892 b 515 874 532 825 521 856 b 614 888 504 908 599 925 "},"ş":{"ha":729,"x_min":0,"x_max":0,"o":"m 408 0 b 392 -65 404 -15 399 -47 b 472 -136 444 -62 468 -100 b 435 -224 476 -167 461 -204 b 289 -194 390 -257 304 -240 b 336 -167 279 -164 315 -139 b 390 -176 351 -186 372 -190 b 360 -115 415 -157 413 -112 b 328 -83 329 -122 321 -115 l 349 4 b 104 147 261 17 171 56 b 44 324 74 193 47 269 b 147 339 42 382 144 396 b 201 192 150 289 165 243 b 403 96 243 138 332 96 b 563 236 493 96 575 139 b 208 539 529 376 310 444 b 178 857 88 650 113 792 b 528 801 268 944 458 892 b 515 874 532 825 521 856 b 614 888 504 908 599 925 b 628 615 624 804 611 711 b 540 624 640 571 538 569 b 418 788 532 696 471 763 b 258 793 365 814 297 828 b 289 603 222 753 217 663 b 458 494 343 557 406 524 b 664 268 549 443 635 378 b 426 0 700 125 608 4 "},"ș":{"ha":729,"x_min":0,"x_max":0,"o":"m 614 888 b 628 615 624 804 611 711 b 540 624 640 571 538 569 b 418 788 532 696 471 763 b 258 793 365 814 297 828 b 289 603 222 753 217 663 b 458 494 343 557 406 524 b 664 268 549 443 635 378 b 426 0 700 125 608 4 b 104 147 317 -3 190 28 b 44 324 74 193 47 269 b 147 339 42 382 144 396 b 201 192 150 289 165 243 b 403 96 243 138 332 96 b 563 236 493 96 575 139 b 208 539 529 376 310 444 b 178 857 88 650 113 792 b 528 801 268 944 458 892 b 515 874 532 825 521 856 b 614 888 504 908 599 925 m 404 -165 b 376 -292 394 -222 389 -246 b 307 -267 358 -358 293 -350 b 322 -164 314 -222 319 -194 b 404 -165 328 -99 415 -103 "},"ß":{"ha":732,"x_min":0,"x_max":0,"o":"m 396 872 b 603 719 501 871 594 819 b 514 504 608 649 574 569 b 688 138 686 392 732 261 b 371 -3 638 -14 488 -33 b 235 143 303 18 244 92 b 329 178 226 197 324 203 b 403 93 335 146 360 106 b 588 176 474 71 569 88 b 435 440 611 271 556 374 b 431 551 388 465 392 508 b 499 700 472 599 504 654 b 390 768 492 747 444 769 b 229 704 333 768 268 744 b 181 440 169 638 174 503 b 178 38 186 326 189 169 b 72 36 168 -17 72 -10 b 76 478 82 247 89 300 b 160 781 68 582 75 696 b 396 872 222 842 315 874 "},"t":{"ha":771,"x_min":0,"x_max":0,"o":"m 50 910 b 692 906 136 906 610 907 b 676 803 754 906 724 806 b 413 804 606 806 436 806 b 410 47 432 631 421 186 b 303 39 404 -24 303 -12 b 307 806 303 156 349 633 b 32 807 254 804 88 804 b 50 910 -19 811 6 906 "},"ŧ":{"ha":768,"x_min":0,"x_max":0,"o":"m 51 897 b 693 893 142 893 611 894 b 678 790 746 889 725 790 b 414 792 607 793 438 793 b 422 503 421 722 424 542 b 513 506 451 503 497 504 b 519 414 558 511 560 417 b 421 411 503 413 456 411 b 411 40 415 214 411 110 b 304 32 413 -17 304 -11 b 313 415 304 100 307 176 b 236 414 286 417 250 415 b 226 506 194 411 185 503 b 315 507 242 508 285 508 b 308 793 315 590 319 694 b 33 794 250 792 86 792 b 51 897 -17 797 3 897 "},"ť":{"ha":814,"x_min":0,"x_max":0,"o":"m 50 910 b 692 906 136 906 610 907 b 676 803 754 906 724 806 b 413 804 606 806 436 806 b 410 47 432 631 421 186 b 303 39 404 -24 303 -12 b 307 806 303 156 349 633 b 32 807 254 804 88 804 b 50 910 -19 811 6 906 m 825 768 b 747 776 818 728 736 714 b 761 876 753 810 758 851 b 850 869 769 921 856 910 "},"ţ":{"ha":771,"x_min":0,"x_max":0,"o":"m 692 906 b 676 803 754 906 724 806 b 413 804 606 806 436 806 b 410 47 432 631 421 186 b 401 19 408 36 406 26 b 400 11 401 17 400 14 b 383 -54 396 -4 390 -36 b 464 -125 436 -51 460 -89 b 426 -212 468 -156 453 -193 b 281 -183 382 -246 296 -229 b 328 -156 271 -153 307 -128 b 382 -165 343 -175 364 -179 b 351 -104 407 -146 404 -101 b 319 -72 321 -111 313 -104 l 336 0 b 303 39 318 6 303 19 b 307 806 303 156 349 633 b 32 807 254 804 88 804 b 50 910 -19 811 6 906 b 692 906 136 906 610 907 "},"ț":{"ha":771,"x_min":0,"x_max":0,"o":"m 50 910 b 692 906 136 906 610 907 b 676 803 754 906 724 806 b 413 804 606 806 436 806 b 410 47 432 631 421 186 b 303 39 404 -24 303 -12 b 307 806 303 156 349 633 b 32 807 254 804 88 804 b 50 910 -19 811 6 906 m 396 -154 b 368 -281 386 -211 381 -235 b 299 -256 350 -347 285 -339 b 314 -153 306 -211 311 -183 b 396 -154 319 -87 407 -92 "},"u":{"ha":769,"x_min":0,"x_max":0,"o":"m 597 883 b 711 874 599 928 714 910 b 686 226 707 701 744 381 b 401 -4 638 113 538 -6 b 186 78 325 -3 239 29 b 58 399 104 153 60 228 b 57 867 58 558 57 707 b 165 872 64 914 168 922 l 165 425 b 233 182 167 324 174 239 b 403 106 290 126 351 106 b 588 285 490 106 560 189 b 610 542 606 350 610 438 b 597 883 610 718 600 851 "},"ú":{"ha":769,"x_min":0,"x_max":0,"o":"m 417 1079 b 488 1033 449 1117 519 1071 b 386 938 464 1006 410 965 b 328 981 357 906 297 936 b 417 1079 346 1007 399 1053 m 597 883 b 711 874 599 928 714 910 b 686 226 707 701 744 381 b 401 -4 638 113 538 -6 b 186 78 325 -3 239 29 b 58 399 104 153 60 228 b 57 867 58 558 57 707 b 165 872 64 914 168 922 l 165 425 b 233 182 167 324 174 239 b 403 106 290 126 351 106 b 588 285 490 106 560 189 b 610 542 606 350 610 438 b 597 883 610 718 600 851 "},"û":{"ha":769,"x_min":0,"x_max":0,"o":"m 392 1086 b 522 999 446 1054 492 1021 b 485 931 561 969 518 903 b 376 1015 436 971 401 994 b 256 942 342 990 285 964 b 207 989 221 914 172 950 b 392 1086 231 1015 371 1106 m 597 883 b 711 874 599 928 714 910 b 686 226 707 701 744 381 b 401 -4 638 113 538 -6 b 186 78 325 -3 239 29 b 58 399 104 153 60 228 b 57 867 58 558 57 707 b 165 872 64 914 168 922 l 165 425 b 233 182 167 324 174 239 b 403 106 290 126 351 106 b 588 285 490 106 560 189 b 610 542 606 350 610 438 b 597 883 610 718 600 851 "},"ü":{"ha":769,"x_min":0,"x_max":0,"o":"m 449 1022 b 522 996 490 1026 514 1014 b 450 933 535 971 510 933 b 449 1022 399 933 400 1017 m 308 1024 b 310 931 365 1024 367 931 b 240 978 283 931 240 940 b 308 1024 239 1010 258 1024 m 597 883 b 711 874 599 928 714 910 b 686 226 707 701 744 381 b 401 -4 638 113 538 -6 b 186 78 325 -3 239 29 b 58 399 104 153 60 228 b 57 867 58 558 57 707 b 165 872 64 914 168 922 l 165 425 b 233 182 167 324 174 239 b 403 106 290 126 351 106 b 588 285 490 106 560 189 b 610 542 606 350 610 438 b 597 883 610 718 600 851 "},"ù":{"ha":769,"x_min":0,"x_max":0,"o":"m 364 1079 b 440 981 382 1053 422 1007 b 382 938 471 936 411 906 b 292 1033 358 965 315 1006 b 364 1079 260 1071 332 1117 m 597 883 b 711 874 599 928 714 910 b 686 226 707 701 744 381 b 401 -4 638 113 538 -6 b 186 78 325 -3 239 29 b 58 399 104 153 60 228 b 57 867 58 558 57 707 b 165 872 64 914 168 922 l 165 425 b 233 182 167 324 174 239 b 403 106 290 126 351 106 b 588 285 490 106 560 189 b 610 542 606 350 610 438 b 597 883 610 718 600 851 "},"ű":{"ha":769,"x_min":0,"x_max":0,"o":"m 308 1072 b 388 1046 331 1115 411 1089 l 338 947 b 271 975 318 910 251 925 b 308 1072 282 1006 297 1042 m 440 1069 b 521 1043 463 1114 543 1088 l 469 946 b 403 972 450 907 385 922 b 440 1069 414 1004 429 1040 m 597 883 b 711 874 599 928 714 910 b 686 226 707 701 744 381 b 401 -4 638 113 538 -6 b 186 78 325 -3 239 29 b 58 399 104 153 60 228 b 57 867 58 558 57 707 b 165 872 64 914 168 922 l 165 425 b 233 182 167 324 174 239 b 403 106 290 126 351 106 b 588 285 490 106 560 189 b 610 542 606 350 610 438 b 597 883 610 718 600 851 "},"ū":{"ha":769,"x_min":0,"x_max":0,"o":"m 471 1033 b 479 960 526 1036 539 963 b 275 960 426 957 328 956 b 274 1033 221 964 214 1036 b 471 1033 325 1031 419 1031 m 597 883 b 711 874 599 928 714 910 b 686 226 707 701 744 381 b 401 -4 638 113 538 -6 b 186 78 325 -3 239 29 b 58 399 104 153 60 228 b 57 867 58 558 57 707 b 165 872 64 914 168 922 l 165 425 b 233 182 167 324 174 239 b 403 106 290 126 351 106 b 588 285 490 106 560 189 b 610 542 606 350 610 438 b 597 883 610 718 600 851 "},"ų":{"ha":769,"x_min":0,"x_max":0,"o":"m 689 226 b 604 63 665 161 633 110 b 551 -140 558 -12 526 -108 b 604 -146 568 -161 583 -165 b 638 -200 636 -117 664 -168 b 486 -187 604 -242 524 -244 b 533 51 458 -144 476 -21 b 390 -4 485 4 418 -4 b 186 78 314 -4 239 29 b 58 399 104 153 60 228 b 57 867 58 558 57 707 b 165 872 64 914 168 922 l 165 425 b 233 182 167 324 174 239 b 403 106 290 126 351 106 b 588 285 490 106 560 189 b 610 542 606 350 610 438 b 597 883 610 718 600 851 b 711 874 599 928 714 910 b 689 226 707 701 744 382 "},"ů":{"ha":769,"x_min":0,"x_max":0,"o":"m 399 1110 b 438 1107 410 1115 426 1117 b 349 933 524 1053 456 904 b 292 1044 297 947 271 1000 b 399 1110 311 1089 357 1110 m 401 1054 b 386 1051 397 1057 390 1054 b 344 1026 371 1051 351 1042 b 367 990 336 1011 347 993 b 401 1054 408 978 431 1033 m 597 883 b 711 874 599 928 714 910 b 686 226 707 701 744 381 b 401 -4 638 113 538 -6 b 186 78 325 -3 239 29 b 58 399 104 153 60 228 b 57 867 58 558 57 707 b 165 872 64 914 168 922 l 165 425 b 233 182 167 324 174 239 b 403 106 290 126 351 106 b 588 285 490 106 560 189 b 610 542 606 350 610 438 b 597 883 610 718 600 851 "},"v":{"ha":715,"x_min":0,"x_max":0,"o":"m 699 843 b 540 469 671 724 600 588 b 383 76 482 353 422 229 b 267 82 367 -32 301 -15 b 11 847 156 388 65 632 b 115 874 3 897 100 925 b 325 196 160 699 246 432 b 458 551 360 326 417 478 b 594 871 510 643 582 799 b 699 843 604 928 711 911 "},"w":{"ha":1167,"x_min":0,"x_max":0,"o":"m 125 879 b 332 197 257 610 265 403 b 535 817 376 344 508 681 b 642 811 550 894 625 876 b 840 204 703 650 811 343 b 1036 864 910 456 982 724 b 1142 839 1064 931 1171 913 b 879 38 1056 596 953 282 b 779 56 860 -25 794 -17 b 594 667 738 268 646 501 b 375 28 529 442 440 251 b 275 36 356 -21 292 -14 b 32 828 218 214 125 646 b 125 879 3 886 97 936 "},"ẃ":{"ha":1167,"x_min":0,"x_max":0,"o":"m 625 1135 b 696 1089 657 1172 728 1126 b 594 993 672 1061 618 1021 b 536 1036 565 961 506 992 b 625 1135 554 1063 607 1108 m 125 879 b 332 197 257 610 265 403 b 535 817 376 344 508 681 b 642 811 550 894 625 876 b 840 204 703 650 811 343 b 1036 864 910 456 982 724 b 1142 839 1064 931 1171 913 b 879 38 1056 596 953 282 b 779 56 860 -25 794 -17 b 594 667 738 268 646 501 b 375 28 529 442 440 251 b 275 36 356 -21 292 -14 b 32 828 218 214 125 646 b 125 879 3 886 97 936 "},"ŵ":{"ha":1167,"x_min":0,"x_max":0,"o":"m 600 1142 b 731 1054 654 1110 700 1076 b 693 986 769 1025 726 958 b 585 1071 644 1026 610 1050 b 464 997 550 1046 493 1019 b 415 1044 429 969 381 1006 b 600 1142 439 1071 579 1161 m 125 879 b 332 197 257 610 265 403 b 535 817 376 344 508 681 b 642 811 550 894 625 876 b 840 204 703 650 811 343 b 1036 864 910 456 982 724 b 1142 839 1064 931 1171 913 b 879 38 1056 596 953 282 b 779 56 860 -25 794 -17 b 594 667 738 268 646 501 b 375 28 529 442 440 251 b 275 36 356 -21 292 -14 b 32 828 218 214 125 646 b 125 879 3 886 97 936 "},"ẅ":{"ha":1167,"x_min":0,"x_max":0,"o":"m 657 1078 b 731 1051 699 1082 722 1069 b 658 989 743 1026 718 989 b 657 1078 607 989 608 1072 m 517 1079 b 518 986 574 1079 575 986 b 449 1033 492 986 449 996 b 517 1079 447 1065 467 1079 m 125 879 b 332 197 257 610 265 403 b 535 817 376 344 508 681 b 642 811 550 894 625 876 b 840 204 703 650 811 343 b 1036 864 910 456 982 724 b 1142 839 1064 931 1171 913 b 879 38 1056 596 953 282 b 779 56 860 -25 794 -17 b 594 667 738 268 646 501 b 375 28 529 442 440 251 b 275 36 356 -21 292 -14 b 32 828 218 214 125 646 b 125 879 3 886 97 936 "},"ẁ":{"ha":1167,"x_min":0,"x_max":0,"o":"m 572 1135 b 649 1036 590 1108 631 1063 b 590 993 679 992 619 961 b 500 1089 567 1021 524 1061 b 572 1135 468 1126 540 1172 m 125 879 b 332 197 257 610 265 403 b 535 817 376 344 508 681 b 642 811 550 894 625 876 b 840 204 703 650 811 343 b 1036 864 910 456 982 724 b 1142 839 1064 931 1171 913 b 879 38 1056 596 953 282 b 779 56 860 -25 794 -17 b 594 667 738 268 646 501 b 375 28 529 442 440 251 b 275 36 356 -21 292 -14 b 32 828 218 214 125 646 b 125 879 3 886 97 936 "},"x":{"ha":763,"x_min":0,"x_max":0,"o":"m 115 897 b 401 519 174 839 318 633 b 578 863 458 600 554 801 b 690 832 624 940 729 899 b 460 436 576 606 511 506 b 718 81 557 283 656 163 b 631 8 749 38 667 -26 b 396 347 539 128 469 225 b 126 17 314 239 228 131 b 35 76 68 -49 -32 8 b 340 435 88 129 260 313 b 33 821 300 493 121 736 b 115 897 8 865 81 935 "},"y":{"ha":656,"x_min":0,"x_max":0,"o":"m 524 879 b 628 849 535 932 635 896 b 507 339 563 650 547 436 b 468 238 575 311 551 240 b 206 -3 422 124 347 -14 b 57 231 90 6 65 71 b 164 222 56 263 164 268 b 236 94 164 115 189 94 b 372 275 288 94 340 182 b 164 469 300 311 219 371 b 18 839 118 558 51 738 b 119 879 10 908 99 933 b 239 564 156 768 207 635 b 411 376 286 457 350 408 b 524 879 468 532 474 722 "},"ý":{"ha":656,"x_min":0,"x_max":0,"o":"m 371 1136 b 442 1090 403 1174 474 1128 b 340 994 418 1063 364 1022 b 282 1038 311 963 251 993 b 371 1136 300 1064 353 1110 m 528 879 b 628 849 539 932 635 896 b 507 339 563 650 547 436 b 468 238 575 311 551 240 b 206 -3 422 124 347 -14 b 57 231 90 6 65 71 b 164 222 56 263 164 268 b 239 90 164 115 192 90 b 381 275 290 90 349 182 b 164 469 308 311 219 371 b 18 839 118 558 51 738 b 117 879 10 908 96 933 b 235 564 153 768 203 635 b 414 369 282 457 353 401 b 528 879 471 525 478 722 "},"ŷ":{"ha":656,"x_min":0,"x_max":0,"o":"m 346 1143 b 476 1056 400 1111 446 1078 b 439 988 515 1026 472 960 b 331 1072 390 1028 356 1051 b 210 999 296 1047 239 1021 b 161 1046 175 971 126 1007 b 346 1143 185 1072 325 1163 m 528 879 b 628 849 539 932 635 896 b 507 339 563 650 547 436 b 468 238 575 311 551 240 b 206 -3 422 124 347 -14 b 57 231 90 6 65 71 b 164 222 56 263 164 268 b 239 90 164 115 192 90 b 381 275 290 90 349 182 b 164 469 308 311 219 371 b 18 839 118 558 51 738 b 117 879 10 908 96 933 b 235 564 153 768 203 635 b 414 369 282 457 353 401 b 528 879 471 525 478 722 "},"ÿ":{"ha":656,"x_min":0,"x_max":0,"o":"m 403 1079 b 476 1053 444 1083 468 1071 b 404 990 489 1028 464 990 b 403 1079 353 990 354 1074 m 263 1081 b 264 988 319 1081 321 988 b 194 1035 238 988 194 997 b 263 1081 193 1067 213 1081 m 528 879 b 628 849 539 932 635 896 b 507 339 563 650 547 436 b 468 238 575 311 551 240 b 206 -3 422 124 347 -14 b 57 231 90 6 65 71 b 164 222 56 263 164 268 b 239 90 164 115 192 90 b 381 275 290 90 349 182 b 164 469 308 311 219 371 b 18 839 118 558 51 738 b 117 879 10 908 96 933 b 235 564 153 768 203 635 b 414 369 282 457 353 401 b 528 879 471 525 478 722 "},"ỳ":{"ha":656,"x_min":0,"x_max":0,"o":"m 318 1136 b 394 1038 336 1110 376 1064 b 336 994 425 993 365 963 b 246 1090 313 1022 269 1063 b 318 1136 214 1128 286 1174 m 528 879 b 628 849 539 932 635 896 b 507 339 563 650 547 436 b 468 238 575 311 551 240 b 206 -3 422 124 347 -14 b 57 231 90 6 65 71 b 164 222 56 263 164 268 b 239 90 164 115 192 90 b 381 275 290 90 349 182 b 164 469 308 311 219 371 b 18 839 118 558 51 738 b 117 879 10 908 96 933 b 235 564 153 768 203 635 b 414 369 282 457 353 401 b 528 879 471 525 478 722 "},"z":{"ha":711,"x_min":0,"x_max":0,"o":"m 599 904 b 642 808 668 900 675 850 b 188 97 446 460 314 222 b 635 107 276 81 536 104 b 629 6 693 110 685 8 b 115 4 471 0 236 -1 b 89 136 26 7 31 89 b 540 815 251 271 444 682 b 128 810 364 821 243 803 b 144 904 94 813 99 904 b 599 904 385 892 340 922 "},"ź":{"ha":711,"x_min":0,"x_max":0,"o":"m 419 1138 b 490 1092 451 1175 522 1129 b 389 996 467 1064 413 1024 b 331 1039 360 964 300 994 b 419 1138 349 1065 401 1111 m 599 904 b 642 808 668 900 675 850 b 188 97 446 460 314 222 b 635 107 276 81 536 104 b 629 6 693 110 685 8 b 115 4 471 0 236 -1 b 89 136 26 7 31 89 b 540 815 251 271 444 682 b 128 810 364 821 243 803 b 144 904 94 813 99 904 b 599 904 385 892 340 922 "},"ž":{"ha":711,"x_min":0,"x_max":0,"o":"m 476 1146 b 518 1085 507 1175 557 1121 b 388 1003 490 1058 449 1040 b 235 1093 367 983 258 1065 b 288 1144 214 1118 253 1172 b 372 1074 317 1122 338 1099 b 476 1146 397 1094 454 1125 m 599 904 b 642 808 668 900 675 850 b 188 97 446 460 314 222 b 635 107 276 81 536 104 b 629 6 693 110 685 8 b 115 4 471 0 236 -1 b 89 136 26 7 31 89 b 540 815 251 271 444 682 b 128 810 364 821 243 803 b 144 904 94 813 99 904 b 599 904 385 892 340 922 "},"ż":{"ha":711,"x_min":0,"x_max":0,"o":"m 372 1113 b 376 1014 474 1110 478 1014 b 321 1056 353 1014 324 1035 b 372 1113 314 1090 339 1113 m 599 904 b 642 808 668 900 675 850 b 188 97 446 460 314 222 b 635 107 276 81 536 104 b 629 6 693 110 685 8 b 115 4 471 0 236 -1 b 89 136 26 7 31 89 b 540 815 251 271 444 682 b 128 810 364 821 243 803 b 144 904 94 813 99 904 b 599 904 385 892 340 922 "},"⁄":{"ha":524,"x_min":0,"x_max":0,"o":"m 421 879 b 503 818 456 926 535 865 b 115 75 364 617 275 279 b 35 140 64 19 -18 83 b 421 879 196 339 281 679 "},"*":{"ha":1796,"x_min":0,"x_max":0,"o":"m 278 638 l 299 638 l 210 833 l 190 833 l 103 638 l 124 638 l 144 683 l 257 683 m 485 833 l 463 833 l 392 658 l 318 833 l 297 833 l 381 638 l 403 638 m 658 638 l 679 638 l 592 833 l 572 833 l 483 638 l 504 638 l 525 683 l 639 683 m 732 638 l 732 833 l 713 833 l 713 638 m 786 833 l 786 638 l 915 638 l 915 656 l 806 656 l 806 833 m 1100 638 l 1121 638 l 1033 833 l 1014 833 l 925 638 l 946 638 l 967 683 l 1079 683 m 1154 833 l 1154 638 l 1238 638 b 1308 690 1272 638 1308 650 b 1272 738 1308 710 1296 731 b 1303 779 1292 744 1303 761 b 1238 833 1303 818 1272 833 m 1351 833 l 1351 638 l 1479 638 l 1479 656 l 1371 656 l 1371 833 m 1651 656 l 1531 656 l 1531 726 l 1644 726 l 1644 744 l 1531 744 l 1531 815 l 1650 815 l 1650 833 l 1511 833 l 1511 638 l 1651 638 m 1174 815 l 1238 815 b 1283 779 1261 815 1283 806 b 1239 747 1283 756 1263 747 l 1174 747 m 200 813 l 250 700 l 151 700 m 582 813 l 631 700 l 532 700 m 1024 813 l 1072 700 l 974 700 m 1174 729 l 1239 729 b 1289 690 1263 729 1289 718 b 1238 656 1289 663 1260 656 l 1174 656 m 89 390 l 89 586 l 69 586 l 69 390 m 156 586 l 143 586 l 143 390 l 163 390 l 163 547 l 289 390 l 301 390 l 301 586 l 282 586 l 282 426 m 467 390 l 486 390 l 486 567 l 556 567 l 556 586 l 397 586 l 397 567 l 467 567 m 744 390 l 744 586 l 725 586 l 725 494 l 607 494 l 607 586 l 588 586 l 588 390 l 607 390 l 607 476 l 725 476 l 725 390 m 940 408 l 819 408 l 819 479 l 932 479 l 932 497 l 819 497 l 819 567 l 938 567 l 938 586 l 799 586 l 799 390 l 940 390 m 1075 390 l 1075 475 l 1186 475 l 1186 493 l 1075 493 l 1075 567 l 1190 567 l 1190 586 l 1056 586 l 1056 390 m 1365 586 l 1365 465 b 1307 406 1365 424 1338 406 b 1249 465 1274 406 1249 428 l 1249 586 l 1229 586 l 1229 465 b 1307 388 1229 413 1265 388 b 1385 465 1350 388 1385 413 l 1385 586 m 1436 586 l 1436 390 l 1565 390 l 1565 408 l 1457 408 l 1457 586 m 1597 586 l 1597 390 l 1726 390 l 1726 408 l 1617 408 l 1617 586 m 992 307 b 918 342 974 333 944 342 b 843 288 885 342 843 328 b 917 235 843 249 881 242 b 976 196 947 229 976 222 b 918 158 976 164 943 158 b 854 192 894 158 867 167 l 836 182 b 918 139 851 151 886 139 b 997 196 954 139 997 151 b 919 253 997 238 958 246 b 863 288 889 258 863 264 b 918 322 863 315 894 322 b 975 297 939 322 964 317 m 1297 240 b 1197 342 1297 292 1264 342 b 1099 240 1135 342 1099 294 b 1197 139 1099 189 1131 138 b 1297 240 1264 138 1297 189 m 436 339 l 414 339 l 343 164 l 269 339 l 249 339 l 332 142 l 354 142 m 611 161 l 490 161 l 490 232 l 603 232 l 603 250 l 490 250 l 490 319 l 608 319 l 608 339 l 471 339 l 471 142 l 611 142 m 747 215 b 807 276 789 218 807 246 b 742 339 807 310 785 339 l 654 339 l 654 142 l 674 142 l 674 214 l 724 214 l 789 142 l 815 142 m 1057 142 l 1057 339 l 1038 339 l 1038 142 m 1351 339 l 1339 339 l 1339 142 l 1358 142 l 1358 300 l 1485 142 l 1496 142 l 1496 339 l 1476 339 l 1476 244 l 1478 179 m 1197 157 b 1118 240 1144 157 1119 197 b 1197 322 1117 285 1144 324 b 1278 240 1251 324 1278 283 b 1197 157 1278 197 1251 157 m 742 319 b 788 276 772 319 788 300 b 740 233 788 251 772 233 l 674 233 l 674 319 "},"\\":{"ha":1796,"x_min":0,"x_max":0,"o":"m 278 638 l 299 638 l 210 833 l 190 833 l 103 638 l 124 638 l 144 683 l 257 683 m 485 833 l 463 833 l 392 658 l 318 833 l 297 833 l 381 638 l 403 638 m 658 638 l 679 638 l 592 833 l 572 833 l 483 638 l 504 638 l 525 683 l 639 683 m 732 638 l 732 833 l 713 833 l 713 638 m 786 833 l 786 638 l 915 638 l 915 656 l 806 656 l 806 833 m 1100 638 l 1121 638 l 1033 833 l 1014 833 l 925 638 l 946 638 l 967 683 l 1079 683 m 1154 833 l 1154 638 l 1238 638 b 1308 690 1272 638 1308 650 b 1272 738 1308 710 1296 731 b 1303 779 1292 744 1303 761 b 1238 833 1303 818 1272 833 m 1351 833 l 1351 638 l 1479 638 l 1479 656 l 1371 656 l 1371 833 m 1651 656 l 1531 656 l 1531 726 l 1644 726 l 1644 744 l 1531 744 l 1531 815 l 1650 815 l 1650 833 l 1511 833 l 1511 638 l 1651 638 m 1174 815 l 1238 815 b 1283 779 1261 815 1283 806 b 1239 747 1283 756 1263 747 l 1174 747 m 200 813 l 250 700 l 151 700 m 582 813 l 631 700 l 532 700 m 1024 813 l 1072 700 l 974 700 m 1174 729 l 1239 729 b 1289 690 1263 729 1289 718 b 1238 656 1289 663 1260 656 l 1174 656 m 89 390 l 89 586 l 69 586 l 69 390 m 156 586 l 143 586 l 143 390 l 163 390 l 163 547 l 289 390 l 301 390 l 301 586 l 282 586 l 282 426 m 467 390 l 486 390 l 486 567 l 556 567 l 556 586 l 397 586 l 397 567 l 467 567 m 744 390 l 744 586 l 725 586 l 725 494 l 607 494 l 607 586 l 588 586 l 588 390 l 607 390 l 607 476 l 725 476 l 725 390 m 940 408 l 819 408 l 819 479 l 932 479 l 932 497 l 819 497 l 819 567 l 938 567 l 938 586 l 799 586 l 799 390 l 940 390 m 1075 390 l 1075 475 l 1186 475 l 1186 493 l 1075 493 l 1075 567 l 1190 567 l 1190 586 l 1056 586 l 1056 390 m 1365 586 l 1365 465 b 1307 406 1365 424 1338 406 b 1249 465 1274 406 1249 428 l 1249 586 l 1229 586 l 1229 465 b 1307 388 1229 413 1265 388 b 1385 465 1350 388 1385 413 l 1385 586 m 1436 586 l 1436 390 l 1565 390 l 1565 408 l 1457 408 l 1457 586 m 1597 586 l 1597 390 l 1726 390 l 1726 408 l 1617 408 l 1617 586 m 992 307 b 918 342 974 333 944 342 b 843 288 885 342 843 328 b 917 235 843 249 881 242 b 976 196 947 229 976 222 b 918 158 976 164 943 158 b 854 192 894 158 867 167 l 836 182 b 918 139 851 151 886 139 b 997 196 954 139 997 151 b 919 253 997 238 958 246 b 863 288 889 258 863 264 b 918 322 863 315 894 322 b 975 297 939 322 964 317 m 1297 240 b 1197 342 1297 292 1264 342 b 1099 240 1135 342 1099 294 b 1197 139 1099 189 1131 138 b 1297 240 1264 138 1297 189 m 436 339 l 414 339 l 343 164 l 269 339 l 249 339 l 332 142 l 354 142 m 611 161 l 490 161 l 490 232 l 603 232 l 603 250 l 490 250 l 490 319 l 608 319 l 608 339 l 471 339 l 471 142 l 611 142 m 747 215 b 807 276 789 218 807 246 b 742 339 807 310 785 339 l 654 339 l 654 142 l 674 142 l 674 214 l 724 214 l 789 142 l 815 142 m 1057 142 l 1057 339 l 1038 339 l 1038 142 m 1351 339 l 1339 339 l 1339 142 l 1358 142 l 1358 300 l 1485 142 l 1496 142 l 1496 339 l 1476 339 l 1476 244 l 1478 179 m 1197 157 b 1118 240 1144 157 1119 197 b 1197 322 1117 285 1144 324 b 1278 240 1251 324 1278 283 b 1197 157 1278 197 1251 157 m 742 319 b 788 276 772 319 788 300 b 740 233 788 251 772 233 l 674 233 l 674 319 "},"•":{"ha":1796,"x_min":0,"x_max":0,"o":"m 278 638 l 299 638 l 210 833 l 190 833 l 103 638 l 124 638 l 144 683 l 257 683 m 485 833 l 463 833 l 392 658 l 318 833 l 297 833 l 381 638 l 403 638 m 658 638 l 679 638 l 592 833 l 572 833 l 483 638 l 504 638 l 525 683 l 639 683 m 732 638 l 732 833 l 713 833 l 713 638 m 786 833 l 786 638 l 915 638 l 915 656 l 806 656 l 806 833 m 1100 638 l 1121 638 l 1033 833 l 1014 833 l 925 638 l 946 638 l 967 683 l 1079 683 m 1154 833 l 1154 638 l 1238 638 b 1308 690 1272 638 1308 650 b 1272 738 1308 710 1296 731 b 1303 779 1292 744 1303 761 b 1238 833 1303 818 1272 833 m 1351 833 l 1351 638 l 1479 638 l 1479 656 l 1371 656 l 1371 833 m 1651 656 l 1531 656 l 1531 726 l 1644 726 l 1644 744 l 1531 744 l 1531 815 l 1650 815 l 1650 833 l 1511 833 l 1511 638 l 1651 638 m 1174 815 l 1238 815 b 1283 779 1261 815 1283 806 b 1239 747 1283 756 1263 747 l 1174 747 m 200 813 l 250 700 l 151 700 m 582 813 l 631 700 l 532 700 m 1024 813 l 1072 700 l 974 700 m 1174 729 l 1239 729 b 1289 690 1263 729 1289 718 b 1238 656 1289 663 1260 656 l 1174 656 m 89 390 l 89 586 l 69 586 l 69 390 m 156 586 l 143 586 l 143 390 l 163 390 l 163 547 l 289 390 l 301 390 l 301 586 l 282 586 l 282 426 m 467 390 l 486 390 l 486 567 l 556 567 l 556 586 l 397 586 l 397 567 l 467 567 m 744 390 l 744 586 l 725 586 l 725 494 l 607 494 l 607 586 l 588 586 l 588 390 l 607 390 l 607 476 l 725 476 l 725 390 m 940 408 l 819 408 l 819 479 l 932 479 l 932 497 l 819 497 l 819 567 l 938 567 l 938 586 l 799 586 l 799 390 l 940 390 m 1075 390 l 1075 475 l 1186 475 l 1186 493 l 1075 493 l 1075 567 l 1190 567 l 1190 586 l 1056 586 l 1056 390 m 1365 586 l 1365 465 b 1307 406 1365 424 1338 406 b 1249 465 1274 406 1249 428 l 1249 586 l 1229 586 l 1229 465 b 1307 388 1229 413 1265 388 b 1385 465 1350 388 1385 413 l 1385 586 m 1436 586 l 1436 390 l 1565 390 l 1565 408 l 1457 408 l 1457 586 m 1597 586 l 1597 390 l 1726 390 l 1726 408 l 1617 408 l 1617 586 m 992 307 b 918 342 974 333 944 342 b 843 288 885 342 843 328 b 917 235 843 249 881 242 b 976 196 947 229 976 222 b 918 158 976 164 943 158 b 854 192 894 158 867 167 l 836 182 b 918 139 851 151 886 139 b 997 196 954 139 997 151 b 919 253 997 238 958 246 b 863 288 889 258 863 264 b 918 322 863 315 894 322 b 975 297 939 322 964 317 m 1297 240 b 1197 342 1297 292 1264 342 b 1099 240 1135 342 1099 294 b 1197 139 1099 189 1131 138 b 1297 240 1264 138 1297 189 m 436 339 l 414 339 l 343 164 l 269 339 l 249 339 l 332 142 l 354 142 m 611 161 l 490 161 l 490 232 l 603 232 l 603 250 l 490 250 l 490 319 l 608 319 l 608 339 l 471 339 l 471 142 l 611 142 m 747 215 b 807 276 789 218 807 246 b 742 339 807 310 785 339 l 654 339 l 654 142 l 674 142 l 674 214 l 724 214 l 789 142 l 815 142 m 1057 142 l 1057 339 l 1038 339 l 1038 142 m 1351 339 l 1339 339 l 1339 142 l 1358 142 l 1358 300 l 1485 142 l 1496 142 l 1496 339 l 1476 339 l 1476 244 l 1478 179 m 1197 157 b 1118 240 1144 157 1119 197 b 1197 322 1117 285 1144 324 b 1278 240 1251 324 1278 283 b 1197 157 1278 197 1251 157 m 742 319 b 788 276 772 319 788 300 b 740 233 788 251 772 233 l 674 233 l 674 319 "},":":{"ha":1796,"x_min":0,"x_max":0,"o":"m 278 638 l 299 638 l 210 833 l 190 833 l 103 638 l 124 638 l 144 683 l 257 683 m 485 833 l 463 833 l 392 658 l 318 833 l 297 833 l 381 638 l 403 638 m 658 638 l 679 638 l 592 833 l 572 833 l 483 638 l 504 638 l 525 683 l 639 683 m 732 638 l 732 833 l 713 833 l 713 638 m 786 833 l 786 638 l 915 638 l 915 656 l 806 656 l 806 833 m 1100 638 l 1121 638 l 1033 833 l 1014 833 l 925 638 l 946 638 l 967 683 l 1079 683 m 1154 833 l 1154 638 l 1238 638 b 1308 690 1272 638 1308 650 b 1272 738 1308 710 1296 731 b 1303 779 1292 744 1303 761 b 1238 833 1303 818 1272 833 m 1351 833 l 1351 638 l 1479 638 l 1479 656 l 1371 656 l 1371 833 m 1651 656 l 1531 656 l 1531 726 l 1644 726 l 1644 744 l 1531 744 l 1531 815 l 1650 815 l 1650 833 l 1511 833 l 1511 638 l 1651 638 m 1174 815 l 1238 815 b 1283 779 1261 815 1283 806 b 1239 747 1283 756 1263 747 l 1174 747 m 200 813 l 250 700 l 151 700 m 582 813 l 631 700 l 532 700 m 1024 813 l 1072 700 l 974 700 m 1174 729 l 1239 729 b 1289 690 1263 729 1289 718 b 1238 656 1289 663 1260 656 l 1174 656 m 89 390 l 89 586 l 69 586 l 69 390 m 156 586 l 143 586 l 143 390 l 163 390 l 163 547 l 289 390 l 301 390 l 301 586 l 282 586 l 282 426 m 467 390 l 486 390 l 486 567 l 556 567 l 556 586 l 397 586 l 397 567 l 467 567 m 744 390 l 744 586 l 725 586 l 725 494 l 607 494 l 607 586 l 588 586 l 588 390 l 607 390 l 607 476 l 725 476 l 725 390 m 940 408 l 819 408 l 819 479 l 932 479 l 932 497 l 819 497 l 819 567 l 938 567 l 938 586 l 799 586 l 799 390 l 940 390 m 1075 390 l 1075 475 l 1186 475 l 1186 493 l 1075 493 l 1075 567 l 1190 567 l 1190 586 l 1056 586 l 1056 390 m 1365 586 l 1365 465 b 1307 406 1365 424 1338 406 b 1249 465 1274 406 1249 428 l 1249 586 l 1229 586 l 1229 465 b 1307 388 1229 413 1265 388 b 1385 465 1350 388 1385 413 l 1385 586 m 1436 586 l 1436 390 l 1565 390 l 1565 408 l 1457 408 l 1457 586 m 1597 586 l 1597 390 l 1726 390 l 1726 408 l 1617 408 l 1617 586 m 992 307 b 918 342 974 333 944 342 b 843 288 885 342 843 328 b 917 235 843 249 881 242 b 976 196 947 229 976 222 b 918 158 976 164 943 158 b 854 192 894 158 867 167 l 836 182 b 918 139 851 151 886 139 b 997 196 954 139 997 151 b 919 253 997 238 958 246 b 863 288 889 258 863 264 b 918 322 863 315 894 322 b 975 297 939 322 964 317 m 1297 240 b 1197 342 1297 292 1264 342 b 1099 240 1135 342 1099 294 b 1197 139 1099 189 1131 138 b 1297 240 1264 138 1297 189 m 436 339 l 414 339 l 343 164 l 269 339 l 249 339 l 332 142 l 354 142 m 611 161 l 490 161 l 490 232 l 603 232 l 603 250 l 490 250 l 490 319 l 608 319 l 608 339 l 471 339 l 471 142 l 611 142 m 747 215 b 807 276 789 218 807 246 b 742 339 807 310 785 339 l 654 339 l 654 142 l 674 142 l 674 214 l 724 214 l 789 142 l 815 142 m 1057 142 l 1057 339 l 1038 339 l 1038 142 m 1351 339 l 1339 339 l 1339 142 l 1358 142 l 1358 300 l 1485 142 l 1496 142 l 1496 339 l 1476 339 l 1476 244 l 1478 179 m 1197 157 b 1118 240 1144 157 1119 197 b 1197 322 1117 285 1144 324 b 1278 240 1251 324 1278 283 b 1197 157 1278 197 1251 157 m 742 319 b 788 276 772 319 788 300 b 740 233 788 251 772 233 l 674 233 l 674 319 "},",":{"ha":236,"x_min":0,"x_max":0,"o":"m 188 46 b 149 -179 188 -46 178 -97 b 50 -150 135 -206 36 -183 b 76 39 75 -85 76 -47 b 188 46 76 99 188 97 "},"…":{"ha":1796,"x_min":0,"x_max":0,"o":"m 278 638 l 299 638 l 210 833 l 190 833 l 103 638 l 124 638 l 144 683 l 257 683 m 485 833 l 463 833 l 392 658 l 318 833 l 297 833 l 381 638 l 403 638 m 658 638 l 679 638 l 592 833 l 572 833 l 483 638 l 504 638 l 525 683 l 639 683 m 732 638 l 732 833 l 713 833 l 713 638 m 786 833 l 786 638 l 915 638 l 915 656 l 806 656 l 806 833 m 1100 638 l 1121 638 l 1033 833 l 1014 833 l 925 638 l 946 638 l 967 683 l 1079 683 m 1154 833 l 1154 638 l 1238 638 b 1308 690 1272 638 1308 650 b 1272 738 1308 710 1296 731 b 1303 779 1292 744 1303 761 b 1238 833 1303 818 1272 833 m 1351 833 l 1351 638 l 1479 638 l 1479 656 l 1371 656 l 1371 833 m 1651 656 l 1531 656 l 1531 726 l 1644 726 l 1644 744 l 1531 744 l 1531 815 l 1650 815 l 1650 833 l 1511 833 l 1511 638 l 1651 638 m 1174 815 l 1238 815 b 1283 779 1261 815 1283 806 b 1239 747 1283 756 1263 747 l 1174 747 m 200 813 l 250 700 l 151 700 m 582 813 l 631 700 l 532 700 m 1024 813 l 1072 700 l 974 700 m 1174 729 l 1239 729 b 1289 690 1263 729 1289 718 b 1238 656 1289 663 1260 656 l 1174 656 m 89 390 l 89 586 l 69 586 l 69 390 m 156 586 l 143 586 l 143 390 l 163 390 l 163 547 l 289 390 l 301 390 l 301 586 l 282 586 l 282 426 m 467 390 l 486 390 l 486 567 l 556 567 l 556 586 l 397 586 l 397 567 l 467 567 m 744 390 l 744 586 l 725 586 l 725 494 l 607 494 l 607 586 l 588 586 l 588 390 l 607 390 l 607 476 l 725 476 l 725 390 m 940 408 l 819 408 l 819 479 l 932 479 l 932 497 l 819 497 l 819 567 l 938 567 l 938 586 l 799 586 l 799 390 l 940 390 m 1075 390 l 1075 475 l 1186 475 l 1186 493 l 1075 493 l 1075 567 l 1190 567 l 1190 586 l 1056 586 l 1056 390 m 1365 586 l 1365 465 b 1307 406 1365 424 1338 406 b 1249 465 1274 406 1249 428 l 1249 586 l 1229 586 l 1229 465 b 1307 388 1229 413 1265 388 b 1385 465 1350 388 1385 413 l 1385 586 m 1436 586 l 1436 390 l 1565 390 l 1565 408 l 1457 408 l 1457 586 m 1597 586 l 1597 390 l 1726 390 l 1726 408 l 1617 408 l 1617 586 m 992 307 b 918 342 974 333 944 342 b 843 288 885 342 843 328 b 917 235 843 249 881 242 b 976 196 947 229 976 222 b 918 158 976 164 943 158 b 854 192 894 158 867 167 l 836 182 b 918 139 851 151 886 139 b 997 196 954 139 997 151 b 919 253 997 238 958 246 b 863 288 889 258 863 264 b 918 322 863 315 894 322 b 975 297 939 322 964 317 m 1297 240 b 1197 342 1297 292 1264 342 b 1099 240 1135 342 1099 294 b 1197 139 1099 189 1131 138 b 1297 240 1264 138 1297 189 m 436 339 l 414 339 l 343 164 l 269 339 l 249 339 l 332 142 l 354 142 m 611 161 l 490 161 l 490 232 l 603 232 l 603 250 l 490 250 l 490 319 l 608 319 l 608 339 l 471 339 l 471 142 l 611 142 m 747 215 b 807 276 789 218 807 246 b 742 339 807 310 785 339 l 654 339 l 654 142 l 674 142 l 674 214 l 724 214 l 789 142 l 815 142 m 1057 142 l 1057 339 l 1038 339 l 1038 142 m 1351 339 l 1339 339 l 1339 142 l 1358 142 l 1358 300 l 1485 142 l 1496 142 l 1496 339 l 1476 339 l 1476 244 l 1478 179 m 1197 157 b 1118 240 1144 157 1119 197 b 1197 322 1117 285 1144 324 b 1278 240 1251 324 1278 283 b 1197 157 1278 197 1251 157 m 742 319 b 788 276 772 319 788 300 b 740 233 788 251 772 233 l 674 233 l 674 319 "},"!":{"ha":1796,"x_min":0,"x_max":0,"o":"m 278 638 l 299 638 l 210 833 l 190 833 l 103 638 l 124 638 l 144 683 l 257 683 m 485 833 l 463 833 l 392 658 l 318 833 l 297 833 l 381 638 l 403 638 m 658 638 l 679 638 l 592 833 l 572 833 l 483 638 l 504 638 l 525 683 l 639 683 m 732 638 l 732 833 l 713 833 l 713 638 m 786 833 l 786 638 l 915 638 l 915 656 l 806 656 l 806 833 m 1100 638 l 1121 638 l 1033 833 l 1014 833 l 925 638 l 946 638 l 967 683 l 1079 683 m 1154 833 l 1154 638 l 1238 638 b 1308 690 1272 638 1308 650 b 1272 738 1308 710 1296 731 b 1303 779 1292 744 1303 761 b 1238 833 1303 818 1272 833 m 1351 833 l 1351 638 l 1479 638 l 1479 656 l 1371 656 l 1371 833 m 1651 656 l 1531 656 l 1531 726 l 1644 726 l 1644 744 l 1531 744 l 1531 815 l 1650 815 l 1650 833 l 1511 833 l 1511 638 l 1651 638 m 1174 815 l 1238 815 b 1283 779 1261 815 1283 806 b 1239 747 1283 756 1263 747 l 1174 747 m 200 813 l 250 700 l 151 700 m 582 813 l 631 700 l 532 700 m 1024 813 l 1072 700 l 974 700 m 1174 729 l 1239 729 b 1289 690 1263 729 1289 718 b 1238 656 1289 663 1260 656 l 1174 656 m 89 390 l 89 586 l 69 586 l 69 390 m 156 586 l 143 586 l 143 390 l 163 390 l 163 547 l 289 390 l 301 390 l 301 586 l 282 586 l 282 426 m 467 390 l 486 390 l 486 567 l 556 567 l 556 586 l 397 586 l 397 567 l 467 567 m 744 390 l 744 586 l 725 586 l 725 494 l 607 494 l 607 586 l 588 586 l 588 390 l 607 390 l 607 476 l 725 476 l 725 390 m 940 408 l 819 408 l 819 479 l 932 479 l 932 497 l 819 497 l 819 567 l 938 567 l 938 586 l 799 586 l 799 390 l 940 390 m 1075 390 l 1075 475 l 1186 475 l 1186 493 l 1075 493 l 1075 567 l 1190 567 l 1190 586 l 1056 586 l 1056 390 m 1365 586 l 1365 465 b 1307 406 1365 424 1338 406 b 1249 465 1274 406 1249 428 l 1249 586 l 1229 586 l 1229 465 b 1307 388 1229 413 1265 388 b 1385 465 1350 388 1385 413 l 1385 586 m 1436 586 l 1436 390 l 1565 390 l 1565 408 l 1457 408 l 1457 586 m 1597 586 l 1597 390 l 1726 390 l 1726 408 l 1617 408 l 1617 586 m 992 307 b 918 342 974 333 944 342 b 843 288 885 342 843 328 b 917 235 843 249 881 242 b 976 196 947 229 976 222 b 918 158 976 164 943 158 b 854 192 894 158 867 167 l 836 182 b 918 139 851 151 886 139 b 997 196 954 139 997 151 b 919 253 997 238 958 246 b 863 288 889 258 863 264 b 918 322 863 315 894 322 b 975 297 939 322 964 317 m 1297 240 b 1197 342 1297 292 1264 342 b 1099 240 1135 342 1099 294 b 1197 139 1099 189 1131 138 b 1297 240 1264 138 1297 189 m 436 339 l 414 339 l 343 164 l 269 339 l 249 339 l 332 142 l 354 142 m 611 161 l 490 161 l 490 232 l 603 232 l 603 250 l 490 250 l 490 319 l 608 319 l 608 339 l 471 339 l 471 142 l 611 142 m 747 215 b 807 276 789 218 807 246 b 742 339 807 310 785 339 l 654 339 l 654 142 l 674 142 l 674 214 l 724 214 l 789 142 l 815 142 m 1057 142 l 1057 339 l 1038 339 l 1038 142 m 1351 339 l 1339 339 l 1339 142 l 1358 142 l 1358 300 l 1485 142 l 1496 142 l 1496 339 l 1476 339 l 1476 244 l 1478 179 m 1197 157 b 1118 240 1144 157 1119 197 b 1197 322 1117 285 1144 324 b 1278 240 1251 324 1278 283 b 1197 157 1278 197 1251 157 m 742 319 b 788 276 772 319 788 300 b 740 233 788 251 772 233 l 674 233 l 674 319 "},"¡":{"ha":1796,"x_min":0,"x_max":0,"o":"m 278 638 l 299 638 l 210 833 l 190 833 l 103 638 l 124 638 l 144 683 l 257 683 m 485 833 l 463 833 l 392 658 l 318 833 l 297 833 l 381 638 l 403 638 m 658 638 l 679 638 l 592 833 l 572 833 l 483 638 l 504 638 l 525 683 l 639 683 m 732 638 l 732 833 l 713 833 l 713 638 m 786 833 l 786 638 l 915 638 l 915 656 l 806 656 l 806 833 m 1100 638 l 1121 638 l 1033 833 l 1014 833 l 925 638 l 946 638 l 967 683 l 1079 683 m 1154 833 l 1154 638 l 1238 638 b 1308 690 1272 638 1308 650 b 1272 738 1308 710 1296 731 b 1303 779 1292 744 1303 761 b 1238 833 1303 818 1272 833 m 1351 833 l 1351 638 l 1479 638 l 1479 656 l 1371 656 l 1371 833 m 1651 656 l 1531 656 l 1531 726 l 1644 726 l 1644 744 l 1531 744 l 1531 815 l 1650 815 l 1650 833 l 1511 833 l 1511 638 l 1651 638 m 1174 815 l 1238 815 b 1283 779 1261 815 1283 806 b 1239 747 1283 756 1263 747 l 1174 747 m 200 813 l 250 700 l 151 700 m 582 813 l 631 700 l 532 700 m 1024 813 l 1072 700 l 974 700 m 1174 729 l 1239 729 b 1289 690 1263 729 1289 718 b 1238 656 1289 663 1260 656 l 1174 656 m 89 390 l 89 586 l 69 586 l 69 390 m 156 586 l 143 586 l 143 390 l 163 390 l 163 547 l 289 390 l 301 390 l 301 586 l 282 586 l 282 426 m 467 390 l 486 390 l 486 567 l 556 567 l 556 586 l 397 586 l 397 567 l 467 567 m 744 390 l 744 586 l 725 586 l 725 494 l 607 494 l 607 586 l 588 586 l 588 390 l 607 390 l 607 476 l 725 476 l 725 390 m 940 408 l 819 408 l 819 479 l 932 479 l 932 497 l 819 497 l 819 567 l 938 567 l 938 586 l 799 586 l 799 390 l 940 390 m 1075 390 l 1075 475 l 1186 475 l 1186 493 l 1075 493 l 1075 567 l 1190 567 l 1190 586 l 1056 586 l 1056 390 m 1365 586 l 1365 465 b 1307 406 1365 424 1338 406 b 1249 465 1274 406 1249 428 l 1249 586 l 1229 586 l 1229 465 b 1307 388 1229 413 1265 388 b 1385 465 1350 388 1385 413 l 1385 586 m 1436 586 l 1436 390 l 1565 390 l 1565 408 l 1457 408 l 1457 586 m 1597 586 l 1597 390 l 1726 390 l 1726 408 l 1617 408 l 1617 586 m 992 307 b 918 342 974 333 944 342 b 843 288 885 342 843 328 b 917 235 843 249 881 242 b 976 196 947 229 976 222 b 918 158 976 164 943 158 b 854 192 894 158 867 167 l 836 182 b 918 139 851 151 886 139 b 997 196 954 139 997 151 b 919 253 997 238 958 246 b 863 288 889 258 863 264 b 918 322 863 315 894 322 b 975 297 939 322 964 317 m 1297 240 b 1197 342 1297 292 1264 342 b 1099 240 1135 342 1099 294 b 1197 139 1099 189 1131 138 b 1297 240 1264 138 1297 189 m 436 339 l 414 339 l 343 164 l 269 339 l 249 339 l 332 142 l 354 142 m 611 161 l 490 161 l 490 232 l 603 232 l 603 250 l 490 250 l 490 319 l 608 319 l 608 339 l 471 339 l 471 142 l 611 142 m 747 215 b 807 276 789 218 807 246 b 742 339 807 310 785 339 l 654 339 l 654 142 l 674 142 l 674 214 l 724 214 l 789 142 l 815 142 m 1057 142 l 1057 339 l 1038 339 l 1038 142 m 1351 339 l 1339 339 l 1339 142 l 1358 142 l 1358 300 l 1485 142 l 1496 142 l 1496 339 l 1476 339 l 1476 244 l 1478 179 m 1197 157 b 1118 240 1144 157 1119 197 b 1197 322 1117 285 1144 324 b 1278 240 1251 324 1278 283 b 1197 157 1278 197 1251 157 m 742 319 b 788 276 772 319 788 300 b 740 233 788 251 772 233 l 674 233 l 674 319 "},"#":{"ha":1796,"x_min":0,"x_max":0,"o":"m 278 638 l 299 638 l 210 833 l 190 833 l 103 638 l 124 638 l 144 683 l 257 683 m 485 833 l 463 833 l 392 658 l 318 833 l 297 833 l 381 638 l 403 638 m 658 638 l 679 638 l 592 833 l 572 833 l 483 638 l 504 638 l 525 683 l 639 683 m 732 638 l 732 833 l 713 833 l 713 638 m 786 833 l 786 638 l 915 638 l 915 656 l 806 656 l 806 833 m 1100 638 l 1121 638 l 1033 833 l 1014 833 l 925 638 l 946 638 l 967 683 l 1079 683 m 1154 833 l 1154 638 l 1238 638 b 1308 690 1272 638 1308 650 b 1272 738 1308 710 1296 731 b 1303 779 1292 744 1303 761 b 1238 833 1303 818 1272 833 m 1351 833 l 1351 638 l 1479 638 l 1479 656 l 1371 656 l 1371 833 m 1651 656 l 1531 656 l 1531 726 l 1644 726 l 1644 744 l 1531 744 l 1531 815 l 1650 815 l 1650 833 l 1511 833 l 1511 638 l 1651 638 m 1174 815 l 1238 815 b 1283 779 1261 815 1283 806 b 1239 747 1283 756 1263 747 l 1174 747 m 200 813 l 250 700 l 151 700 m 582 813 l 631 700 l 532 700 m 1024 813 l 1072 700 l 974 700 m 1174 729 l 1239 729 b 1289 690 1263 729 1289 718 b 1238 656 1289 663 1260 656 l 1174 656 m 89 390 l 89 586 l 69 586 l 69 390 m 156 586 l 143 586 l 143 390 l 163 390 l 163 547 l 289 390 l 301 390 l 301 586 l 282 586 l 282 426 m 467 390 l 486 390 l 486 567 l 556 567 l 556 586 l 397 586 l 397 567 l 467 567 m 744 390 l 744 586 l 725 586 l 725 494 l 607 494 l 607 586 l 588 586 l 588 390 l 607 390 l 607 476 l 725 476 l 725 390 m 940 408 l 819 408 l 819 479 l 932 479 l 932 497 l 819 497 l 819 567 l 938 567 l 938 586 l 799 586 l 799 390 l 940 390 m 1075 390 l 1075 475 l 1186 475 l 1186 493 l 1075 493 l 1075 567 l 1190 567 l 1190 586 l 1056 586 l 1056 390 m 1365 586 l 1365 465 b 1307 406 1365 424 1338 406 b 1249 465 1274 406 1249 428 l 1249 586 l 1229 586 l 1229 465 b 1307 388 1229 413 1265 388 b 1385 465 1350 388 1385 413 l 1385 586 m 1436 586 l 1436 390 l 1565 390 l 1565 408 l 1457 408 l 1457 586 m 1597 586 l 1597 390 l 1726 390 l 1726 408 l 1617 408 l 1617 586 m 992 307 b 918 342 974 333 944 342 b 843 288 885 342 843 328 b 917 235 843 249 881 242 b 976 196 947 229 976 222 b 918 158 976 164 943 158 b 854 192 894 158 867 167 l 836 182 b 918 139 851 151 886 139 b 997 196 954 139 997 151 b 919 253 997 238 958 246 b 863 288 889 258 863 264 b 918 322 863 315 894 322 b 975 297 939 322 964 317 m 1297 240 b 1197 342 1297 292 1264 342 b 1099 240 1135 342 1099 294 b 1197 139 1099 189 1131 138 b 1297 240 1264 138 1297 189 m 436 339 l 414 339 l 343 164 l 269 339 l 249 339 l 332 142 l 354 142 m 611 161 l 490 161 l 490 232 l 603 232 l 603 250 l 490 250 l 490 319 l 608 319 l 608 339 l 471 339 l 471 142 l 611 142 m 747 215 b 807 276 789 218 807 246 b 742 339 807 310 785 339 l 654 339 l 654 142 l 674 142 l 674 214 l 724 214 l 789 142 l 815 142 m 1057 142 l 1057 339 l 1038 339 l 1038 142 m 1351 339 l 1339 339 l 1339 142 l 1358 142 l 1358 300 l 1485 142 l 1496 142 l 1496 339 l 1476 339 l 1476 244 l 1478 179 m 1197 157 b 1118 240 1144 157 1119 197 b 1197 322 1117 285 1144 324 b 1278 240 1251 324 1278 283 b 1197 157 1278 197 1251 157 m 742 319 b 788 276 772 319 788 300 b 740 233 788 251 772 233 l 674 233 l 674 319 "},".":{"ha":224,"x_min":0,"x_max":0,"o":"m 114 129 b 174 36 164 128 178 78 b 101 -19 171 1 133 -19 b 114 129 21 -10 38 138 "},"·":{"ha":208,"x_min":0,"x_max":0,"o":"m 104 497 b 160 421 150 497 160 456 b 97 369 160 388 126 369 b 104 497 28 375 35 500 "},"?":{"ha":621,"x_min":0,"x_max":0,"o":"m 321 914 b 572 701 428 914 569 861 b 336 339 574 542 397 435 b 322 206 307 289 322 246 b 215 188 322 171 215 143 b 242 371 215 215 215 322 b 467 697 297 479 467 596 b 421 788 467 749 444 769 b 304 814 386 813 351 814 b 158 690 233 814 179 776 b 158 624 154 676 156 657 b 53 589 158 565 56 529 b 119 838 42 664 49 767 b 321 914 174 890 243 914 m 282 131 b 326 60 321 125 326 82 b 263 4 322 22 297 -8 b 282 131 190 19 200 131 "},"¿":{"ha":1796,"x_min":0,"x_max":0,"o":"m 278 638 l 299 638 l 210 833 l 190 833 l 103 638 l 124 638 l 144 683 l 257 683 m 485 833 l 463 833 l 392 658 l 318 833 l 297 833 l 381 638 l 403 638 m 658 638 l 679 638 l 592 833 l 572 833 l 483 638 l 504 638 l 525 683 l 639 683 m 732 638 l 732 833 l 713 833 l 713 638 m 786 833 l 786 638 l 915 638 l 915 656 l 806 656 l 806 833 m 1100 638 l 1121 638 l 1033 833 l 1014 833 l 925 638 l 946 638 l 967 683 l 1079 683 m 1154 833 l 1154 638 l 1238 638 b 1308 690 1272 638 1308 650 b 1272 738 1308 710 1296 731 b 1303 779 1292 744 1303 761 b 1238 833 1303 818 1272 833 m 1351 833 l 1351 638 l 1479 638 l 1479 656 l 1371 656 l 1371 833 m 1651 656 l 1531 656 l 1531 726 l 1644 726 l 1644 744 l 1531 744 l 1531 815 l 1650 815 l 1650 833 l 1511 833 l 1511 638 l 1651 638 m 1174 815 l 1238 815 b 1283 779 1261 815 1283 806 b 1239 747 1283 756 1263 747 l 1174 747 m 200 813 l 250 700 l 151 700 m 582 813 l 631 700 l 532 700 m 1024 813 l 1072 700 l 974 700 m 1174 729 l 1239 729 b 1289 690 1263 729 1289 718 b 1238 656 1289 663 1260 656 l 1174 656 m 89 390 l 89 586 l 69 586 l 69 390 m 156 586 l 143 586 l 143 390 l 163 390 l 163 547 l 289 390 l 301 390 l 301 586 l 282 586 l 282 426 m 467 390 l 486 390 l 486 567 l 556 567 l 556 586 l 397 586 l 397 567 l 467 567 m 744 390 l 744 586 l 725 586 l 725 494 l 607 494 l 607 586 l 588 586 l 588 390 l 607 390 l 607 476 l 725 476 l 725 390 m 940 408 l 819 408 l 819 479 l 932 479 l 932 497 l 819 497 l 819 567 l 938 567 l 938 586 l 799 586 l 799 390 l 940 390 m 1075 390 l 1075 475 l 1186 475 l 1186 493 l 1075 493 l 1075 567 l 1190 567 l 1190 586 l 1056 586 l 1056 390 m 1365 586 l 1365 465 b 1307 406 1365 424 1338 406 b 1249 465 1274 406 1249 428 l 1249 586 l 1229 586 l 1229 465 b 1307 388 1229 413 1265 388 b 1385 465 1350 388 1385 413 l 1385 586 m 1436 586 l 1436 390 l 1565 390 l 1565 408 l 1457 408 l 1457 586 m 1597 586 l 1597 390 l 1726 390 l 1726 408 l 1617 408 l 1617 586 m 992 307 b 918 342 974 333 944 342 b 843 288 885 342 843 328 b 917 235 843 249 881 242 b 976 196 947 229 976 222 b 918 158 976 164 943 158 b 854 192 894 158 867 167 l 836 182 b 918 139 851 151 886 139 b 997 196 954 139 997 151 b 919 253 997 238 958 246 b 863 288 889 258 863 264 b 918 322 863 315 894 322 b 975 297 939 322 964 317 m 1297 240 b 1197 342 1297 292 1264 342 b 1099 240 1135 342 1099 294 b 1197 139 1099 189 1131 138 b 1297 240 1264 138 1297 189 m 436 339 l 414 339 l 343 164 l 269 339 l 249 339 l 332 142 l 354 142 m 611 161 l 490 161 l 490 232 l 603 232 l 603 250 l 490 250 l 490 319 l 608 319 l 608 339 l 471 339 l 471 142 l 611 142 m 747 215 b 807 276 789 218 807 246 b 742 339 807 310 785 339 l 654 339 l 654 142 l 674 142 l 674 214 l 724 214 l 789 142 l 815 142 m 1057 142 l 1057 339 l 1038 339 l 1038 142 m 1351 339 l 1339 339 l 1339 142 l 1358 142 l 1358 300 l 1485 142 l 1496 142 l 1496 339 l 1476 339 l 1476 244 l 1478 179 m 1197 157 b 1118 240 1144 157 1119 197 b 1197 322 1117 285 1144 324 b 1278 240 1251 324 1278 283 b 1197 157 1278 197 1251 157 m 742 319 b 788 276 772 319 788 300 b 740 233 788 251 772 233 l 674 233 l 674 319 "},"\"":{"ha":1796,"x_min":0,"x_max":0,"o":"m 278 638 l 299 638 l 210 833 l 190 833 l 103 638 l 124 638 l 144 683 l 257 683 m 485 833 l 463 833 l 392 658 l 318 833 l 297 833 l 381 638 l 403 638 m 658 638 l 679 638 l 592 833 l 572 833 l 483 638 l 504 638 l 525 683 l 639 683 m 732 638 l 732 833 l 713 833 l 713 638 m 786 833 l 786 638 l 915 638 l 915 656 l 806 656 l 806 833 m 1100 638 l 1121 638 l 1033 833 l 1014 833 l 925 638 l 946 638 l 967 683 l 1079 683 m 1154 833 l 1154 638 l 1238 638 b 1308 690 1272 638 1308 650 b 1272 738 1308 710 1296 731 b 1303 779 1292 744 1303 761 b 1238 833 1303 818 1272 833 m 1351 833 l 1351 638 l 1479 638 l 1479 656 l 1371 656 l 1371 833 m 1651 656 l 1531 656 l 1531 726 l 1644 726 l 1644 744 l 1531 744 l 1531 815 l 1650 815 l 1650 833 l 1511 833 l 1511 638 l 1651 638 m 1174 815 l 1238 815 b 1283 779 1261 815 1283 806 b 1239 747 1283 756 1263 747 l 1174 747 m 200 813 l 250 700 l 151 700 m 582 813 l 631 700 l 532 700 m 1024 813 l 1072 700 l 974 700 m 1174 729 l 1239 729 b 1289 690 1263 729 1289 718 b 1238 656 1289 663 1260 656 l 1174 656 m 89 390 l 89 586 l 69 586 l 69 390 m 156 586 l 143 586 l 143 390 l 163 390 l 163 547 l 289 390 l 301 390 l 301 586 l 282 586 l 282 426 m 467 390 l 486 390 l 486 567 l 556 567 l 556 586 l 397 586 l 397 567 l 467 567 m 744 390 l 744 586 l 725 586 l 725 494 l 607 494 l 607 586 l 588 586 l 588 390 l 607 390 l 607 476 l 725 476 l 725 390 m 940 408 l 819 408 l 819 479 l 932 479 l 932 497 l 819 497 l 819 567 l 938 567 l 938 586 l 799 586 l 799 390 l 940 390 m 1075 390 l 1075 475 l 1186 475 l 1186 493 l 1075 493 l 1075 567 l 1190 567 l 1190 586 l 1056 586 l 1056 390 m 1365 586 l 1365 465 b 1307 406 1365 424 1338 406 b 1249 465 1274 406 1249 428 l 1249 586 l 1229 586 l 1229 465 b 1307 388 1229 413 1265 388 b 1385 465 1350 388 1385 413 l 1385 586 m 1436 586 l 1436 390 l 1565 390 l 1565 408 l 1457 408 l 1457 586 m 1597 586 l 1597 390 l 1726 390 l 1726 408 l 1617 408 l 1617 586 m 992 307 b 918 342 974 333 944 342 b 843 288 885 342 843 328 b 917 235 843 249 881 242 b 976 196 947 229 976 222 b 918 158 976 164 943 158 b 854 192 894 158 867 167 l 836 182 b 918 139 851 151 886 139 b 997 196 954 139 997 151 b 919 253 997 238 958 246 b 863 288 889 258 863 264 b 918 322 863 315 894 322 b 975 297 939 322 964 317 m 1297 240 b 1197 342 1297 292 1264 342 b 1099 240 1135 342 1099 294 b 1197 139 1099 189 1131 138 b 1297 240 1264 138 1297 189 m 436 339 l 414 339 l 343 164 l 269 339 l 249 339 l 332 142 l 354 142 m 611 161 l 490 161 l 490 232 l 603 232 l 603 250 l 490 250 l 490 319 l 608 319 l 608 339 l 471 339 l 471 142 l 611 142 m 747 215 b 807 276 789 218 807 246 b 742 339 807 310 785 339 l 654 339 l 654 142 l 674 142 l 674 214 l 724 214 l 789 142 l 815 142 m 1057 142 l 1057 339 l 1038 339 l 1038 142 m 1351 339 l 1339 339 l 1339 142 l 1358 142 l 1358 300 l 1485 142 l 1496 142 l 1496 339 l 1476 339 l 1476 244 l 1478 179 m 1197 157 b 1118 240 1144 157 1119 197 b 1197 322 1117 285 1144 324 b 1278 240 1251 324 1278 283 b 1197 157 1278 197 1251 157 m 742 319 b 788 276 772 319 788 300 b 740 233 788 251 772 233 l 674 233 l 674 319 "},"'":{"ha":1796,"x_min":0,"x_max":0,"o":"m 278 638 l 299 638 l 210 833 l 190 833 l 103 638 l 124 638 l 144 683 l 257 683 m 485 833 l 463 833 l 392 658 l 318 833 l 297 833 l 381 638 l 403 638 m 658 638 l 679 638 l 592 833 l 572 833 l 483 638 l 504 638 l 525 683 l 639 683 m 732 638 l 732 833 l 713 833 l 713 638 m 786 833 l 786 638 l 915 638 l 915 656 l 806 656 l 806 833 m 1100 638 l 1121 638 l 1033 833 l 1014 833 l 925 638 l 946 638 l 967 683 l 1079 683 m 1154 833 l 1154 638 l 1238 638 b 1308 690 1272 638 1308 650 b 1272 738 1308 710 1296 731 b 1303 779 1292 744 1303 761 b 1238 833 1303 818 1272 833 m 1351 833 l 1351 638 l 1479 638 l 1479 656 l 1371 656 l 1371 833 m 1651 656 l 1531 656 l 1531 726 l 1644 726 l 1644 744 l 1531 744 l 1531 815 l 1650 815 l 1650 833 l 1511 833 l 1511 638 l 1651 638 m 1174 815 l 1238 815 b 1283 779 1261 815 1283 806 b 1239 747 1283 756 1263 747 l 1174 747 m 200 813 l 250 700 l 151 700 m 582 813 l 631 700 l 532 700 m 1024 813 l 1072 700 l 974 700 m 1174 729 l 1239 729 b 1289 690 1263 729 1289 718 b 1238 656 1289 663 1260 656 l 1174 656 m 89 390 l 89 586 l 69 586 l 69 390 m 156 586 l 143 586 l 143 390 l 163 390 l 163 547 l 289 390 l 301 390 l 301 586 l 282 586 l 282 426 m 467 390 l 486 390 l 486 567 l 556 567 l 556 586 l 397 586 l 397 567 l 467 567 m 744 390 l 744 586 l 725 586 l 725 494 l 607 494 l 607 586 l 588 586 l 588 390 l 607 390 l 607 476 l 725 476 l 725 390 m 940 408 l 819 408 l 819 479 l 932 479 l 932 497 l 819 497 l 819 567 l 938 567 l 938 586 l 799 586 l 799 390 l 940 390 m 1075 390 l 1075 475 l 1186 475 l 1186 493 l 1075 493 l 1075 567 l 1190 567 l 1190 586 l 1056 586 l 1056 390 m 1365 586 l 1365 465 b 1307 406 1365 424 1338 406 b 1249 465 1274 406 1249 428 l 1249 586 l 1229 586 l 1229 465 b 1307 388 1229 413 1265 388 b 1385 465 1350 388 1385 413 l 1385 586 m 1436 586 l 1436 390 l 1565 390 l 1565 408 l 1457 408 l 1457 586 m 1597 586 l 1597 390 l 1726 390 l 1726 408 l 1617 408 l 1617 586 m 992 307 b 918 342 974 333 944 342 b 843 288 885 342 843 328 b 917 235 843 249 881 242 b 976 196 947 229 976 222 b 918 158 976 164 943 158 b 854 192 894 158 867 167 l 836 182 b 918 139 851 151 886 139 b 997 196 954 139 997 151 b 919 253 997 238 958 246 b 863 288 889 258 863 264 b 918 322 863 315 894 322 b 975 297 939 322 964 317 m 1297 240 b 1197 342 1297 292 1264 342 b 1099 240 1135 342 1099 294 b 1197 139 1099 189 1131 138 b 1297 240 1264 138 1297 189 m 436 339 l 414 339 l 343 164 l 269 339 l 249 339 l 332 142 l 354 142 m 611 161 l 490 161 l 490 232 l 603 232 l 603 250 l 490 250 l 490 319 l 608 319 l 608 339 l 471 339 l 471 142 l 611 142 m 747 215 b 807 276 789 218 807 246 b 742 339 807 310 785 339 l 654 339 l 654 142 l 674 142 l 674 214 l 724 214 l 789 142 l 815 142 m 1057 142 l 1057 339 l 1038 339 l 1038 142 m 1351 339 l 1339 339 l 1339 142 l 1358 142 l 1358 300 l 1485 142 l 1496 142 l 1496 339 l 1476 339 l 1476 244 l 1478 179 m 1197 157 b 1118 240 1144 157 1119 197 b 1197 322 1117 285 1144 324 b 1278 240 1251 324 1278 283 b 1197 157 1278 197 1251 157 m 742 319 b 788 276 772 319 788 300 b 740 233 788 251 772 233 l 674 233 l 674 319 "},";":{"ha":1796,"x_min":0,"x_max":0,"o":"m 278 638 l 299 638 l 210 833 l 190 833 l 103 638 l 124 638 l 144 683 l 257 683 m 485 833 l 463 833 l 392 658 l 318 833 l 297 833 l 381 638 l 403 638 m 658 638 l 679 638 l 592 833 l 572 833 l 483 638 l 504 638 l 525 683 l 639 683 m 732 638 l 732 833 l 713 833 l 713 638 m 786 833 l 786 638 l 915 638 l 915 656 l 806 656 l 806 833 m 1100 638 l 1121 638 l 1033 833 l 1014 833 l 925 638 l 946 638 l 967 683 l 1079 683 m 1154 833 l 1154 638 l 1238 638 b 1308 690 1272 638 1308 650 b 1272 738 1308 710 1296 731 b 1303 779 1292 744 1303 761 b 1238 833 1303 818 1272 833 m 1351 833 l 1351 638 l 1479 638 l 1479 656 l 1371 656 l 1371 833 m 1651 656 l 1531 656 l 1531 726 l 1644 726 l 1644 744 l 1531 744 l 1531 815 l 1650 815 l 1650 833 l 1511 833 l 1511 638 l 1651 638 m 1174 815 l 1238 815 b 1283 779 1261 815 1283 806 b 1239 747 1283 756 1263 747 l 1174 747 m 200 813 l 250 700 l 151 700 m 582 813 l 631 700 l 532 700 m 1024 813 l 1072 700 l 974 700 m 1174 729 l 1239 729 b 1289 690 1263 729 1289 718 b 1238 656 1289 663 1260 656 l 1174 656 m 89 390 l 89 586 l 69 586 l 69 390 m 156 586 l 143 586 l 143 390 l 163 390 l 163 547 l 289 390 l 301 390 l 301 586 l 282 586 l 282 426 m 467 390 l 486 390 l 486 567 l 556 567 l 556 586 l 397 586 l 397 567 l 467 567 m 744 390 l 744 586 l 725 586 l 725 494 l 607 494 l 607 586 l 588 586 l 588 390 l 607 390 l 607 476 l 725 476 l 725 390 m 940 408 l 819 408 l 819 479 l 932 479 l 932 497 l 819 497 l 819 567 l 938 567 l 938 586 l 799 586 l 799 390 l 940 390 m 1075 390 l 1075 475 l 1186 475 l 1186 493 l 1075 493 l 1075 567 l 1190 567 l 1190 586 l 1056 586 l 1056 390 m 1365 586 l 1365 465 b 1307 406 1365 424 1338 406 b 1249 465 1274 406 1249 428 l 1249 586 l 1229 586 l 1229 465 b 1307 388 1229 413 1265 388 b 1385 465 1350 388 1385 413 l 1385 586 m 1436 586 l 1436 390 l 1565 390 l 1565 408 l 1457 408 l 1457 586 m 1597 586 l 1597 390 l 1726 390 l 1726 408 l 1617 408 l 1617 586 m 992 307 b 918 342 974 333 944 342 b 843 288 885 342 843 328 b 917 235 843 249 881 242 b 976 196 947 229 976 222 b 918 158 976 164 943 158 b 854 192 894 158 867 167 l 836 182 b 918 139 851 151 886 139 b 997 196 954 139 997 151 b 919 253 997 238 958 246 b 863 288 889 258 863 264 b 918 322 863 315 894 322 b 975 297 939 322 964 317 m 1297 240 b 1197 342 1297 292 1264 342 b 1099 240 1135 342 1099 294 b 1197 139 1099 189 1131 138 b 1297 240 1264 138 1297 189 m 436 339 l 414 339 l 343 164 l 269 339 l 249 339 l 332 142 l 354 142 m 611 161 l 490 161 l 490 232 l 603 232 l 603 250 l 490 250 l 490 319 l 608 319 l 608 339 l 471 339 l 471 142 l 611 142 m 747 215 b 807 276 789 218 807 246 b 742 339 807 310 785 339 l 654 339 l 654 142 l 674 142 l 674 214 l 724 214 l 789 142 l 815 142 m 1057 142 l 1057 339 l 1038 339 l 1038 142 m 1351 339 l 1339 339 l 1339 142 l 1358 142 l 1358 300 l 1485 142 l 1496 142 l 1496 339 l 1476 339 l 1476 244 l 1478 179 m 1197 157 b 1118 240 1144 157 1119 197 b 1197 322 1117 285 1144 324 b 1278 240 1251 324 1278 283 b 1197 157 1278 197 1251 157 m 742 319 b 788 276 772 319 788 300 b 740 233 788 251 772 233 l 674 233 l 674 319 "},"/":{"ha":1796,"x_min":0,"x_max":0,"o":"m 278 638 l 299 638 l 210 833 l 190 833 l 103 638 l 124 638 l 144 683 l 257 683 m 485 833 l 463 833 l 392 658 l 318 833 l 297 833 l 381 638 l 403 638 m 658 638 l 679 638 l 592 833 l 572 833 l 483 638 l 504 638 l 525 683 l 639 683 m 732 638 l 732 833 l 713 833 l 713 638 m 786 833 l 786 638 l 915 638 l 915 656 l 806 656 l 806 833 m 1100 638 l 1121 638 l 1033 833 l 1014 833 l 925 638 l 946 638 l 967 683 l 1079 683 m 1154 833 l 1154 638 l 1238 638 b 1308 690 1272 638 1308 650 b 1272 738 1308 710 1296 731 b 1303 779 1292 744 1303 761 b 1238 833 1303 818 1272 833 m 1351 833 l 1351 638 l 1479 638 l 1479 656 l 1371 656 l 1371 833 m 1651 656 l 1531 656 l 1531 726 l 1644 726 l 1644 744 l 1531 744 l 1531 815 l 1650 815 l 1650 833 l 1511 833 l 1511 638 l 1651 638 m 1174 815 l 1238 815 b 1283 779 1261 815 1283 806 b 1239 747 1283 756 1263 747 l 1174 747 m 200 813 l 250 700 l 151 700 m 582 813 l 631 700 l 532 700 m 1024 813 l 1072 700 l 974 700 m 1174 729 l 1239 729 b 1289 690 1263 729 1289 718 b 1238 656 1289 663 1260 656 l 1174 656 m 89 390 l 89 586 l 69 586 l 69 390 m 156 586 l 143 586 l 143 390 l 163 390 l 163 547 l 289 390 l 301 390 l 301 586 l 282 586 l 282 426 m 467 390 l 486 390 l 486 567 l 556 567 l 556 586 l 397 586 l 397 567 l 467 567 m 744 390 l 744 586 l 725 586 l 725 494 l 607 494 l 607 586 l 588 586 l 588 390 l 607 390 l 607 476 l 725 476 l 725 390 m 940 408 l 819 408 l 819 479 l 932 479 l 932 497 l 819 497 l 819 567 l 938 567 l 938 586 l 799 586 l 799 390 l 940 390 m 1075 390 l 1075 475 l 1186 475 l 1186 493 l 1075 493 l 1075 567 l 1190 567 l 1190 586 l 1056 586 l 1056 390 m 1365 586 l 1365 465 b 1307 406 1365 424 1338 406 b 1249 465 1274 406 1249 428 l 1249 586 l 1229 586 l 1229 465 b 1307 388 1229 413 1265 388 b 1385 465 1350 388 1385 413 l 1385 586 m 1436 586 l 1436 390 l 1565 390 l 1565 408 l 1457 408 l 1457 586 m 1597 586 l 1597 390 l 1726 390 l 1726 408 l 1617 408 l 1617 586 m 992 307 b 918 342 974 333 944 342 b 843 288 885 342 843 328 b 917 235 843 249 881 242 b 976 196 947 229 976 222 b 918 158 976 164 943 158 b 854 192 894 158 867 167 l 836 182 b 918 139 851 151 886 139 b 997 196 954 139 997 151 b 919 253 997 238 958 246 b 863 288 889 258 863 264 b 918 322 863 315 894 322 b 975 297 939 322 964 317 m 1297 240 b 1197 342 1297 292 1264 342 b 1099 240 1135 342 1099 294 b 1197 139 1099 189 1131 138 b 1297 240 1264 138 1297 189 m 436 339 l 414 339 l 343 164 l 269 339 l 249 339 l 332 142 l 354 142 m 611 161 l 490 161 l 490 232 l 603 232 l 603 250 l 490 250 l 490 319 l 608 319 l 608 339 l 471 339 l 471 142 l 611 142 m 747 215 b 807 276 789 218 807 246 b 742 339 807 310 785 339 l 654 339 l 654 142 l 674 142 l 674 214 l 724 214 l 789 142 l 815 142 m 1057 142 l 1057 339 l 1038 339 l 1038 142 m 1351 339 l 1339 339 l 1339 142 l 1358 142 l 1358 300 l 1485 142 l 1496 142 l 1496 339 l 1476 339 l 1476 244 l 1478 179 m 1197 157 b 1118 240 1144 157 1119 197 b 1197 322 1117 285 1144 324 b 1278 240 1251 324 1278 283 b 1197 157 1278 197 1251 157 m 742 319 b 788 276 772 319 788 300 b 740 233 788 251 772 233 l 674 233 l 674 319 "},"_":{"ha":1796,"x_min":0,"x_max":0,"o":"m 278 638 l 299 638 l 210 833 l 190 833 l 103 638 l 124 638 l 144 683 l 257 683 m 485 833 l 463 833 l 392 658 l 318 833 l 297 833 l 381 638 l 403 638 m 658 638 l 679 638 l 592 833 l 572 833 l 483 638 l 504 638 l 525 683 l 639 683 m 732 638 l 732 833 l 713 833 l 713 638 m 786 833 l 786 638 l 915 638 l 915 656 l 806 656 l 806 833 m 1100 638 l 1121 638 l 1033 833 l 1014 833 l 925 638 l 946 638 l 967 683 l 1079 683 m 1154 833 l 1154 638 l 1238 638 b 1308 690 1272 638 1308 650 b 1272 738 1308 710 1296 731 b 1303 779 1292 744 1303 761 b 1238 833 1303 818 1272 833 m 1351 833 l 1351 638 l 1479 638 l 1479 656 l 1371 656 l 1371 833 m 1651 656 l 1531 656 l 1531 726 l 1644 726 l 1644 744 l 1531 744 l 1531 815 l 1650 815 l 1650 833 l 1511 833 l 1511 638 l 1651 638 m 1174 815 l 1238 815 b 1283 779 1261 815 1283 806 b 1239 747 1283 756 1263 747 l 1174 747 m 200 813 l 250 700 l 151 700 m 582 813 l 631 700 l 532 700 m 1024 813 l 1072 700 l 974 700 m 1174 729 l 1239 729 b 1289 690 1263 729 1289 718 b 1238 656 1289 663 1260 656 l 1174 656 m 89 390 l 89 586 l 69 586 l 69 390 m 156 586 l 143 586 l 143 390 l 163 390 l 163 547 l 289 390 l 301 390 l 301 586 l 282 586 l 282 426 m 467 390 l 486 390 l 486 567 l 556 567 l 556 586 l 397 586 l 397 567 l 467 567 m 744 390 l 744 586 l 725 586 l 725 494 l 607 494 l 607 586 l 588 586 l 588 390 l 607 390 l 607 476 l 725 476 l 725 390 m 940 408 l 819 408 l 819 479 l 932 479 l 932 497 l 819 497 l 819 567 l 938 567 l 938 586 l 799 586 l 799 390 l 940 390 m 1075 390 l 1075 475 l 1186 475 l 1186 493 l 1075 493 l 1075 567 l 1190 567 l 1190 586 l 1056 586 l 1056 390 m 1365 586 l 1365 465 b 1307 406 1365 424 1338 406 b 1249 465 1274 406 1249 428 l 1249 586 l 1229 586 l 1229 465 b 1307 388 1229 413 1265 388 b 1385 465 1350 388 1385 413 l 1385 586 m 1436 586 l 1436 390 l 1565 390 l 1565 408 l 1457 408 l 1457 586 m 1597 586 l 1597 390 l 1726 390 l 1726 408 l 1617 408 l 1617 586 m 992 307 b 918 342 974 333 944 342 b 843 288 885 342 843 328 b 917 235 843 249 881 242 b 976 196 947 229 976 222 b 918 158 976 164 943 158 b 854 192 894 158 867 167 l 836 182 b 918 139 851 151 886 139 b 997 196 954 139 997 151 b 919 253 997 238 958 246 b 863 288 889 258 863 264 b 918 322 863 315 894 322 b 975 297 939 322 964 317 m 1297 240 b 1197 342 1297 292 1264 342 b 1099 240 1135 342 1099 294 b 1197 139 1099 189 1131 138 b 1297 240 1264 138 1297 189 m 436 339 l 414 339 l 343 164 l 269 339 l 249 339 l 332 142 l 354 142 m 611 161 l 490 161 l 490 232 l 603 232 l 603 250 l 490 250 l 490 319 l 608 319 l 608 339 l 471 339 l 471 142 l 611 142 m 747 215 b 807 276 789 218 807 246 b 742 339 807 310 785 339 l 654 339 l 654 142 l 674 142 l 674 214 l 724 214 l 789 142 l 815 142 m 1057 142 l 1057 339 l 1038 339 l 1038 142 m 1351 339 l 1339 339 l 1339 142 l 1358 142 l 1358 300 l 1485 142 l 1496 142 l 1496 339 l 1476 339 l 1476 244 l 1478 179 m 1197 157 b 1118 240 1144 157 1119 197 b 1197 322 1117 285 1144 324 b 1278 240 1251 324 1278 283 b 1197 157 1278 197 1251 157 m 742 319 b 788 276 772 319 788 300 b 740 233 788 251 772 233 l 674 233 l 674 319 "},"{":{"ha":1796,"x_min":0,"x_max":0,"o":"m 278 638 l 299 638 l 210 833 l 190 833 l 103 638 l 124 638 l 144 683 l 257 683 m 485 833 l 463 833 l 392 658 l 318 833 l 297 833 l 381 638 l 403 638 m 658 638 l 679 638 l 592 833 l 572 833 l 483 638 l 504 638 l 525 683 l 639 683 m 732 638 l 732 833 l 713 833 l 713 638 m 786 833 l 786 638 l 915 638 l 915 656 l 806 656 l 806 833 m 1100 638 l 1121 638 l 1033 833 l 1014 833 l 925 638 l 946 638 l 967 683 l 1079 683 m 1154 833 l 1154 638 l 1238 638 b 1308 690 1272 638 1308 650 b 1272 738 1308 710 1296 731 b 1303 779 1292 744 1303 761 b 1238 833 1303 818 1272 833 m 1351 833 l 1351 638 l 1479 638 l 1479 656 l 1371 656 l 1371 833 m 1651 656 l 1531 656 l 1531 726 l 1644 726 l 1644 744 l 1531 744 l 1531 815 l 1650 815 l 1650 833 l 1511 833 l 1511 638 l 1651 638 m 1174 815 l 1238 815 b 1283 779 1261 815 1283 806 b 1239 747 1283 756 1263 747 l 1174 747 m 200 813 l 250 700 l 151 700 m 582 813 l 631 700 l 532 700 m 1024 813 l 1072 700 l 974 700 m 1174 729 l 1239 729 b 1289 690 1263 729 1289 718 b 1238 656 1289 663 1260 656 l 1174 656 m 89 390 l 89 586 l 69 586 l 69 390 m 156 586 l 143 586 l 143 390 l 163 390 l 163 547 l 289 390 l 301 390 l 301 586 l 282 586 l 282 426 m 467 390 l 486 390 l 486 567 l 556 567 l 556 586 l 397 586 l 397 567 l 467 567 m 744 390 l 744 586 l 725 586 l 725 494 l 607 494 l 607 586 l 588 586 l 588 390 l 607 390 l 607 476 l 725 476 l 725 390 m 940 408 l 819 408 l 819 479 l 932 479 l 932 497 l 819 497 l 819 567 l 938 567 l 938 586 l 799 586 l 799 390 l 940 390 m 1075 390 l 1075 475 l 1186 475 l 1186 493 l 1075 493 l 1075 567 l 1190 567 l 1190 586 l 1056 586 l 1056 390 m 1365 586 l 1365 465 b 1307 406 1365 424 1338 406 b 1249 465 1274 406 1249 428 l 1249 586 l 1229 586 l 1229 465 b 1307 388 1229 413 1265 388 b 1385 465 1350 388 1385 413 l 1385 586 m 1436 586 l 1436 390 l 1565 390 l 1565 408 l 1457 408 l 1457 586 m 1597 586 l 1597 390 l 1726 390 l 1726 408 l 1617 408 l 1617 586 m 992 307 b 918 342 974 333 944 342 b 843 288 885 342 843 328 b 917 235 843 249 881 242 b 976 196 947 229 976 222 b 918 158 976 164 943 158 b 854 192 894 158 867 167 l 836 182 b 918 139 851 151 886 139 b 997 196 954 139 997 151 b 919 253 997 238 958 246 b 863 288 889 258 863 264 b 918 322 863 315 894 322 b 975 297 939 322 964 317 m 1297 240 b 1197 342 1297 292 1264 342 b 1099 240 1135 342 1099 294 b 1197 139 1099 189 1131 138 b 1297 240 1264 138 1297 189 m 436 339 l 414 339 l 343 164 l 269 339 l 249 339 l 332 142 l 354 142 m 611 161 l 490 161 l 490 232 l 603 232 l 603 250 l 490 250 l 490 319 l 608 319 l 608 339 l 471 339 l 471 142 l 611 142 m 747 215 b 807 276 789 218 807 246 b 742 339 807 310 785 339 l 654 339 l 654 142 l 674 142 l 674 214 l 724 214 l 789 142 l 815 142 m 1057 142 l 1057 339 l 1038 339 l 1038 142 m 1351 339 l 1339 339 l 1339 142 l 1358 142 l 1358 300 l 1485 142 l 1496 142 l 1496 339 l 1476 339 l 1476 244 l 1478 179 m 1197 157 b 1118 240 1144 157 1119 197 b 1197 322 1117 285 1144 324 b 1278 240 1251 324 1278 283 b 1197 157 1278 197 1251 157 m 742 319 b 788 276 772 319 788 300 b 740 233 788 251 772 233 l 674 233 l 674 319 "},"}":{"ha":1796,"x_min":0,"x_max":0,"o":"m 278 638 l 299 638 l 210 833 l 190 833 l 103 638 l 124 638 l 144 683 l 257 683 m 485 833 l 463 833 l 392 658 l 318 833 l 297 833 l 381 638 l 403 638 m 658 638 l 679 638 l 592 833 l 572 833 l 483 638 l 504 638 l 525 683 l 639 683 m 732 638 l 732 833 l 713 833 l 713 638 m 786 833 l 786 638 l 915 638 l 915 656 l 806 656 l 806 833 m 1100 638 l 1121 638 l 1033 833 l 1014 833 l 925 638 l 946 638 l 967 683 l 1079 683 m 1154 833 l 1154 638 l 1238 638 b 1308 690 1272 638 1308 650 b 1272 738 1308 710 1296 731 b 1303 779 1292 744 1303 761 b 1238 833 1303 818 1272 833 m 1351 833 l 1351 638 l 1479 638 l 1479 656 l 1371 656 l 1371 833 m 1651 656 l 1531 656 l 1531 726 l 1644 726 l 1644 744 l 1531 744 l 1531 815 l 1650 815 l 1650 833 l 1511 833 l 1511 638 l 1651 638 m 1174 815 l 1238 815 b 1283 779 1261 815 1283 806 b 1239 747 1283 756 1263 747 l 1174 747 m 200 813 l 250 700 l 151 700 m 582 813 l 631 700 l 532 700 m 1024 813 l 1072 700 l 974 700 m 1174 729 l 1239 729 b 1289 690 1263 729 1289 718 b 1238 656 1289 663 1260 656 l 1174 656 m 89 390 l 89 586 l 69 586 l 69 390 m 156 586 l 143 586 l 143 390 l 163 390 l 163 547 l 289 390 l 301 390 l 301 586 l 282 586 l 282 426 m 467 390 l 486 390 l 486 567 l 556 567 l 556 586 l 397 586 l 397 567 l 467 567 m 744 390 l 744 586 l 725 586 l 725 494 l 607 494 l 607 586 l 588 586 l 588 390 l 607 390 l 607 476 l 725 476 l 725 390 m 940 408 l 819 408 l 819 479 l 932 479 l 932 497 l 819 497 l 819 567 l 938 567 l 938 586 l 799 586 l 799 390 l 940 390 m 1075 390 l 1075 475 l 1186 475 l 1186 493 l 1075 493 l 1075 567 l 1190 567 l 1190 586 l 1056 586 l 1056 390 m 1365 586 l 1365 465 b 1307 406 1365 424 1338 406 b 1249 465 1274 406 1249 428 l 1249 586 l 1229 586 l 1229 465 b 1307 388 1229 413 1265 388 b 1385 465 1350 388 1385 413 l 1385 586 m 1436 586 l 1436 390 l 1565 390 l 1565 408 l 1457 408 l 1457 586 m 1597 586 l 1597 390 l 1726 390 l 1726 408 l 1617 408 l 1617 586 m 992 307 b 918 342 974 333 944 342 b 843 288 885 342 843 328 b 917 235 843 249 881 242 b 976 196 947 229 976 222 b 918 158 976 164 943 158 b 854 192 894 158 867 167 l 836 182 b 918 139 851 151 886 139 b 997 196 954 139 997 151 b 919 253 997 238 958 246 b 863 288 889 258 863 264 b 918 322 863 315 894 322 b 975 297 939 322 964 317 m 1297 240 b 1197 342 1297 292 1264 342 b 1099 240 1135 342 1099 294 b 1197 139 1099 189 1131 138 b 1297 240 1264 138 1297 189 m 436 339 l 414 339 l 343 164 l 269 339 l 249 339 l 332 142 l 354 142 m 611 161 l 490 161 l 490 232 l 603 232 l 603 250 l 490 250 l 490 319 l 608 319 l 608 339 l 471 339 l 471 142 l 611 142 m 747 215 b 807 276 789 218 807 246 b 742 339 807 310 785 339 l 654 339 l 654 142 l 674 142 l 674 214 l 724 214 l 789 142 l 815 142 m 1057 142 l 1057 339 l 1038 339 l 1038 142 m 1351 339 l 1339 339 l 1339 142 l 1358 142 l 1358 300 l 1485 142 l 1496 142 l 1496 339 l 1476 339 l 1476 244 l 1478 179 m 1197 157 b 1118 240 1144 157 1119 197 b 1197 322 1117 285 1144 324 b 1278 240 1251 324 1278 283 b 1197 157 1278 197 1251 157 m 742 319 b 788 276 772 319 788 300 b 740 233 788 251 772 233 l 674 233 l 674 319 "},"[":{"ha":1796,"x_min":0,"x_max":0,"o":"m 278 638 l 299 638 l 210 833 l 190 833 l 103 638 l 124 638 l 144 683 l 257 683 m 485 833 l 463 833 l 392 658 l 318 833 l 297 833 l 381 638 l 403 638 m 658 638 l 679 638 l 592 833 l 572 833 l 483 638 l 504 638 l 525 683 l 639 683 m 732 638 l 732 833 l 713 833 l 713 638 m 786 833 l 786 638 l 915 638 l 915 656 l 806 656 l 806 833 m 1100 638 l 1121 638 l 1033 833 l 1014 833 l 925 638 l 946 638 l 967 683 l 1079 683 m 1154 833 l 1154 638 l 1238 638 b 1308 690 1272 638 1308 650 b 1272 738 1308 710 1296 731 b 1303 779 1292 744 1303 761 b 1238 833 1303 818 1272 833 m 1351 833 l 1351 638 l 1479 638 l 1479 656 l 1371 656 l 1371 833 m 1651 656 l 1531 656 l 1531 726 l 1644 726 l 1644 744 l 1531 744 l 1531 815 l 1650 815 l 1650 833 l 1511 833 l 1511 638 l 1651 638 m 1174 815 l 1238 815 b 1283 779 1261 815 1283 806 b 1239 747 1283 756 1263 747 l 1174 747 m 200 813 l 250 700 l 151 700 m 582 813 l 631 700 l 532 700 m 1024 813 l 1072 700 l 974 700 m 1174 729 l 1239 729 b 1289 690 1263 729 1289 718 b 1238 656 1289 663 1260 656 l 1174 656 m 89 390 l 89 586 l 69 586 l 69 390 m 156 586 l 143 586 l 143 390 l 163 390 l 163 547 l 289 390 l 301 390 l 301 586 l 282 586 l 282 426 m 467 390 l 486 390 l 486 567 l 556 567 l 556 586 l 397 586 l 397 567 l 467 567 m 744 390 l 744 586 l 725 586 l 725 494 l 607 494 l 607 586 l 588 586 l 588 390 l 607 390 l 607 476 l 725 476 l 725 390 m 940 408 l 819 408 l 819 479 l 932 479 l 932 497 l 819 497 l 819 567 l 938 567 l 938 586 l 799 586 l 799 390 l 940 390 m 1075 390 l 1075 475 l 1186 475 l 1186 493 l 1075 493 l 1075 567 l 1190 567 l 1190 586 l 1056 586 l 1056 390 m 1365 586 l 1365 465 b 1307 406 1365 424 1338 406 b 1249 465 1274 406 1249 428 l 1249 586 l 1229 586 l 1229 465 b 1307 388 1229 413 1265 388 b 1385 465 1350 388 1385 413 l 1385 586 m 1436 586 l 1436 390 l 1565 390 l 1565 408 l 1457 408 l 1457 586 m 1597 586 l 1597 390 l 1726 390 l 1726 408 l 1617 408 l 1617 586 m 992 307 b 918 342 974 333 944 342 b 843 288 885 342 843 328 b 917 235 843 249 881 242 b 976 196 947 229 976 222 b 918 158 976 164 943 158 b 854 192 894 158 867 167 l 836 182 b 918 139 851 151 886 139 b 997 196 954 139 997 151 b 919 253 997 238 958 246 b 863 288 889 258 863 264 b 918 322 863 315 894 322 b 975 297 939 322 964 317 m 1297 240 b 1197 342 1297 292 1264 342 b 1099 240 1135 342 1099 294 b 1197 139 1099 189 1131 138 b 1297 240 1264 138 1297 189 m 436 339 l 414 339 l 343 164 l 269 339 l 249 339 l 332 142 l 354 142 m 611 161 l 490 161 l 490 232 l 603 232 l 603 250 l 490 250 l 490 319 l 608 319 l 608 339 l 471 339 l 471 142 l 611 142 m 747 215 b 807 276 789 218 807 246 b 742 339 807 310 785 339 l 654 339 l 654 142 l 674 142 l 674 214 l 724 214 l 789 142 l 815 142 m 1057 142 l 1057 339 l 1038 339 l 1038 142 m 1351 339 l 1339 339 l 1339 142 l 1358 142 l 1358 300 l 1485 142 l 1496 142 l 1496 339 l 1476 339 l 1476 244 l 1478 179 m 1197 157 b 1118 240 1144 157 1119 197 b 1197 322 1117 285 1144 324 b 1278 240 1251 324 1278 283 b 1197 157 1278 197 1251 157 m 742 319 b 788 276 772 319 788 300 b 740 233 788 251 772 233 l 674 233 l 674 319 "},"]":{"ha":1796,"x_min":0,"x_max":0,"o":"m 278 638 l 299 638 l 210 833 l 190 833 l 103 638 l 124 638 l 144 683 l 257 683 m 485 833 l 463 833 l 392 658 l 318 833 l 297 833 l 381 638 l 403 638 m 658 638 l 679 638 l 592 833 l 572 833 l 483 638 l 504 638 l 525 683 l 639 683 m 732 638 l 732 833 l 713 833 l 713 638 m 786 833 l 786 638 l 915 638 l 915 656 l 806 656 l 806 833 m 1100 638 l 1121 638 l 1033 833 l 1014 833 l 925 638 l 946 638 l 967 683 l 1079 683 m 1154 833 l 1154 638 l 1238 638 b 1308 690 1272 638 1308 650 b 1272 738 1308 710 1296 731 b 1303 779 1292 744 1303 761 b 1238 833 1303 818 1272 833 m 1351 833 l 1351 638 l 1479 638 l 1479 656 l 1371 656 l 1371 833 m 1651 656 l 1531 656 l 1531 726 l 1644 726 l 1644 744 l 1531 744 l 1531 815 l 1650 815 l 1650 833 l 1511 833 l 1511 638 l 1651 638 m 1174 815 l 1238 815 b 1283 779 1261 815 1283 806 b 1239 747 1283 756 1263 747 l 1174 747 m 200 813 l 250 700 l 151 700 m 582 813 l 631 700 l 532 700 m 1024 813 l 1072 700 l 974 700 m 1174 729 l 1239 729 b 1289 690 1263 729 1289 718 b 1238 656 1289 663 1260 656 l 1174 656 m 89 390 l 89 586 l 69 586 l 69 390 m 156 586 l 143 586 l 143 390 l 163 390 l 163 547 l 289 390 l 301 390 l 301 586 l 282 586 l 282 426 m 467 390 l 486 390 l 486 567 l 556 567 l 556 586 l 397 586 l 397 567 l 467 567 m 744 390 l 744 586 l 725 586 l 725 494 l 607 494 l 607 586 l 588 586 l 588 390 l 607 390 l 607 476 l 725 476 l 725 390 m 940 408 l 819 408 l 819 479 l 932 479 l 932 497 l 819 497 l 819 567 l 938 567 l 938 586 l 799 586 l 799 390 l 940 390 m 1075 390 l 1075 475 l 1186 475 l 1186 493 l 1075 493 l 1075 567 l 1190 567 l 1190 586 l 1056 586 l 1056 390 m 1365 586 l 1365 465 b 1307 406 1365 424 1338 406 b 1249 465 1274 406 1249 428 l 1249 586 l 1229 586 l 1229 465 b 1307 388 1229 413 1265 388 b 1385 465 1350 388 1385 413 l 1385 586 m 1436 586 l 1436 390 l 1565 390 l 1565 408 l 1457 408 l 1457 586 m 1597 586 l 1597 390 l 1726 390 l 1726 408 l 1617 408 l 1617 586 m 992 307 b 918 342 974 333 944 342 b 843 288 885 342 843 328 b 917 235 843 249 881 242 b 976 196 947 229 976 222 b 918 158 976 164 943 158 b 854 192 894 158 867 167 l 836 182 b 918 139 851 151 886 139 b 997 196 954 139 997 151 b 919 253 997 238 958 246 b 863 288 889 258 863 264 b 918 322 863 315 894 322 b 975 297 939 322 964 317 m 1297 240 b 1197 342 1297 292 1264 342 b 1099 240 1135 342 1099 294 b 1197 139 1099 189 1131 138 b 1297 240 1264 138 1297 189 m 436 339 l 414 339 l 343 164 l 269 339 l 249 339 l 332 142 l 354 142 m 611 161 l 490 161 l 490 232 l 603 232 l 603 250 l 490 250 l 490 319 l 608 319 l 608 339 l 471 339 l 471 142 l 611 142 m 747 215 b 807 276 789 218 807 246 b 742 339 807 310 785 339 l 654 339 l 654 142 l 674 142 l 674 214 l 724 214 l 789 142 l 815 142 m 1057 142 l 1057 339 l 1038 339 l 1038 142 m 1351 339 l 1339 339 l 1339 142 l 1358 142 l 1358 300 l 1485 142 l 1496 142 l 1496 339 l 1476 339 l 1476 244 l 1478 179 m 1197 157 b 1118 240 1144 157 1119 197 b 1197 322 1117 285 1144 324 b 1278 240 1251 324 1278 283 b 1197 157 1278 197 1251 157 m 742 319 b 788 276 772 319 788 300 b 740 233 788 251 772 233 l 674 233 l 674 319 "},"(":{"ha":1796,"x_min":0,"x_max":0,"o":"m 278 638 l 299 638 l 210 833 l 190 833 l 103 638 l 124 638 l 144 683 l 257 683 m 485 833 l 463 833 l 392 658 l 318 833 l 297 833 l 381 638 l 403 638 m 658 638 l 679 638 l 592 833 l 572 833 l 483 638 l 504 638 l 525 683 l 639 683 m 732 638 l 732 833 l 713 833 l 713 638 m 786 833 l 786 638 l 915 638 l 915 656 l 806 656 l 806 833 m 1100 638 l 1121 638 l 1033 833 l 1014 833 l 925 638 l 946 638 l 967 683 l 1079 683 m 1154 833 l 1154 638 l 1238 638 b 1308 690 1272 638 1308 650 b 1272 738 1308 710 1296 731 b 1303 779 1292 744 1303 761 b 1238 833 1303 818 1272 833 m 1351 833 l 1351 638 l 1479 638 l 1479 656 l 1371 656 l 1371 833 m 1651 656 l 1531 656 l 1531 726 l 1644 726 l 1644 744 l 1531 744 l 1531 815 l 1650 815 l 1650 833 l 1511 833 l 1511 638 l 1651 638 m 1174 815 l 1238 815 b 1283 779 1261 815 1283 806 b 1239 747 1283 756 1263 747 l 1174 747 m 200 813 l 250 700 l 151 700 m 582 813 l 631 700 l 532 700 m 1024 813 l 1072 700 l 974 700 m 1174 729 l 1239 729 b 1289 690 1263 729 1289 718 b 1238 656 1289 663 1260 656 l 1174 656 m 89 390 l 89 586 l 69 586 l 69 390 m 156 586 l 143 586 l 143 390 l 163 390 l 163 547 l 289 390 l 301 390 l 301 586 l 282 586 l 282 426 m 467 390 l 486 390 l 486 567 l 556 567 l 556 586 l 397 586 l 397 567 l 467 567 m 744 390 l 744 586 l 725 586 l 725 494 l 607 494 l 607 586 l 588 586 l 588 390 l 607 390 l 607 476 l 725 476 l 725 390 m 940 408 l 819 408 l 819 479 l 932 479 l 932 497 l 819 497 l 819 567 l 938 567 l 938 586 l 799 586 l 799 390 l 940 390 m 1075 390 l 1075 475 l 1186 475 l 1186 493 l 1075 493 l 1075 567 l 1190 567 l 1190 586 l 1056 586 l 1056 390 m 1365 586 l 1365 465 b 1307 406 1365 424 1338 406 b 1249 465 1274 406 1249 428 l 1249 586 l 1229 586 l 1229 465 b 1307 388 1229 413 1265 388 b 1385 465 1350 388 1385 413 l 1385 586 m 1436 586 l 1436 390 l 1565 390 l 1565 408 l 1457 408 l 1457 586 m 1597 586 l 1597 390 l 1726 390 l 1726 408 l 1617 408 l 1617 586 m 992 307 b 918 342 974 333 944 342 b 843 288 885 342 843 328 b 917 235 843 249 881 242 b 976 196 947 229 976 222 b 918 158 976 164 943 158 b 854 192 894 158 867 167 l 836 182 b 918 139 851 151 886 139 b 997 196 954 139 997 151 b 919 253 997 238 958 246 b 863 288 889 258 863 264 b 918 322 863 315 894 322 b 975 297 939 322 964 317 m 1297 240 b 1197 342 1297 292 1264 342 b 1099 240 1135 342 1099 294 b 1197 139 1099 189 1131 138 b 1297 240 1264 138 1297 189 m 436 339 l 414 339 l 343 164 l 269 339 l 249 339 l 332 142 l 354 142 m 611 161 l 490 161 l 490 232 l 603 232 l 603 250 l 490 250 l 490 319 l 608 319 l 608 339 l 471 339 l 471 142 l 611 142 m 747 215 b 807 276 789 218 807 246 b 742 339 807 310 785 339 l 654 339 l 654 142 l 674 142 l 674 214 l 724 214 l 789 142 l 815 142 m 1057 142 l 1057 339 l 1038 339 l 1038 142 m 1351 339 l 1339 339 l 1339 142 l 1358 142 l 1358 300 l 1485 142 l 1496 142 l 1496 339 l 1476 339 l 1476 244 l 1478 179 m 1197 157 b 1118 240 1144 157 1119 197 b 1197 322 1117 285 1144 324 b 1278 240 1251 324 1278 283 b 1197 157 1278 197 1251 157 m 742 319 b 788 276 772 319 788 300 b 740 233 788 251 772 233 l 674 233 l 674 319 "},")":{"ha":1796,"x_min":0,"x_max":0,"o":"m 278 638 l 299 638 l 210 833 l 190 833 l 103 638 l 124 638 l 144 683 l 257 683 m 485 833 l 463 833 l 392 658 l 318 833 l 297 833 l 381 638 l 403 638 m 658 638 l 679 638 l 592 833 l 572 833 l 483 638 l 504 638 l 525 683 l 639 683 m 732 638 l 732 833 l 713 833 l 713 638 m 786 833 l 786 638 l 915 638 l 915 656 l 806 656 l 806 833 m 1100 638 l 1121 638 l 1033 833 l 1014 833 l 925 638 l 946 638 l 967 683 l 1079 683 m 1154 833 l 1154 638 l 1238 638 b 1308 690 1272 638 1308 650 b 1272 738 1308 710 1296 731 b 1303 779 1292 744 1303 761 b 1238 833 1303 818 1272 833 m 1351 833 l 1351 638 l 1479 638 l 1479 656 l 1371 656 l 1371 833 m 1651 656 l 1531 656 l 1531 726 l 1644 726 l 1644 744 l 1531 744 l 1531 815 l 1650 815 l 1650 833 l 1511 833 l 1511 638 l 1651 638 m 1174 815 l 1238 815 b 1283 779 1261 815 1283 806 b 1239 747 1283 756 1263 747 l 1174 747 m 200 813 l 250 700 l 151 700 m 582 813 l 631 700 l 532 700 m 1024 813 l 1072 700 l 974 700 m 1174 729 l 1239 729 b 1289 690 1263 729 1289 718 b 1238 656 1289 663 1260 656 l 1174 656 m 89 390 l 89 586 l 69 586 l 69 390 m 156 586 l 143 586 l 143 390 l 163 390 l 163 547 l 289 390 l 301 390 l 301 586 l 282 586 l 282 426 m 467 390 l 486 390 l 486 567 l 556 567 l 556 586 l 397 586 l 397 567 l 467 567 m 744 390 l 744 586 l 725 586 l 725 494 l 607 494 l 607 586 l 588 586 l 588 390 l 607 390 l 607 476 l 725 476 l 725 390 m 940 408 l 819 408 l 819 479 l 932 479 l 932 497 l 819 497 l 819 567 l 938 567 l 938 586 l 799 586 l 799 390 l 940 390 m 1075 390 l 1075 475 l 1186 475 l 1186 493 l 1075 493 l 1075 567 l 1190 567 l 1190 586 l 1056 586 l 1056 390 m 1365 586 l 1365 465 b 1307 406 1365 424 1338 406 b 1249 465 1274 406 1249 428 l 1249 586 l 1229 586 l 1229 465 b 1307 388 1229 413 1265 388 b 1385 465 1350 388 1385 413 l 1385 586 m 1436 586 l 1436 390 l 1565 390 l 1565 408 l 1457 408 l 1457 586 m 1597 586 l 1597 390 l 1726 390 l 1726 408 l 1617 408 l 1617 586 m 992 307 b 918 342 974 333 944 342 b 843 288 885 342 843 328 b 917 235 843 249 881 242 b 976 196 947 229 976 222 b 918 158 976 164 943 158 b 854 192 894 158 867 167 l 836 182 b 918 139 851 151 886 139 b 997 196 954 139 997 151 b 919 253 997 238 958 246 b 863 288 889 258 863 264 b 918 322 863 315 894 322 b 975 297 939 322 964 317 m 1297 240 b 1197 342 1297 292 1264 342 b 1099 240 1135 342 1099 294 b 1197 139 1099 189 1131 138 b 1297 240 1264 138 1297 189 m 436 339 l 414 339 l 343 164 l 269 339 l 249 339 l 332 142 l 354 142 m 611 161 l 490 161 l 490 232 l 603 232 l 603 250 l 490 250 l 490 319 l 608 319 l 608 339 l 471 339 l 471 142 l 611 142 m 747 215 b 807 276 789 218 807 246 b 742 339 807 310 785 339 l 654 339 l 654 142 l 674 142 l 674 214 l 724 214 l 789 142 l 815 142 m 1057 142 l 1057 339 l 1038 339 l 1038 142 m 1351 339 l 1339 339 l 1339 142 l 1358 142 l 1358 300 l 1485 142 l 1496 142 l 1496 339 l 1476 339 l 1476 244 l 1478 179 m 1197 157 b 1118 240 1144 157 1119 197 b 1197 322 1117 285 1144 324 b 1278 240 1251 324 1278 283 b 1197 157 1278 197 1251 157 m 742 319 b 788 276 772 319 788 300 b 740 233 788 251 772 233 l 674 233 l 674 319 "},"—":{"ha":1796,"x_min":0,"x_max":0,"o":"m 278 638 l 299 638 l 210 833 l 190 833 l 103 638 l 124 638 l 144 683 l 257 683 m 485 833 l 463 833 l 392 658 l 318 833 l 297 833 l 381 638 l 403 638 m 658 638 l 679 638 l 592 833 l 572 833 l 483 638 l 504 638 l 525 683 l 639 683 m 732 638 l 732 833 l 713 833 l 713 638 m 786 833 l 786 638 l 915 638 l 915 656 l 806 656 l 806 833 m 1100 638 l 1121 638 l 1033 833 l 1014 833 l 925 638 l 946 638 l 967 683 l 1079 683 m 1154 833 l 1154 638 l 1238 638 b 1308 690 1272 638 1308 650 b 1272 738 1308 710 1296 731 b 1303 779 1292 744 1303 761 b 1238 833 1303 818 1272 833 m 1351 833 l 1351 638 l 1479 638 l 1479 656 l 1371 656 l 1371 833 m 1651 656 l 1531 656 l 1531 726 l 1644 726 l 1644 744 l 1531 744 l 1531 815 l 1650 815 l 1650 833 l 1511 833 l 1511 638 l 1651 638 m 1174 815 l 1238 815 b 1283 779 1261 815 1283 806 b 1239 747 1283 756 1263 747 l 1174 747 m 200 813 l 250 700 l 151 700 m 582 813 l 631 700 l 532 700 m 1024 813 l 1072 700 l 974 700 m 1174 729 l 1239 729 b 1289 690 1263 729 1289 718 b 1238 656 1289 663 1260 656 l 1174 656 m 89 390 l 89 586 l 69 586 l 69 390 m 156 586 l 143 586 l 143 390 l 163 390 l 163 547 l 289 390 l 301 390 l 301 586 l 282 586 l 282 426 m 467 390 l 486 390 l 486 567 l 556 567 l 556 586 l 397 586 l 397 567 l 467 567 m 744 390 l 744 586 l 725 586 l 725 494 l 607 494 l 607 586 l 588 586 l 588 390 l 607 390 l 607 476 l 725 476 l 725 390 m 940 408 l 819 408 l 819 479 l 932 479 l 932 497 l 819 497 l 819 567 l 938 567 l 938 586 l 799 586 l 799 390 l 940 390 m 1075 390 l 1075 475 l 1186 475 l 1186 493 l 1075 493 l 1075 567 l 1190 567 l 1190 586 l 1056 586 l 1056 390 m 1365 586 l 1365 465 b 1307 406 1365 424 1338 406 b 1249 465 1274 406 1249 428 l 1249 586 l 1229 586 l 1229 465 b 1307 388 1229 413 1265 388 b 1385 465 1350 388 1385 413 l 1385 586 m 1436 586 l 1436 390 l 1565 390 l 1565 408 l 1457 408 l 1457 586 m 1597 586 l 1597 390 l 1726 390 l 1726 408 l 1617 408 l 1617 586 m 992 307 b 918 342 974 333 944 342 b 843 288 885 342 843 328 b 917 235 843 249 881 242 b 976 196 947 229 976 222 b 918 158 976 164 943 158 b 854 192 894 158 867 167 l 836 182 b 918 139 851 151 886 139 b 997 196 954 139 997 151 b 919 253 997 238 958 246 b 863 288 889 258 863 264 b 918 322 863 315 894 322 b 975 297 939 322 964 317 m 1297 240 b 1197 342 1297 292 1264 342 b 1099 240 1135 342 1099 294 b 1197 139 1099 189 1131 138 b 1297 240 1264 138 1297 189 m 436 339 l 414 339 l 343 164 l 269 339 l 249 339 l 332 142 l 354 142 m 611 161 l 490 161 l 490 232 l 603 232 l 603 250 l 490 250 l 490 319 l 608 319 l 608 339 l 471 339 l 471 142 l 611 142 m 747 215 b 807 276 789 218 807 246 b 742 339 807 310 785 339 l 654 339 l 654 142 l 674 142 l 674 214 l 724 214 l 789 142 l 815 142 m 1057 142 l 1057 339 l 1038 339 l 1038 142 m 1351 339 l 1339 339 l 1339 142 l 1358 142 l 1358 300 l 1485 142 l 1496 142 l 1496 339 l 1476 339 l 1476 244 l 1478 179 m 1197 157 b 1118 240 1144 157 1119 197 b 1197 322 1117 285 1144 324 b 1278 240 1251 324 1278 283 b 1197 157 1278 197 1251 157 m 742 319 b 788 276 772 319 788 300 b 740 233 788 251 772 233 l 674 233 l 674 319 "},"–":{"ha":1796,"x_min":0,"x_max":0,"o":"m 278 638 l 299 638 l 210 833 l 190 833 l 103 638 l 124 638 l 144 683 l 257 683 m 485 833 l 463 833 l 392 658 l 318 833 l 297 833 l 381 638 l 403 638 m 658 638 l 679 638 l 592 833 l 572 833 l 483 638 l 504 638 l 525 683 l 639 683 m 732 638 l 732 833 l 713 833 l 713 638 m 786 833 l 786 638 l 915 638 l 915 656 l 806 656 l 806 833 m 1100 638 l 1121 638 l 1033 833 l 1014 833 l 925 638 l 946 638 l 967 683 l 1079 683 m 1154 833 l 1154 638 l 1238 638 b 1308 690 1272 638 1308 650 b 1272 738 1308 710 1296 731 b 1303 779 1292 744 1303 761 b 1238 833 1303 818 1272 833 m 1351 833 l 1351 638 l 1479 638 l 1479 656 l 1371 656 l 1371 833 m 1651 656 l 1531 656 l 1531 726 l 1644 726 l 1644 744 l 1531 744 l 1531 815 l 1650 815 l 1650 833 l 1511 833 l 1511 638 l 1651 638 m 1174 815 l 1238 815 b 1283 779 1261 815 1283 806 b 1239 747 1283 756 1263 747 l 1174 747 m 200 813 l 250 700 l 151 700 m 582 813 l 631 700 l 532 700 m 1024 813 l 1072 700 l 974 700 m 1174 729 l 1239 729 b 1289 690 1263 729 1289 718 b 1238 656 1289 663 1260 656 l 1174 656 m 89 390 l 89 586 l 69 586 l 69 390 m 156 586 l 143 586 l 143 390 l 163 390 l 163 547 l 289 390 l 301 390 l 301 586 l 282 586 l 282 426 m 467 390 l 486 390 l 486 567 l 556 567 l 556 586 l 397 586 l 397 567 l 467 567 m 744 390 l 744 586 l 725 586 l 725 494 l 607 494 l 607 586 l 588 586 l 588 390 l 607 390 l 607 476 l 725 476 l 725 390 m 940 408 l 819 408 l 819 479 l 932 479 l 932 497 l 819 497 l 819 567 l 938 567 l 938 586 l 799 586 l 799 390 l 940 390 m 1075 390 l 1075 475 l 1186 475 l 1186 493 l 1075 493 l 1075 567 l 1190 567 l 1190 586 l 1056 586 l 1056 390 m 1365 586 l 1365 465 b 1307 406 1365 424 1338 406 b 1249 465 1274 406 1249 428 l 1249 586 l 1229 586 l 1229 465 b 1307 388 1229 413 1265 388 b 1385 465 1350 388 1385 413 l 1385 586 m 1436 586 l 1436 390 l 1565 390 l 1565 408 l 1457 408 l 1457 586 m 1597 586 l 1597 390 l 1726 390 l 1726 408 l 1617 408 l 1617 586 m 992 307 b 918 342 974 333 944 342 b 843 288 885 342 843 328 b 917 235 843 249 881 242 b 976 196 947 229 976 222 b 918 158 976 164 943 158 b 854 192 894 158 867 167 l 836 182 b 918 139 851 151 886 139 b 997 196 954 139 997 151 b 919 253 997 238 958 246 b 863 288 889 258 863 264 b 918 322 863 315 894 322 b 975 297 939 322 964 317 m 1297 240 b 1197 342 1297 292 1264 342 b 1099 240 1135 342 1099 294 b 1197 139 1099 189 1131 138 b 1297 240 1264 138 1297 189 m 436 339 l 414 339 l 343 164 l 269 339 l 249 339 l 332 142 l 354 142 m 611 161 l 490 161 l 490 232 l 603 232 l 603 250 l 490 250 l 490 319 l 608 319 l 608 339 l 471 339 l 471 142 l 611 142 m 747 215 b 807 276 789 218 807 246 b 742 339 807 310 785 339 l 654 339 l 654 142 l 674 142 l 674 214 l 724 214 l 789 142 l 815 142 m 1057 142 l 1057 339 l 1038 339 l 1038 142 m 1351 339 l 1339 339 l 1339 142 l 1358 142 l 1358 300 l 1485 142 l 1496 142 l 1496 339 l 1476 339 l 1476 244 l 1478 179 m 1197 157 b 1118 240 1144 157 1119 197 b 1197 322 1117 285 1144 324 b 1278 240 1251 324 1278 283 b 1197 157 1278 197 1251 157 m 742 319 b 788 276 772 319 788 300 b 740 233 788 251 772 233 l 674 233 l 674 319 "}}}
